<?xml version="1.0" encoding="iso-8859-1"?>
<!-- Generator: Adobe Illustrator 19.0.0, SVG Export Plug-In . SVG Version: 6.00 Build 0)  -->
<svg version="1.1" id="Layer_1" xmlns="http://www.w3.org/2000/svg" xmlns:xlink="http://www.w3.org/1999/xlink" x="0px" y="0px"
	 viewBox="0 0 511.999 511.999" style="enable-background:new 0 0 511.999 511.999;" xml:space="preserve">
<path style="fill:#BABABA;" d="M329.06,291.432c-4.1-0.921-8.174,1.65-9.099,5.751l-15.734,69.797
	c-16.834-74.675-15.71-70.505-16.666-72.086c-2.381-3.891-7.551-4.769-11.069-2.114c-3.077,2.305-1.548-1.37-18.584,74.201
	c-16.78-74.438-15.487-71.862-18.586-74.203c-2.723-2.053-6.605-2.074-9.374,0.18c-3.467,2.817-2.132,2.037-18.359,74.02
	c-16.835-74.68-15.714-70.545-16.683-72.111c-3.565-5.762-12.385-4.354-13.902,2.315l-15.733,69.793
	c-16.708-74.115-15.142-74.973-22.379-75.686c-3.354-0.352-6.683,1.587-7.921,4.948c-0.297,0.818,0.722-3.522-16.018,70.741
	l-15.735-69.797c-0.924-4.099-4.995-6.672-9.099-5.751c-4.1,0.925-6.675,4.997-5.751,9.099l46.319,205.468l0,0
	c0.742,3.281,3.665,5.937,7.454,5.937c2.695,0,95.907,0.002,92.599,0.002c49.854,0,47.931,0.502,50.65-1.354
	c4.247-2.984,1.595,2.091,49.417-210.054C335.735,296.429,333.161,292.356,329.06,291.432z M281.069,333.466l15.117,67.063
	c0.069,0.306,0.178,0.592,0.281,0.88l-15.397,68.305l-15.357-68.124L281.069,333.466z M271.551,496.714h-27.283L257.91,436.2
	L271.551,496.714z M234.751,333.465l15.357,68.124l-15.357,68.124l-15.357-68.126L234.751,333.465z M225.233,496.714H197.95
	l13.642-60.515L225.233,496.714z M188.433,333.462l15.357,68.125l-15.357,68.122l-15.357-68.124L188.433,333.462z M126.998,400.529
	l15.117-67.065l15.357,68.122l-15.357,68.124l-15.397-68.301C126.82,401.121,126.929,400.835,126.998,400.529z M165.274,436.196
	l13.642,60.517h-27.285L165.274,436.196z"/>
<path style="fill:#F49C0F;" d="M410.566,0H12.615C5.667,0,0.031,5.635,0.031,12.585v273.689c0,6.951,5.636,12.582,12.583,12.582
	h397.951c6.95,0,12.584-5.632,12.584-12.582V12.585C423.151,5.635,417.516,0,410.566,0z"/>
<path style="fill:#FCAB3F;" d="M410.566,0H114.867c-47.261,104.853-13.953,232.085,85.803,298.857h209.895
	c6.95,0,12.584-5.632,12.584-12.582V12.585C423.151,5.635,417.516,0,410.566,0z"/>
<path style="fill:#FFC524;" d="M358.341,124.738H64.84c-6.483,0-11.74,5.256-11.74,11.741v162.377h316.982V136.479
	C370.082,129.995,364.826,124.738,358.341,124.738z"/>
<path style="fill:#FFD961;" d="M358.341,124.738H95.122c7.79,72.579,47.847,135.495,105.55,174.117h169.411V136.479
	C370.082,129.995,364.826,124.738,358.341,124.738z"/>
<path style="fill:#F95753;" d="M335.232,298.857H87.953c-6.239,0-12.846-4.543-12.846-13.915c0-7.094,5.752-12.846,12.846-12.846
	h247.278c7.094,0,12.846,5.752,12.846,12.846C348.078,294.032,341.74,298.857,335.232,298.857z"/>
<g>
	<path style="fill:#CC4A4A;" d="M335.232,285.475H87.953c-4.864,0-9.096-2.704-11.277-6.689
		c-4.333,7.918,0.292,20.069,11.277,20.069h247.278c10.901,0,15.656-12.066,11.277-20.069
		C344.326,282.772,340.095,285.475,335.232,285.475z"/>
	<circle style="fill:#CC4A4A;" cx="423.147" cy="423.117" r="81.21"/>
</g>
<path style="fill:#F95753;" d="M421.088,341.964c-16.54,14.865-26.949,36.418-26.949,60.408c0,45.564,37.526,82.343,83.269,81.154
	c16.54-14.865,26.95-36.418,26.95-60.407C504.356,377.555,466.832,340.776,421.088,341.964z"/>
<path style="fill:#AA3C3C;" d="M511.967,423.119c0-88.521-117.153-122.901-164.279-46.785c-8.46,13.594-13.354,29.628-13.354,46.785
	c0,17.212,4.926,33.293,13.436,46.917c34.738,55.879,116.084,55.683,150.722,0.061C507.026,456.461,511.967,440.358,511.967,423.119
	z M477.933,472.197c-10.313-11.539-16.746-26.095-18.356-41.467h36.755C494.728,446.188,488.317,460.618,477.933,472.197z
	 M349.969,430.73h36.753c-1.611,15.373-8.042,29.93-18.355,41.466C357.817,460.433,351.545,445.932,349.969,430.73z
	 M415.539,349.925v65.583h-13.518c-1.661-19.169-9.547-37.364-22.383-51.693C390.656,355.771,402.887,351.226,415.539,349.925z
	 M466.662,363.815c-12.837,14.329-20.723,32.525-22.384,51.693h-13.516v-65.583C443.476,351.233,456.028,355.956,466.662,363.815z
	 M496.333,415.508h-36.756c1.611-15.372,8.042-29.926,18.354-41.464C487.744,384.93,494.637,399.299,496.333,415.508z
	 M368.37,374.044c10.311,11.537,16.741,26.093,18.352,41.464h-36.753C351.546,400.273,357.832,385.825,368.37,374.044z
	 M402.021,430.73h13.518v65.591c-13.342-1.377-25.632-6.34-35.903-13.897C392.473,468.095,400.36,449.899,402.021,430.73z
	 M430.762,430.73h13.516c1.662,19.169,9.549,37.365,22.386,51.694c-10.271,7.556-22.56,12.52-35.903,13.897V430.73z"/>
<g>
</g>
<g>
</g>
<g>
</g>
<g>
</g>
<g>
</g>
<g>
</g>
<g>
</g>
<g>
</g>
<g>
</g>
<g>
</g>
<g>
</g>
<g>
</g>
<g>
</g>
<g>
</g>
<g>
</g>
</svg>
