<?xml version="1.0" encoding="iso-8859-1"?>
<!-- Generator: Adobe Illustrator 19.0.0, SVG Export Plug-In . SVG Version: 6.00 Build 0)  -->
<svg version="1.1" id="Capa_1" xmlns="http://www.w3.org/2000/svg" xmlns:xlink="http://www.w3.org/1999/xlink" x="0px" y="0px"
	 viewBox="0 0 512 512" style="enable-background:new 0 0 512 512;" xml:space="preserve">
<path style="fill:#A4A49E;" d="M126,166H96v-50c0-5.523,4.477-10,10-10h10c5.523,0,10,4.477,10,10V166z"/>
<path style="fill:#DBD9C7;" d="M111,166H96v-50c0-5.523,4.477-10,10-10h5V166z"/>
<path style="fill:#A4A49E;" d="M196,166h-30v-30c0-5.523,4.477-10,10-10h10c5.523,0,10,4.477,10,10V166z"/>
<path style="fill:#DBD9C7;" d="M181,166h-15v-30c0-5.523,4.477-10,10-10h5V166z"/>
<path style="fill:#A4A49E;" d="M226,306h70v-60c0-5.523-4.477-10-10-10h-60V306z"/>
<polygon style="fill:#B8B7AC;" points="56,206 56,316 236,316 236,206 149,189 "/>
<rect x="56" y="166" style="fill:#A4A49E;" width="180" height="40"/>
<path style="fill:#DBD9C7;" d="M236,186H56c-5.523,0-10-4.477-10-10v-10c0-5.523,4.477-10,10-10h180c5.523,0,10,4.477,10,10v10
	C246,181.523,241.523,186,236,186z"/>
<path style="fill:#B8B7AC;" d="M246,176v-10c0-5.523-4.477-10-10-10H106c-5.523,0-10,4.477-10,10v10c0,5.523,4.477,10,10,10h130
	C241.523,186,246,181.523,246,176z"/>
<path style="fill:#8D472E;" d="M356,236c-33.137,0-60,26.863-60,60l60,60l60-60C416,262.863,389.137,236,356,236z"/>
<path style="fill:#AB5034;" d="M362.806,236.395C360.571,236.143,358.303,236,356,236c-23.928,0-44.579,14.01-54.212,34.273
	C308.051,279.747,318.793,286,331,286c19.33,0,35-15.67,35-35C366,245.785,364.851,240.841,362.806,236.395z"/>
<path style="fill:#A4A49E;" d="M495.846,382.548C484.105,376.902,476,364.9,476,351c0-8.02,2.698-15.407,7.235-21.307
	c0.933-1.213,1.832-2.447,2.71-3.693L396,306l50,100h48.5c5.523,0,10-4.477,10-10v-0.011
	C504.5,390.2,501.063,385.058,495.846,382.548z"/>
<path style="fill:#DBD9C7;" d="M106.691,318.735L21.51,326c9.808,19.879,24.464,37.341,43.049,50.55l33.637,23.904
	c5.077,3.608,11.15,5.546,17.378,5.546h88.5L106.691,318.735z"/>
<path style="fill:#B8B7AC;" d="M447.346,382.548C435.605,376.902,427.5,364.9,427.5,351c0-8.02,2.698-15.407,7.235-21.307
	c0.933-1.213,1.832-2.447,2.71-3.693c0.922-1.309,1.802-2.642,2.663-3.987L256,306l-149.309,12.735
	c1.036,2.454,2.141,4.878,3.319,7.265c9.808,19.879,24.463,37.341,43.049,50.55l33.637,23.904c5.077,3.608,11.15,5.546,17.378,5.546
	H446c5.523,0,10-4.477,10-10v-0.011C456,390.2,452.563,385.058,447.346,382.548z"/>
<path style="fill:#8D472E;" d="M494.5,256H446l-8.555,70h48.5c11.738-16.664,18.555-36.287,18.555-56.734V266
	C504.5,260.477,500.023,256,494.5,256z"/>
<path style="fill:#BD7155;" d="M106,256H17.5c-5.523,0-10,4.477-10,10c0,21.114,4.928,41.592,14.01,60h88.5L106,256z"/>
<path style="fill:#AB5034;" d="M446,256h-19.477c-6.812,0-13.421,2.318-18.741,6.574l-33.565,26.852
	c-5.319,4.256-11.929,6.574-18.741,6.574h-117.05c-7.956,0-15.587-3.161-21.213-8.787l-22.426-22.426
	c-5.626-5.626-13.257-8.787-21.213-8.787H106c-5.523,0-10,4.477-10,10c0,21.114,4.927,41.592,14.01,60h327.435
	C449.183,309.336,456,289.713,456,269.266V266C456,260.477,451.523,256,446,256z"/>
<g>
	<path style="fill:#3E474C;" d="M206,233.5h-20.75c-4.142,0-7.5-3.358-7.5-7.5v-10c0-4.142,3.358-7.5,7.5-7.5H206
		c4.142,0,7.5,3.358,7.5,7.5v10C213.5,230.142,210.142,233.5,206,233.5z"/>
	<path style="fill:#3E474C;" d="M106.75,233.5H86c-4.142,0-7.5-3.358-7.5-7.5v-10c0-4.142,3.358-7.5,7.5-7.5h20.75
		c4.142,0,7.5,3.358,7.5,7.5v10C114.25,230.142,110.892,233.5,106.75,233.5z"/>
	<path style="fill:#3E474C;" d="M155.25,233.5h-18.5c-4.142,0-7.5-3.358-7.5-7.5v-10c0-4.142,3.358-7.5,7.5-7.5h18.5
		c4.142,0,7.5,3.358,7.5,7.5v10C162.75,230.142,159.392,233.5,155.25,233.5z"/>
</g>
<path d="M512,269.266V266c0-9.649-7.851-17.5-17.5-17.5h-67.977c-6.406,0-12.716,1.666-18.276,4.762
	C395.489,237.635,376.471,228.5,356,228.5c-21.187,0-40.116,9.82-52.5,25.139V246c0-9.649-7.851-17.5-17.5-17.5h-42.5V186
	c0-4.142-3.358-7.5-7.5-7.5H56c-1.378,0-2.5-1.122-2.5-2.5v-10c0-1.378,1.122-2.5,2.5-2.5h180c1.378,0,2.5,1.122,2.5,2.5
	c0,4.142,3.358,7.5,7.5,7.5s7.5-3.358,7.5-7.5c0-9.649-7.851-17.5-17.5-17.5h-32.5V136c0-9.649-7.851-17.5-17.5-17.5h-10
	c-9.649,0-17.5,7.851-17.5,17.5v12.5h-25V116c0-9.649-7.851-17.5-17.5-17.5h-10c-9.649,0-17.5,7.851-17.5,17.5v32.5H56
	c-9.649,0-17.5,7.851-17.5,17.5v10c0,6.963,4.098,12.972,10,15.787V248.5h-31C7.851,248.5,0,256.351,0,266
	c0,22.034,5.118,43.463,14.543,62.765c0.151,0.381,0.334,0.744,0.543,1.091c10.358,20.767,25.725,39.018,45.129,52.808l26.02,18.491
	c3.377,2.4,8.059,1.608,10.458-1.769c2.399-3.376,1.608-8.059-1.769-10.458l-26.02-18.491c-14.071-10-25.768-22.623-34.637-36.937
	H380.01c4.143,0,7.5-3.358,7.5-7.5s-3.357-7.5-7.5-7.5H26.287C18.957,302.197,15,284.332,15,266c0-1.378,1.122-2.5,2.5-2.5h156.074
	c6.01,0,11.66,2.34,15.91,6.59l22.427,22.427c6.047,6.047,13.797,9.765,22.168,10.725c0.615,0.163,1.256,0.258,1.922,0.258
	c0.262,0,0.521-0.014,0.776-0.04c0.548,0.024,1.098,0.04,1.65,0.04h117.05c8.483,0,16.803-2.918,23.427-8.217l33.564-26.853
	c3.974-3.179,8.966-4.93,14.056-4.93H494.5c1.379,0,2.5,1.122,2.5,2.5v3.266c0,17.22-5.173,34.09-15.024,49.234h-44.531
	c-4.143,0-7.5,3.358-7.5,7.5s3.357,7.5,7.5,7.5h34.814c-2.47,5.446-3.759,11.365-3.759,17.5c0,16.231,9.458,31.268,24.096,38.307
	c2.717,1.307,4.404,3.867,4.404,6.693c0,1.378-1.121,2.5-2.5,2.5H115.574c-4.142,0-7.5,3.358-7.5,7.5s3.358,7.5,7.5,7.5H494.5
	c9.649,0,17.5-7.851,17.5-17.511c0-8.632-4.944-16.372-12.903-20.2c-9.475-4.557-15.597-14.287-15.597-24.79
	c0-6.116,1.964-11.903,5.681-16.735C504.109,314.853,512,292.376,512,269.266z M173.5,136c0-1.378,1.122-2.5,2.5-2.5h10
	c1.378,0,2.5,1.122,2.5,2.5v12.5h-15V136z M103.5,116c0-1.378,1.122-2.5,2.5-2.5h10c1.378,0,2.5,1.122,2.5,2.5v32.5h-15V116z
	 M228.5,286.178c-2.185-1.077-4.211-2.495-5.983-4.268l-22.427-22.427c-7.083-7.083-16.5-10.983-26.516-10.983H63.5v-55h165V286.178
	z M288.5,288.5h-45v-45H286c1.379,0,2.5,1.122,2.5,2.5V288.5z M369.532,283.57c-3.974,3.179-8.966,4.93-14.056,4.93h-51.432
	c3.651-25.407,25.554-45,51.956-45c15.689,0,30.284,6.897,40.206,18.73L369.532,283.57z"/>
<path d="M86,233.5c4.142,0,7.5-3.358,7.5-7.5v-2.5h13.25c4.142,0,7.5-3.358,7.5-7.5s-3.358-7.5-7.5-7.5H86
	c-4.142,0-7.5,3.358-7.5,7.5v10C78.5,230.142,81.858,233.5,86,233.5z"/>
<path d="M136.75,233.5c4.142,0,7.5-3.358,7.5-7.5v-2.5h11c4.142,0,7.5-3.358,7.5-7.5s-3.358-7.5-7.5-7.5h-18.5
	c-4.142,0-7.5,3.358-7.5,7.5v10C129.25,230.142,132.608,233.5,136.75,233.5z"/>
<path d="M185.25,233.5c4.142,0,7.5-3.358,7.5-7.5v-2.5H206c4.142,0,7.5-3.358,7.5-7.5s-3.358-7.5-7.5-7.5h-20.75
	c-4.142,0-7.5,3.358-7.5,7.5v10C177.75,230.142,181.108,233.5,185.25,233.5z"/>
<g>
</g>
<g>
</g>
<g>
</g>
<g>
</g>
<g>
</g>
<g>
</g>
<g>
</g>
<g>
</g>
<g>
</g>
<g>
</g>
<g>
</g>
<g>
</g>
<g>
</g>
<g>
</g>
<g>
</g>
</svg>
