<?xml version="1.0" encoding="iso-8859-1"?>
<!-- Generator: Adobe Illustrator 19.0.0, SVG Export Plug-In . SVG Version: 6.00 Build 0)  -->
<svg version="1.1" id="Layer_1" xmlns="http://www.w3.org/2000/svg" xmlns:xlink="http://www.w3.org/1999/xlink" x="0px" y="0px"
	 viewBox="0 0 512.001 512.001" style="enable-background:new 0 0 512.001 512.001;" xml:space="preserve">
<path style="fill:#676775;" d="M368.693,371.182l0.194-0.184c10.074-9.539,27.597-32.682,39.447-49.746
	c-1.162-0.131-2.298-0.298-3.422-0.481c-27.565-1.117-49.117-7.35-51.676-15.104l0,0c-3.861-1.327-7.574-3.04-11.07-5.129
	l-20.436,27.194v111.986c0,5.089,4.126,9.214,9.214,9.214h31.327h14.196c4.775,0,8.646-3.871,8.646-8.646v-10.978
	c0-11.929-10.227-21.6-22.843-21.6v-19.135C362.272,382.935,364.595,375.058,368.693,371.182z"/>
<path style="fill:#5F5F6D;" d="M380.725,318.242c-15.17,20.311-35.264,46.019-42.378,52.756l-0.194,0.184
	c-4.098,3.876-6.421,11.752-6.421,17.393v19.135c12.616,0,22.843,9.67,22.843,21.6v10.978c0,4.775-3.871,8.646-8.645,8.646h16.343
	h14.196c0.319,0,0.632-0.02,0.942-0.053c0.102-0.011,0.201-0.032,0.302-0.046c0.206-0.03,0.411-0.061,0.612-0.105
	c0.117-0.026,0.23-0.059,0.345-0.089c0.18-0.047,0.359-0.097,0.534-0.155c0.118-0.039,0.234-0.084,0.35-0.128
	c0.167-0.064,0.331-0.131,0.493-0.205c0.113-0.051,0.225-0.106,0.336-0.162c0.158-0.08,0.312-0.166,0.464-0.255
	c0.105-0.062,0.211-0.124,0.314-0.19c0.152-0.098,0.298-0.204,0.443-0.311c0.093-0.069,0.188-0.136,0.279-0.208
	c0.154-0.123,0.299-0.256,0.444-0.389c0.072-0.067,0.148-0.129,0.218-0.199c0.207-0.204,0.404-0.417,0.589-0.641
	c0.356-0.431,0.672-0.896,0.941-1.39c0.152-0.279,0.284-0.57,0.405-0.867c0.037-0.092,0.068-0.187,0.103-0.281
	c0.078-0.212,0.149-0.428,0.21-0.648c0.03-0.109,0.059-0.219,0.085-0.329c0.053-0.223,0.095-0.449,0.13-0.678
	c0.016-0.102,0.035-0.204,0.047-0.308c0.039-0.331,0.064-0.667,0.064-1.008v-10.978c0-0.398-0.013-0.793-0.036-1.186
	c-0.007-0.129-0.021-0.255-0.031-0.383c-0.02-0.263-0.041-0.526-0.071-0.786c-0.017-0.151-0.04-0.301-0.061-0.451
	c-0.032-0.235-0.066-0.469-0.106-0.701c-0.027-0.157-0.058-0.312-0.088-0.468c-0.044-0.224-0.091-0.448-0.142-0.669
	c-0.036-0.156-0.074-0.31-0.113-0.465c-0.057-0.22-0.117-0.439-0.181-0.657c-0.044-0.149-0.087-0.299-0.134-0.447
	c-0.071-0.223-0.147-0.443-0.225-0.663c-0.049-0.139-0.097-0.278-0.149-0.415c-0.09-0.239-0.188-0.474-0.287-0.708
	c-0.048-0.114-0.093-0.229-0.143-0.342c-0.153-0.345-0.314-0.686-0.485-1.022c-0.198-0.388-0.411-0.767-0.632-1.141
	c-0.063-0.107-0.128-0.212-0.193-0.318c-0.176-0.286-0.358-0.568-0.547-0.846c-0.063-0.092-0.123-0.185-0.187-0.276
	c-0.248-0.353-0.506-0.7-0.776-1.038c-0.05-0.063-0.103-0.123-0.154-0.185c-0.227-0.279-0.462-0.552-0.703-0.82
	c-0.086-0.096-0.174-0.191-0.262-0.286c-0.246-0.264-0.498-0.521-0.756-0.773c-0.058-0.057-0.114-0.115-0.173-0.171
	c-0.315-0.3-0.64-0.59-0.973-0.872c-0.085-0.072-0.173-0.141-0.26-0.213c-0.263-0.216-0.531-0.426-0.804-0.631
	c-0.101-0.076-0.202-0.152-0.304-0.226c-0.358-0.259-0.721-0.511-1.095-0.75c-0.404-0.258-0.821-0.5-1.243-0.734
	c-0.107-0.059-0.214-0.118-0.322-0.175c-0.426-0.227-0.857-0.446-1.299-0.648c-0.003-0.001-0.006-0.003-0.008-0.004
	c-0.442-0.201-0.894-0.384-1.351-0.559c-0.116-0.044-0.232-0.087-0.348-0.13c-0.461-0.168-0.927-0.327-1.402-0.467
	c-0.003-0.001-0.006-0.002-0.009-0.003c-0.474-0.139-0.958-0.259-1.445-0.37c-0.123-0.028-0.246-0.055-0.37-0.081
	c-0.985-0.207-1.993-0.353-3.022-0.435c-0.129-0.01-0.258-0.02-0.388-0.028c-0.517-0.033-1.038-0.056-1.564-0.056v-19.135
	c0-1.974,0.29-4.222,0.836-6.476c0.023-0.093,0.043-0.186,0.067-0.28c0.154-0.613,0.33-1.225,0.522-1.832
	c0.036-0.114,0.072-0.226,0.11-0.34c0.2-0.606,0.415-1.204,0.652-1.791c0.036-0.089,0.075-0.176,0.111-0.265
	c0.435-1.049,0.927-2.057,1.478-2.99c0.071-0.121,0.146-0.236,0.219-0.354c0.165-0.267,0.334-0.528,0.508-0.781
	c0.087-0.126,0.175-0.25,0.264-0.372c0.179-0.245,0.363-0.48,0.551-0.708c0.084-0.103,0.167-0.208,0.253-0.308
	c0.275-0.316,0.557-0.619,0.85-0.897l0.056-0.053l0.139-0.131c0.32-0.303,0.657-0.63,1.011-0.979
	c0.018-0.018,0.038-0.038,0.056-0.056c0.009-0.009,0.018-0.018,0.027-0.027c0.289-0.286,0.591-0.589,0.901-0.904
	c0.162-0.165,0.33-0.341,0.495-0.512c0.163-0.169,0.324-0.333,0.49-0.507c0.178-0.186,0.361-0.383,0.542-0.575
	c0.168-0.179,0.335-0.354,0.505-0.537c0.186-0.2,0.377-0.409,0.566-0.615c0.17-0.185,0.339-0.367,0.511-0.557
	c0.192-0.212,0.389-0.43,0.584-0.647c0.175-0.194,0.349-0.387,0.526-0.585c0.193-0.217,0.39-0.44,0.586-0.662
	c0.185-0.209,0.37-0.418,0.557-0.632c0.195-0.223,0.392-0.449,0.589-0.676c0.19-0.218,0.379-0.437,0.57-0.659
	c0.202-0.234,0.405-0.471,0.608-0.709c0.191-0.224,0.383-0.448,0.576-0.676c0.205-0.242,0.411-0.486,0.618-0.732
	c0.197-0.234,0.395-0.469,0.593-0.707c0.206-0.246,0.412-0.493,0.62-0.742c0.201-0.241,0.402-0.484,0.604-0.729
	c0.21-0.254,0.42-0.508,0.631-0.765c0.204-0.249,0.409-0.5,0.615-0.751c0.21-0.258,0.421-0.515,0.632-0.776
	c0.21-0.259,0.421-0.52,0.632-0.781c0.21-0.26,0.419-0.519,0.63-0.781c0.208-0.259,0.417-0.521,0.626-0.783
	c0.218-0.273,0.437-0.546,0.656-0.821c0.207-0.26,0.416-0.524,0.624-0.787c0.217-0.274,0.434-0.547,0.652-0.824
	c0.228-0.29,0.458-0.583,0.687-0.875c0.2-0.255,0.4-0.508,0.6-0.765c0.255-0.327,0.511-0.657,0.767-0.986
	c0.295-0.379,0.59-0.759,0.885-1.141c0.306-0.396,0.611-0.791,0.917-1.189c0.178-0.232,0.357-0.466,0.535-0.699
	c0.256-0.334,0.511-0.667,0.766-1.002c0.2-0.262,0.4-0.526,0.6-0.789c0.23-0.303,0.461-0.606,0.691-0.91
	c0.206-0.272,0.411-0.544,0.616-0.816c0.229-0.304,0.459-0.608,0.687-0.912c0.204-0.271,0.407-0.543,0.61-0.814
	c0.224-0.299,0.447-0.598,0.67-0.896c0.211-0.283,0.421-0.565,0.631-0.847c0.216-0.291,0.432-0.581,0.647-0.872
	c0.21-0.284,0.42-0.567,0.629-0.851c0.214-0.29,0.428-0.58,0.641-0.869c0.205-0.279,0.41-0.558,0.615-0.837
	c0.218-0.296,0.434-0.593,0.651-0.889c0.202-0.276,0.403-0.551,0.603-0.826c0.211-0.29,0.422-0.58,0.632-0.869
	c0.2-0.275,0.4-0.551,0.598-0.825c0.216-0.299,0.431-0.597,0.646-0.894c0.188-0.26,0.375-0.52,0.561-0.779
	c0.224-0.311,0.446-0.621,0.667-0.931c0.174-0.243,0.349-0.486,0.522-0.728c0.232-0.325,0.462-0.648,0.691-0.97
	c0.161-0.227,0.323-0.454,0.483-0.679c0.224-0.316,0.445-0.629,0.667-0.943c0.165-0.233,0.331-0.467,0.494-0.699
	c0.234-0.332,0.463-0.659,0.693-0.987c0.14-0.199,0.282-0.401,0.421-0.599c0.368-0.527,0.732-1.048,1.09-1.564
	c-1.384-0.156-2.75-0.339-4.122-0.514C395.657,320.364,387.699,319.496,380.725,318.242z"/>
<path style="fill:#999999;" d="M321.731,407.612v32.107c0,5.089,4.125,9.215,9.214,9.215h31.327h14.196
	c4.775,0,8.646-3.871,8.646-8.646V429.31c0-11.929-10.227-21.6-22.843-21.6v-0.098H321.731z"/>
<path style="fill:#808080;" d="M362.272,407.71v-0.098h-30.54v0.098c12.616,0,22.843,9.67,22.843,21.6v10.978
	c0,4.775-3.871,8.646-8.646,8.646h16.344h14.196c4.775,0,8.646-3.871,8.646-8.646V429.31
	C385.115,417.38,374.888,407.71,362.272,407.71z"/>
<path style="fill:#676775;" d="M140.772,407.71v-19.135c0-5.64,2.322-13.517,6.42-17.393l0.194-0.184
	c10.074-9.539,27.597-32.682,39.447-49.746c-26.868-3.023-51.668-9.637-70.25-15.784l-16.353,22.264v111.986
	c0,5.089,4.126,9.214,9.214,9.214h31.327h14.196c4.775,0,8.646-3.871,8.646-8.646v-10.978
	C163.615,417.38,153.388,407.71,140.772,407.71z"/>
<path style="fill:#5F5F6D;" d="M163.549,427.741c-0.02-0.263-0.041-0.526-0.071-0.786c-0.017-0.151-0.04-0.301-0.061-0.451
	c-0.032-0.235-0.066-0.469-0.106-0.701c-0.027-0.157-0.058-0.312-0.088-0.468c-0.044-0.224-0.091-0.448-0.142-0.669
	c-0.036-0.156-0.074-0.31-0.113-0.465c-0.057-0.22-0.117-0.439-0.181-0.657c-0.044-0.149-0.087-0.299-0.134-0.447
	c-0.071-0.223-0.147-0.443-0.225-0.663c-0.049-0.139-0.097-0.278-0.149-0.415c-0.09-0.239-0.188-0.474-0.287-0.708
	c-0.048-0.114-0.093-0.229-0.143-0.342c-0.153-0.345-0.314-0.686-0.485-1.022c-0.198-0.388-0.411-0.767-0.632-1.141
	c-0.063-0.107-0.128-0.212-0.193-0.318c-0.176-0.286-0.358-0.568-0.547-0.846c-0.063-0.092-0.123-0.185-0.187-0.276
	c-0.248-0.353-0.506-0.7-0.776-1.038c-0.05-0.063-0.103-0.123-0.154-0.185c-0.227-0.279-0.462-0.552-0.703-0.82
	c-0.086-0.096-0.174-0.191-0.262-0.286c-0.245-0.264-0.498-0.521-0.756-0.773c-0.058-0.057-0.114-0.115-0.173-0.171
	c-0.315-0.3-0.64-0.59-0.973-0.872c-0.085-0.072-0.173-0.141-0.26-0.213c-0.263-0.216-0.531-0.426-0.804-0.631
	c-0.101-0.076-0.202-0.152-0.304-0.226c-0.358-0.259-0.721-0.511-1.095-0.75c-0.404-0.258-0.821-0.5-1.243-0.734
	c-0.107-0.059-0.214-0.118-0.322-0.175c-0.426-0.227-0.857-0.446-1.299-0.648c-0.003-0.001-0.006-0.003-0.008-0.004
	c-0.442-0.201-0.894-0.384-1.351-0.559c-0.116-0.044-0.232-0.087-0.348-0.13c-0.461-0.168-0.927-0.327-1.402-0.467
	c-0.003-0.001-0.006-0.002-0.009-0.003c-0.475-0.139-0.958-0.259-1.445-0.37c-0.123-0.028-0.246-0.055-0.37-0.081
	c-0.985-0.207-1.993-0.353-3.022-0.435c-0.129-0.01-0.258-0.02-0.388-0.028c-0.517-0.033-1.038-0.056-1.564-0.056v-19.135
	c0-1.974,0.29-4.222,0.836-6.476c0.023-0.093,0.043-0.186,0.067-0.28c0.154-0.613,0.33-1.225,0.522-1.832
	c0.036-0.114,0.072-0.226,0.11-0.34c0.2-0.606,0.415-1.204,0.652-1.791c0.036-0.089,0.075-0.176,0.111-0.265
	c0.435-1.049,0.927-2.057,1.478-2.99c0.071-0.121,0.146-0.236,0.219-0.354c0.165-0.267,0.334-0.528,0.508-0.781
	c0.087-0.126,0.175-0.25,0.264-0.372c0.179-0.245,0.363-0.48,0.551-0.708c0.084-0.103,0.167-0.208,0.253-0.308
	c0.275-0.316,0.557-0.619,0.85-0.897l0.056-0.053l0.139-0.131c0.32-0.303,0.657-0.63,1.011-0.979
	c0.018-0.018,0.038-0.038,0.056-0.056c0.009-0.009,0.018-0.018,0.027-0.027c0.289-0.286,0.591-0.589,0.901-0.904
	c0.162-0.165,0.33-0.341,0.495-0.512c0.163-0.169,0.324-0.333,0.49-0.507c0.178-0.186,0.361-0.383,0.542-0.575
	c0.168-0.179,0.335-0.354,0.505-0.537c0.186-0.2,0.377-0.409,0.566-0.615c0.17-0.185,0.339-0.367,0.511-0.557
	c0.192-0.212,0.389-0.43,0.584-0.647c0.175-0.194,0.349-0.387,0.526-0.585c0.193-0.217,0.39-0.44,0.586-0.662
	c0.185-0.209,0.37-0.418,0.557-0.632c0.195-0.223,0.392-0.449,0.589-0.676c0.19-0.218,0.379-0.437,0.57-0.659
	c0.201-0.234,0.405-0.471,0.608-0.709c0.191-0.224,0.383-0.448,0.576-0.676c0.205-0.242,0.411-0.486,0.618-0.732
	c0.197-0.234,0.395-0.469,0.593-0.707c0.206-0.246,0.412-0.493,0.62-0.742c0.201-0.241,0.402-0.484,0.604-0.729
	c0.21-0.254,0.42-0.508,0.631-0.765c0.204-0.249,0.409-0.5,0.615-0.751c0.21-0.258,0.421-0.515,0.632-0.776
	c0.21-0.259,0.421-0.52,0.632-0.781c0.21-0.26,0.419-0.519,0.63-0.781c0.208-0.259,0.417-0.521,0.626-0.783
	c0.218-0.273,0.437-0.546,0.656-0.821c0.207-0.26,0.416-0.524,0.624-0.787c0.217-0.274,0.434-0.547,0.652-0.824
	c0.228-0.29,0.458-0.583,0.687-0.875c0.2-0.255,0.4-0.508,0.6-0.765c0.255-0.327,0.511-0.657,0.767-0.986
	c0.295-0.379,0.59-0.759,0.885-1.141c0.306-0.396,0.611-0.791,0.917-1.189c0.178-0.232,0.357-0.466,0.535-0.699
	c0.256-0.334,0.511-0.667,0.766-1.002c0.2-0.262,0.4-0.526,0.6-0.789c0.23-0.303,0.461-0.606,0.691-0.91
	c0.206-0.272,0.411-0.544,0.616-0.816c0.229-0.304,0.459-0.608,0.687-0.912c0.204-0.271,0.407-0.543,0.61-0.814
	c0.224-0.299,0.447-0.598,0.67-0.896c0.211-0.283,0.421-0.565,0.631-0.847c0.216-0.291,0.432-0.581,0.647-0.872
	c0.21-0.284,0.42-0.567,0.629-0.851c0.214-0.29,0.428-0.58,0.641-0.869c0.205-0.279,0.41-0.558,0.615-0.837
	c0.218-0.296,0.434-0.593,0.651-0.889c0.202-0.276,0.403-0.551,0.603-0.826c0.211-0.29,0.422-0.58,0.632-0.869
	c0.2-0.275,0.4-0.551,0.598-0.825c0.216-0.299,0.431-0.597,0.646-0.894c0.188-0.26,0.375-0.52,0.561-0.779
	c0.224-0.311,0.446-0.621,0.667-0.931c0.174-0.243,0.349-0.486,0.522-0.728c0.232-0.325,0.462-0.648,0.691-0.97
	c0.161-0.227,0.323-0.454,0.483-0.679c0.224-0.316,0.445-0.629,0.667-0.943c0.165-0.233,0.331-0.467,0.494-0.699
	c0.234-0.332,0.463-0.659,0.693-0.987c0.14-0.199,0.282-0.401,0.421-0.599c0.368-0.527,0.732-1.048,1.09-1.564
	c-9.205-1.036-18.158-2.499-26.71-4.215c-15.264,20.486-36.022,47.09-43.277,53.961l-0.194,0.184
	c-4.098,3.876-6.42,11.752-6.42,17.393v19.135c12.616,0,22.843,9.67,22.843,21.6v10.978c0,4.775-3.871,8.646-8.645,8.646h16.343
	h14.196c0.319,0,0.632-0.02,0.942-0.053c0.102-0.011,0.201-0.032,0.302-0.046c0.206-0.03,0.411-0.061,0.612-0.105
	c0.117-0.026,0.23-0.059,0.345-0.089c0.18-0.047,0.359-0.097,0.534-0.155c0.118-0.039,0.234-0.084,0.35-0.128
	c0.167-0.064,0.331-0.131,0.493-0.205c0.113-0.051,0.225-0.106,0.336-0.162c0.158-0.08,0.312-0.166,0.464-0.255
	c0.105-0.062,0.211-0.124,0.314-0.19c0.152-0.098,0.298-0.204,0.443-0.311c0.093-0.069,0.188-0.136,0.279-0.208
	c0.154-0.123,0.299-0.256,0.444-0.389c0.072-0.067,0.148-0.129,0.218-0.199c0.207-0.204,0.404-0.417,0.589-0.641
	c0.356-0.431,0.672-0.896,0.941-1.39c0.152-0.279,0.284-0.57,0.405-0.867c0.037-0.092,0.068-0.187,0.103-0.281
	c0.078-0.212,0.149-0.428,0.21-0.648c0.03-0.109,0.059-0.219,0.085-0.329c0.053-0.223,0.095-0.449,0.13-0.678
	c0.016-0.102,0.035-0.204,0.047-0.308c0.039-0.331,0.064-0.667,0.064-1.008v-10.978c0-0.398-0.013-0.793-0.036-1.186
	C163.572,427.995,163.558,427.868,163.549,427.741z"/>
<path style="fill:#999999;" d="M100.231,407.612v32.107c0,5.089,4.125,9.215,9.214,9.215h31.327h14.196
	c4.775,0,8.646-3.871,8.646-8.646V429.31c0-11.929-10.227-21.6-22.843-21.6v-0.098H100.231z"/>
<path style="fill:#808080;" d="M140.772,407.71v-0.098h-30.54v0.098c12.616,0,22.843,9.67,22.843,21.6v10.978
	c0,4.775-3.871,8.646-8.646,8.646h16.344h14.196c4.775,0,8.646-3.871,8.646-8.646V429.31
	C163.615,417.38,153.388,407.71,140.772,407.71z"/>
<path style="fill:#7C7B87;" d="M307.587,371.182l0.194-0.184c11.299-10.699,25.446-29.78,38.287-48.693
	c3.619-0.721,16.173-3.745,25.64-6.043c-10.273-2.728-17.102-6.442-18.472-10.594l0,0c-5.451-1.874-10.616-4.499-15.274-7.898
	c-7.714-5.627-13.884-12.905-13.884-21.79c0.002-26.056,13.063-46.384,24.177-58.967l0,0
	c-10.628-11.835-20.251-25.954-20.251-48.839c0-14.084,3.13-26.975,8.275-38.303H147.713H92.16
	c-45.369,0-63.888,36.522-64.149,81.767c-0.004,0.015-0.009,0.029-0.012,0.044v0.926c0,0-0.434,3.413,0,9.076V439.72
	c0,5.089,4.125,9.214,9.214,9.214H68.54h14.196c4.775,0,8.646-3.871,8.646-8.646V429.31c0-11.929-10.227-21.6-22.843-21.6v-19.135
	c0-5.64,2.322-13.517,6.42-17.393l0.194-0.184c12.968-12.279,29.686-35.596,43.876-57.032
	c31.74,10.499,74.458,17.419,131.938,17.419c3.237,0,6.454-0.035,9.656-0.095v108.428c0,5.089,4.125,9.214,9.214,9.214h31.327
	h14.196c4.775,0,8.646-3.871,8.646-8.646v-10.978c0-11.929-10.227-21.6-22.843-21.6v-19.135
	C301.166,382.935,303.488,375.058,307.587,371.182z"/>
<path style="fill:#72717C;" d="M75.189,327.836c-10.645,17.293-21.754,35.045-30.326,43.162c-4.223,3.995-6.615,9.552-6.615,15.365
	v21.346c12.616,0,22.843,9.671,22.843,21.6v10.978c0,4.775-3.871,8.646-8.646,8.646H68.54h14.196c4.775,0,8.646-3.871,8.646-8.646
	v-10.978c0-11.929-10.227-21.6-22.843-21.6l0,0v-19.135v-2.212c0-5.264,1.978-10.305,5.485-14.18
	c0.302-0.354,0.611-0.694,0.936-1.001l0.194-0.183l0.001-0.001c11.553-10.939,30.809-37.706,43.876-57.032
	c-1.241-0.283-2.516-0.642-3.815-1.058C100.053,308.05,83.536,314.276,75.189,327.836z"/>
<path style="fill:#999999;" d="M27.999,407.69v32.03c0,5.089,4.125,9.214,9.214,9.214H68.54h14.196c4.775,0,8.646-3.871,8.646-8.646
	V429.31c0-11.929-10.227-21.6-22.843-21.6v-0.02H27.999z"/>
<path style="fill:#808080;" d="M68.54,407.709v-0.02H38.248v0.02c12.616,0,22.843,9.671,22.843,21.6v10.978
	c0,4.775-3.871,8.646-8.646,8.646H68.54h14.196c0.597,0,1.18-0.061,1.743-0.176c3.94-0.806,6.904-4.293,6.904-8.471v-10.978
	C91.383,417.38,81.156,407.709,68.54,407.709z"/>
<path style="fill:#72717C;" d="M356.201,311.949c-14.708,4.067-32.465,8.771-40.424,10.356
	c-12.841,18.914-26.988,37.994-38.287,48.693l-0.194,0.184c-4.098,3.875-6.421,11.752-6.421,17.393v19.134
	c12.616,0,22.843,9.671,22.843,21.6v10.978c0,4.775-3.871,8.646-8.646,8.646h16.096h14.196c2.884,0,5.431-1.417,7.002-3.587
	c0.119-0.164,0.231-0.332,0.338-0.504c0.236-0.38,0.451-0.773,0.627-1.189c0.438-1.034,0.679-2.172,0.679-3.366v-10.978
	c0-11.929-10.227-21.6-22.843-21.6l0,0v-19.134c0-5.64,2.322-13.517,6.421-17.393l0.194-0.184c0.69-0.653,1.392-1.34,2.102-2.055
	c0.016-0.017,0.032-0.031,0.049-0.048c0.024-0.024,0.048-0.051,0.072-0.074c4.345-4.381,9.047-9.847,13.895-15.963
	c0.812-1.025,1.629-2.068,2.448-3.127c1.17-1.513,2.348-3.067,3.527-4.639c0.948-1.263,1.897-2.542,2.848-3.837
	c4.491-6.117,8.994-12.54,13.347-18.951c5.416-1.079,17.173-3.618,22.306-4.855C364.087,316.019,359.516,313.746,356.201,311.949z"
	/>
<path style="fill:#8A8990;" d="M479.43,216.511c11.114-12.376,21.178-27.141,21.178-51.074c0-42.283-27.42-66.433-53.95-78.842
	c-13.352-6.245-26.478,5.389-35.772,4.275c-9.293,1.114-22.42-10.52-35.772-4.275c-26.531,12.41-53.95,36.56-53.95,78.842
	c0,23.933,10.064,38.697,21.178,51.074C342.761,216.037,479.012,216.037,479.43,216.511z"/>
<path style="fill:#7B7B7C;" d="M496.968,140.225c-0.665-2.166-1.413-4.267-2.237-6.303c-0.412-1.019-0.843-2.021-1.292-3.008
	c-1.508-3.312-3.23-6.436-5.114-9.4c-0.592-0.932-1.202-1.847-1.827-2.745c-0.941-1.352-1.907-2.677-2.917-3.955
	c-1.874-2.372-3.863-4.616-5.94-6.739c-0.036-0.037-0.071-0.077-0.108-0.114c-9.173-9.345-20.098-16.324-30.876-21.366
	c-0.394-0.184-0.788-0.351-1.182-0.505c-0.13-0.051-0.26-0.094-0.39-0.142c-0.264-0.097-0.527-0.191-0.791-0.275
	c-0.154-0.049-0.308-0.092-0.463-0.137c-0.24-0.07-0.48-0.137-0.719-0.197c-0.161-0.04-0.323-0.077-0.484-0.113
	c-0.233-0.052-0.466-0.1-0.699-0.143c-0.163-0.03-0.325-0.059-0.487-0.084c-0.234-0.037-0.469-0.068-0.703-0.097
	c-0.157-0.019-0.315-0.04-0.472-0.055c-0.245-0.024-0.49-0.041-0.735-0.056c-0.145-0.009-0.29-0.022-0.435-0.028
	c-0.294-0.013-0.588-0.016-0.881-0.017c-0.093,0-0.186-0.005-0.279-0.004c-0.379,0.004-0.758,0.018-1.135,0.039
	c-0.142,0.008-0.283,0.022-0.424,0.033c-0.242,0.018-0.483,0.036-0.724,0.061c-0.166,0.017-0.332,0.038-0.498,0.059
	c-0.214,0.026-0.429,0.052-0.643,0.083c-0.176,0.025-0.351,0.053-0.526,0.082c-0.202,0.033-0.405,0.067-0.606,0.103
	c-0.179,0.032-0.358,0.066-0.537,0.102c-0.197,0.039-0.394,0.08-0.591,0.123c-0.18,0.039-0.36,0.078-0.539,0.119
	c-0.192,0.044-0.383,0.091-0.574,0.138c-0.182,0.045-0.364,0.089-0.545,0.136c-0.186,0.048-0.371,0.1-0.556,0.15
	c-0.183,0.05-0.366,0.098-0.549,0.15h-0.001c0.369,0.146,0.739,0.3,1.108,0.473c26.531,12.41,53.95,36.56,53.95,78.842
	c0,16.542-11.056,38.394-19.265,50.848c8.634,0.057,14.062,0.132,14.145,0.226l0,0c0.304-0.339,0.607-0.68,0.91-1.023
	c0.087-0.099,0.174-0.198,0.261-0.297c0.801-0.912,1.595-1.84,2.378-2.782c5.912-7.112,11.218-15.16,14.427-25.266
	c0.366-1.152,0.705-2.331,1.014-3.537c0.464-1.811,0.862-3.685,1.186-5.629c0.648-3.888,1.002-8.053,1.002-12.54
	C500.608,156.187,499.296,147.806,496.968,140.225z"/>
<path style="fill:#7C7B87;" d="M375.401,204.377L375.401,204.377c9.442,0,18.601,2.96,25.96,8.39l9.525,7.028l9.525-7.028
	c7.359-5.43,16.518-8.39,25.96-8.39l0,0c2.121,0,4.22,0.159,6.287,0.451c-6.039-5.641-19.773-24.179-33.576-59.258
	c-2.926-7.437-13.466-7.437-16.392,0c-13.803,35.078-27.538,53.616-33.576,59.258C371.18,204.536,373.28,204.377,375.401,204.377z"
	/>
<g>
	<path style="fill:#7F7E87;" d="M476.797,107.234c7.854-6.429,16.194-14.57,14.874-19.282c-2.42-8.639-14.107-29.297-25.375-24.039
		c-7.325,3.418-14.243,15.406-18.189,23.379C458.127,92.137,468.192,98.67,476.797,107.234z"/>
	<path style="fill:#7F7E87;" d="M344.975,107.234c8.605-8.564,18.67-15.098,28.689-19.942c-3.946-7.973-10.864-19.96-18.188-23.379
		c-11.268-5.259-22.955,15.4-25.375,24.039C328.782,92.664,337.121,100.806,344.975,107.234z"/>
</g>
<path style="fill:#8A8990;" d="M437.973,308.266l-27.086-5.973l-27.087,5.973c-12.145,2.678-36.249,0.955-36.249,0.955
	c2.958,8.962,30.178,15.982,63.335,15.982s60.378-7.021,63.335-15.982C474.222,309.222,450.118,310.945,437.973,308.266z"/>
<path style="fill:#71707F;" d="M478.183,215.118c-7.883-8.651-19.523-13.658-31.811-13.658l0,0c-9.442,0-18.601,2.96-25.96,8.39
	l-9.525,7.028l-9.525-7.028c-7.359-5.43-16.518-8.39-25.96-8.39l0,0c-12.288,0-23.928,5.006-31.811,13.658
	c-11.868,13.026-26.529,34.829-26.531,63.058c-0.001,9.291,6.452,16.903,14.519,22.787c14.65,10.687,34.026,14.233,52.222,10.22
	l27.087-5.974l27.086,5.974c18.196,4.013,37.572,0.467,52.222-10.22c8.066-5.884,14.52-13.496,14.519-22.787
	C504.712,249.947,490.051,228.144,478.183,215.118z"/>
<path style="fill:#5F5F6D;" d="M478.183,215.118c-7.883-8.651-19.523-13.658-31.811-13.658l0,0c-2.666,0-5.307,0.244-7.894,0.705
	c9.261,1.661,17.711,6.194,23.868,12.952c11.868,13.026,26.529,34.829,26.531,63.058c0.001,9.291-6.452,16.903-14.519,22.787
	c-8.626,6.293-18.891,10.107-29.589,11.362c16.121,1.883,32.588-1.998,45.425-11.362c8.066-5.884,14.52-13.496,14.519-22.787
	C504.712,249.947,490.051,228.144,478.183,215.118z"/>
<path style="fill:#999999;" d="M260.625,407.653v32.066c0,5.089,4.125,9.214,9.214,9.214h31.327h14.196
	c4.775,0,8.646-3.871,8.646-8.646v-10.978c0-11.929-10.227-21.6-22.843-21.6v-0.056H260.625z"/>
<path style="fill:#808080;" d="M301.166,407.709v-0.056h-30.292v0.056c12.616,0,22.843,9.671,22.843,21.6v10.978
	c0,4.775-3.871,8.646-8.646,8.646h16.096h14.196c4.775,0,8.646-3.871,8.646-8.646v-10.978
	C324.009,417.38,313.782,407.709,301.166,407.709z"/>
<g>
	<path style="fill:#121419;" d="M488.992,216.572c9.911-12.056,18.903-27.691,18.903-51.136c0-25.149-8.976-43.872-20.67-57.601
		c9.713-8.958,13.19-15.686,11.464-21.85c-2.259-8.065-13.248-30.204-28.658-30.204c-2.348,0-4.641,0.514-6.815,1.529
		c-6.207,2.896-12.438,9.927-18.566,20.909c-2.097-0.503-4.264-0.766-6.488-0.766c-6.47,0-12.265,2.06-17.378,3.878
		c-3.366,1.196-6.545,2.326-8.583,2.326c-0.163,0-0.314-0.009-0.446-0.024c-0.576-0.07-1.158-0.07-1.734,0
		c-0.132,0.015-0.283,0.024-0.447,0.024c-2.037,0-5.217-1.13-8.583-2.326c-5.112-1.818-10.907-3.878-17.376-3.878
		c-2.225,0-4.392,0.262-6.489,0.766c-6.129-10.982-12.359-18.013-18.566-20.909c-2.174-1.015-4.466-1.529-6.815-1.529
		c-15.41,0-26.398,22.139-28.658,30.205c-1.726,6.163,1.751,12.89,11.464,21.849c-3.738,4.389-7.192,9.292-10.17,14.748h-25.054
		c-4.024,0-7.287,3.262-7.287,7.287c0,4.025,3.262,7.287,7.287,7.287h18.822c-0.015,0.046-0.027,0.093-0.042,0.14
		c-1.294,4.064-2.323,8.369-3.041,12.924c-0.045,0.282-0.096,0.562-0.138,0.845c-0.115,0.779-0.214,1.571-0.31,2.364
		c-0.072,0.587-0.142,1.174-0.203,1.764c-0.069,0.666-0.131,1.337-0.186,2.013c-0.067,0.805-0.119,1.615-0.166,2.427
		c-0.03,0.531-0.066,1.057-0.088,1.594c-0.058,1.394-0.095,2.795-0.095,4.208c0,1.345,0.037,2.657,0.095,3.951
		c0.008,0.182,0.013,0.366,0.023,0.547c0.062,1.225,0.153,2.424,0.264,3.605c0.021,0.217,0.042,0.434,0.064,0.65
		c0.12,1.168,0.26,2.317,0.426,3.443c0.026,0.177,0.055,0.352,0.082,0.528c0.18,1.167,0.377,2.319,0.603,3.442
		c0.006,0.029,0.012,0.056,0.018,0.085c0.226,1.118,0.479,2.21,0.748,3.286c0.036,0.143,0.069,0.288,0.106,0.43
		c0.267,1.038,0.555,2.055,0.859,3.055c0.055,0.181,0.11,0.361,0.166,0.54c0.308,0.985,0.632,1.954,0.974,2.903
		c0.056,0.155,0.114,0.308,0.171,0.462c0.359,0.977,0.731,1.939,1.123,2.879c0.02,0.047,0.041,0.093,0.061,0.141
		c0.389,0.928,0.796,1.836,1.215,2.73c0.053,0.112,0.103,0.227,0.157,0.338c0.416,0.877,0.848,1.735,1.289,2.579
		c0.081,0.155,0.161,0.309,0.243,0.463c0.439,0.825,0.888,1.637,1.348,2.433c0.082,0.142,0.165,0.282,0.248,0.423
		c0.476,0.812,0.96,1.613,1.455,2.395c0.042,0.066,0.085,0.13,0.126,0.196c0.488,0.766,0.984,1.517,1.488,2.256
		c0.063,0.092,0.125,0.186,0.188,0.278c0.508,0.74,1.025,1.465,1.546,2.179c0.1,0.137,0.2,0.274,0.3,0.41
		c0.512,0.694,1.03,1.378,1.552,2.05c0.101,0.13,0.203,0.259,0.304,0.388c0.535,0.683,1.074,1.356,1.616,2.017
		c0.015,0.018,0.03,0.037,0.045,0.056c-9.262,11.61-18.53,27.491-21.782,46.946c-0.027,0.161-0.057,0.32-0.083,0.482
		c-0.084,0.518-0.159,1.04-0.234,1.562c-0.046,0.322-0.093,0.644-0.136,0.968c-0.061,0.458-0.116,0.919-0.17,1.381
		c-0.047,0.401-0.091,0.803-0.133,1.207c-0.043,0.42-0.084,0.841-0.121,1.264c-0.041,0.464-0.076,0.931-0.11,1.398
		c-0.027,0.38-0.056,0.76-0.079,1.143c-0.033,0.552-0.056,1.109-0.079,1.666c-0.013,0.311-0.029,0.62-0.039,0.933
		c-0.026,0.878-0.042,1.76-0.042,2.65c0,3.297,0.575,6.506,1.72,9.619c2.52,6.848,7.802,13.229,15.791,19.057
		c0.686,0.5,1.384,0.984,2.091,1.457c0.189,0.127,0.382,0.248,0.572,0.373c0.527,0.345,1.057,0.685,1.594,1.015
		c0.221,0.136,0.445,0.269,0.668,0.402c0.534,0.32,1.073,0.632,1.616,0.937c0.205,0.115,0.409,0.23,0.616,0.343
		c0.62,0.339,1.247,0.669,1.88,0.99c0.128,0.065,0.254,0.132,0.383,0.196c1.599,0.798,3.234,1.537,4.903,2.213
		c0.021,0.009,0.043,0.017,0.065,0.025c0.284,0.115,0.572,0.224,0.858,0.336c0.141,0.197,0.276,0.396,0.428,0.588
		c-0.145,0.069-0.288,0.139-0.428,0.216c-0.059,0.033-0.116,0.069-0.174,0.104c-0.252,0.15-0.496,0.313-0.728,0.491
		c-0.035,0.027-0.071,0.05-0.105,0.078c-0.252,0.201-0.488,0.422-0.712,0.657c-0.051,0.053-0.1,0.108-0.15,0.163
		c-0.221,0.245-0.433,0.501-0.62,0.778c-0.842,1.241-1.672,2.452-2.497,3.653c-0.194,0.281-0.388,0.565-0.581,0.844
		c-0.709,1.029-1.41,2.037-2.106,3.036c-0.349,0.501-0.697,0.998-1.044,1.492c-0.355,0.507-0.706,1.003-1.058,1.502
		c-0.769,1.089-1.533,2.165-2.287,3.217c-0.044,0.062-0.089,0.124-0.133,0.186c-5.128,7.152-9.899,13.452-14.26,18.822
		c-0.014,0.017-0.023,0.037-0.037,0.054c-4.955,6.1-9.391,11.019-13.265,14.687l-0.193,0.182c-5.978,5.653-8.7,15.723-8.7,22.687
		v11.791h-25.968v-69.074c0-1.956-0.787-3.83-2.183-5.2c-1.396-1.37-3.265-2.117-5.24-2.085c-3.374,0.064-6.488,0.094-9.52,0.094
		c-30.55,0-58.245-1.995-82.844-5.949c-0.257-0.041-0.516-0.082-0.772-0.124c-0.921-0.15-1.834-0.305-2.747-0.46
		c-0.468-0.08-0.936-0.159-1.402-0.24c-0.742-0.13-1.479-0.262-2.215-0.395c-0.635-0.115-1.27-0.23-1.901-0.348
		c-0.59-0.11-1.177-0.222-1.763-0.335c-0.768-0.148-1.535-0.296-2.296-0.448c-0.472-0.094-0.943-0.189-1.413-0.284
		c-0.863-0.176-1.721-0.353-2.575-0.534c-0.383-0.081-0.765-0.162-1.146-0.245c-0.928-0.2-1.851-0.403-2.769-0.61
		c-0.317-0.071-0.634-0.142-0.949-0.214c-0.968-0.221-1.929-0.445-2.884-0.673c-0.271-0.065-0.543-0.128-0.813-0.194
		c-0.984-0.237-1.96-0.479-2.931-0.723c-0.246-0.062-0.494-0.123-0.739-0.186c-0.973-0.248-1.937-0.501-2.897-0.756
		c-0.244-0.065-0.49-0.129-0.734-0.194c-0.943-0.254-1.877-0.513-2.807-0.773c-0.256-0.072-0.514-0.142-0.768-0.214
		c-0.905-0.257-1.8-0.519-2.693-0.782c-0.271-0.08-0.546-0.158-0.816-0.239c-0.899-0.269-1.787-0.543-2.673-0.819
		c-0.25-0.078-0.505-0.153-0.754-0.232c-1.126-0.354-2.243-0.714-3.348-1.079c-0.39-0.129-0.785-0.224-1.181-0.285
		c-2.772-0.428-5.594,0.781-7.182,3.18c-0.747,1.128-1.487,2.239-2.224,3.342c-0.159,0.238-0.318,0.475-0.476,0.712
		c-0.721,1.076-1.438,2.143-2.15,3.194c-0.02,0.03-0.04,0.06-0.06,0.089c-0.678,1.001-1.349,1.985-2.018,2.963
		c-0.245,0.359-0.491,0.717-0.735,1.072c-0.453,0.66-0.902,1.311-1.35,1.959c-0.521,0.753-1.038,1.498-1.552,2.236
		c-0.249,0.357-0.498,0.715-0.745,1.068c-0.457,0.653-0.913,1.302-1.365,1.942c-0.016,0.023-0.033,0.046-0.049,0.07
		c-12.089,17.12-22.342,29.785-30.084,37.115l-0.193,0.182c-5.978,5.653-8.7,15.723-8.7,22.687v11.828H35.285v-70.169
		c0-4.025-3.262-7.287-7.287-7.287s-7.287,3.262-7.287,7.287v77.455v32.029c0,9.099,7.402,16.501,16.501,16.501h45.523
		c5.494,0,10.347-2.795,13.212-7.038c2.988,4.249,7.919,7.038,13.497,7.038l0,0h45.523c8.786,0,15.933-7.147,15.933-15.933v-10.978
		c0-0.456-0.013-0.909-0.035-1.36c-0.007-0.147-0.02-0.292-0.03-0.438c-0.02-0.304-0.041-0.607-0.07-0.908
		c-0.017-0.171-0.038-0.342-0.058-0.512c-0.032-0.275-0.066-0.549-0.106-0.821c-0.026-0.176-0.054-0.351-0.083-0.526
		c-0.044-0.267-0.093-0.533-0.145-0.798c-0.034-0.172-0.068-0.343-0.105-0.514c-0.059-0.27-0.123-0.539-0.189-0.806
		c-0.04-0.16-0.078-0.32-0.12-0.479c-0.079-0.297-0.166-0.592-0.255-0.886c-0.037-0.123-0.071-0.248-0.111-0.371
		c-0.133-0.417-0.273-0.829-0.425-1.238c-0.013-0.035-0.028-0.07-0.041-0.105c-0.14-0.371-0.286-0.739-0.441-1.103
		c-0.055-0.129-0.114-0.256-0.171-0.384c-0.119-0.269-0.24-0.537-0.368-0.802c-0.07-0.145-0.143-0.288-0.215-0.432
		c-0.123-0.245-0.248-0.487-0.377-0.728c-0.079-0.148-0.161-0.294-0.243-0.44c-0.133-0.236-0.269-0.471-0.408-0.703
		c-0.084-0.14-0.168-0.281-0.255-0.42c-0.15-0.24-0.304-0.477-0.461-0.712c-0.083-0.125-0.164-0.251-0.249-0.374
		c-0.186-0.27-0.379-0.536-0.574-0.8c-0.061-0.082-0.119-0.167-0.181-0.248c-0.264-0.349-0.535-0.693-0.814-1.03
		c-0.026-0.031-0.053-0.06-0.078-0.091c-0.251-0.301-0.509-0.597-0.772-0.888c-0.088-0.097-0.179-0.191-0.268-0.287
		c-0.207-0.222-0.415-0.442-0.628-0.658c-0.108-0.109-0.218-0.215-0.327-0.323c-0.203-0.199-0.408-0.395-0.617-0.588
		c-0.117-0.108-0.234-0.215-0.353-0.321c-0.211-0.189-0.425-0.375-0.641-0.558c-0.118-0.1-0.237-0.201-0.357-0.299
		c-0.232-0.19-0.469-0.376-0.707-0.56c-0.108-0.083-0.214-0.168-0.323-0.25c-0.288-0.216-0.582-0.426-0.879-0.633
		c-0.063-0.044-0.124-0.09-0.187-0.133c-0.369-0.253-0.744-0.498-1.125-0.734c-0.042-0.026-0.086-0.051-0.128-0.077
		c-0.332-0.204-0.668-0.402-1.009-0.594c-0.113-0.064-0.229-0.124-0.343-0.186c-0.274-0.15-0.55-0.297-0.83-0.439
		c-0.136-0.069-0.274-0.136-0.412-0.203c-0.264-0.129-0.53-0.254-0.798-0.376c-0.145-0.066-0.291-0.13-0.437-0.194
		c-0.271-0.117-0.544-0.231-0.819-0.341c-0.143-0.057-0.287-0.115-0.431-0.171c-0.293-0.112-0.59-0.218-0.888-0.322
		c-0.129-0.045-0.256-0.092-0.385-0.134c-0.37-0.123-0.744-0.239-1.121-0.348c-0.058-0.017-0.115-0.036-0.173-0.053
		c-0.421-0.12-0.846-0.232-1.275-0.335v-12.702c0-4.36,1.935-10.012,4.142-12.101l0.196-0.185
		c10.486-9.929,26.136-30.956,33.442-41.044c20.078,2.271,41.809,3.427,65.13,3.427c0.784,0,1.573-0.002,2.37-0.006v68.986v32.066
		c0,9.099,7.402,16.501,16.501,16.501h45.523c2.805,0,5.439-0.735,7.731-2.013c2.379,1.293,5.071,2.013,7.852,2.013h45.523
		c8.786,0,15.933-7.147,15.933-15.933v-10.978c0-0.456-0.013-0.909-0.035-1.36c-0.007-0.147-0.02-0.292-0.03-0.438
		c-0.02-0.304-0.041-0.607-0.07-0.908c-0.017-0.171-0.038-0.342-0.058-0.512c-0.032-0.275-0.066-0.549-0.106-0.821
		c-0.026-0.176-0.054-0.351-0.083-0.526c-0.044-0.267-0.093-0.533-0.145-0.798c-0.034-0.172-0.068-0.343-0.105-0.514
		c-0.059-0.27-0.123-0.539-0.189-0.806c-0.04-0.16-0.078-0.32-0.12-0.479c-0.079-0.297-0.166-0.592-0.255-0.886
		c-0.037-0.123-0.071-0.248-0.111-0.371c-0.133-0.417-0.273-0.829-0.425-1.238c-0.013-0.035-0.028-0.07-0.041-0.105
		c-0.14-0.371-0.286-0.739-0.441-1.103c-0.055-0.129-0.114-0.256-0.171-0.384c-0.119-0.269-0.24-0.537-0.368-0.802
		c-0.07-0.145-0.143-0.288-0.215-0.432c-0.123-0.245-0.248-0.487-0.377-0.728c-0.079-0.148-0.161-0.294-0.243-0.44
		c-0.133-0.236-0.269-0.471-0.408-0.703c-0.084-0.14-0.168-0.281-0.255-0.42c-0.15-0.24-0.304-0.477-0.461-0.712
		c-0.083-0.125-0.164-0.251-0.249-0.374c-0.186-0.27-0.379-0.536-0.574-0.8c-0.061-0.082-0.119-0.167-0.181-0.248
		c-0.264-0.349-0.535-0.693-0.814-1.03c-0.026-0.031-0.053-0.06-0.078-0.091c-0.251-0.301-0.509-0.597-0.772-0.888
		c-0.088-0.097-0.179-0.191-0.268-0.287c-0.207-0.222-0.415-0.442-0.628-0.658c-0.108-0.109-0.218-0.215-0.327-0.323
		c-0.203-0.199-0.408-0.395-0.617-0.588c-0.117-0.108-0.234-0.215-0.353-0.321c-0.211-0.189-0.425-0.375-0.641-0.558
		c-0.118-0.1-0.237-0.201-0.357-0.299c-0.232-0.19-0.469-0.376-0.707-0.56c-0.108-0.083-0.214-0.168-0.323-0.25
		c-0.288-0.216-0.582-0.426-0.879-0.633c-0.063-0.044-0.124-0.09-0.187-0.133c-0.369-0.253-0.744-0.498-1.125-0.734
		c-0.042-0.026-0.086-0.051-0.129-0.077c-0.332-0.204-0.668-0.402-1.009-0.594c-0.113-0.064-0.229-0.124-0.343-0.186
		c-0.274-0.15-0.55-0.297-0.83-0.439c-0.136-0.069-0.274-0.136-0.412-0.203c-0.264-0.129-0.53-0.254-0.798-0.376
		c-0.145-0.066-0.291-0.13-0.437-0.194c-0.271-0.117-0.544-0.231-0.819-0.341c-0.143-0.057-0.287-0.115-0.431-0.171
		c-0.293-0.112-0.59-0.218-0.888-0.322c-0.128-0.045-0.256-0.092-0.385-0.134c-0.37-0.123-0.744-0.239-1.121-0.348
		c-0.058-0.017-0.115-0.036-0.173-0.053c-0.421-0.12-0.846-0.232-1.275-0.335V388.57c0-4.36,1.935-10.012,4.142-12.1l0.197-0.186
		c9.379-8.881,24.038-27.885,35.432-43.808c0.519,0.004,1.041,0.009,1.557,0.009c26.806,0,59.248-4.634,68.365-17.364
		c5.459-2.123,10.598-4.893,15.237-8.277c11.62-8.477,17.512-18.124,17.511-28.675C511.998,251.951,500.483,230.978,488.992,216.572
		z M75.826,388.575c0-4.36,1.935-10.013,4.142-12.101l0.195-0.185c3.823-3.619,8.093-8.281,12.78-13.929v45.252v4.777
		c-0.03-0.04-0.061-0.079-0.091-0.119c-0.075-0.098-0.153-0.193-0.229-0.289c-0.193-0.246-0.388-0.49-0.588-0.729
		c-0.103-0.123-0.209-0.243-0.314-0.364c-0.182-0.21-0.366-0.419-0.554-0.624c-0.114-0.125-0.23-0.248-0.347-0.371
		c-0.189-0.199-0.38-0.395-0.575-0.588c-0.118-0.118-0.236-0.236-0.356-0.351c-0.207-0.2-0.419-0.396-0.632-0.59
		c-0.112-0.102-0.222-0.205-0.335-0.305c-0.267-0.236-0.54-0.466-0.816-0.692c-0.063-0.051-0.123-0.105-0.187-0.157
		c-0.343-0.277-0.692-0.546-1.047-0.807c-0.093-0.069-0.188-0.133-0.282-0.201c-0.264-0.19-0.53-0.378-0.801-0.56
		c-0.131-0.088-0.265-0.173-0.398-0.26c-0.24-0.156-0.481-0.31-0.726-0.459c-0.145-0.088-0.291-0.175-0.438-0.261
		c-0.242-0.142-0.486-0.281-0.732-0.416c-0.148-0.082-0.296-0.163-0.445-0.242c-0.258-0.136-0.519-0.268-0.782-0.397
		c-0.14-0.069-0.279-0.14-0.421-0.207c-0.314-0.149-0.632-0.291-0.951-0.429c-0.092-0.04-0.183-0.083-0.276-0.122
		c-0.415-0.175-0.836-0.341-1.261-0.499c-0.097-0.036-0.197-0.068-0.295-0.103c-0.328-0.117-0.657-0.232-0.989-0.338
		c-0.153-0.049-0.308-0.094-0.462-0.141c-0.283-0.086-0.566-0.169-0.852-0.247c-0.171-0.046-0.343-0.091-0.515-0.134
		c-0.14-0.036-0.279-0.076-0.42-0.11C75.826,401.277,75.826,388.575,75.826,388.575z M84.096,440.288c0,0.75-0.61,1.36-1.36,1.36
		H37.213c-1.063,0-1.928-0.865-1.928-1.928v-24.743h32.712c0.179,0.013,0.36,0.02,0.543,0.02c8.578,0,15.556,6.421,15.556,14.313
		V440.288z M156.329,440.288c0,0.75-0.61,1.36-1.36,1.36h-45.523c-0.93,0-1.709-0.662-1.889-1.54
		c-0.026-0.125-0.039-0.255-0.039-0.388v-24.821h32.058c0.04,0.007,0.083,0.004,0.124,0.01c0.351,0.052,0.707,0.088,1.073,0.088
		c8.578,0,15.556,6.421,15.556,14.313L156.329,440.288L156.329,440.288z M169.349,333.098c-9.462,12.752-20.065,26.07-26.97,32.608
		l-0.193,0.182c-5.978,5.653-8.7,15.723-8.7,22.687v11.75h-25.968v-56.872c0.422-0.581,0.849-1.173,1.275-1.766
		c0.62-0.861,1.244-1.732,1.874-2.617c0.317-0.445,0.636-0.896,0.955-1.347c0.719-1.015,1.443-2.046,2.175-3.092
		c0.395-0.565,0.791-1.133,1.19-1.707c0.431-0.62,0.861-1.241,1.296-1.871c0.722-1.046,1.45-2.107,2.182-3.181
		c0.323-0.474,0.649-0.954,0.975-1.434c0.803-1.183,1.611-2.377,2.426-3.591c0.062-0.092,0.121-0.179,0.183-0.271
		c2.001,0.614,4.039,1.207,6.098,1.786c0.679,0.191,1.371,0.374,2.057,0.562c1.408,0.385,2.825,0.765,4.26,1.134
		c0.789,0.203,1.584,0.402,2.381,0.6c1.42,0.353,2.853,0.699,4.298,1.037c0.745,0.174,1.487,0.35,2.239,0.52
		c1.779,0.403,3.578,0.793,5.392,1.173c0.405,0.085,0.803,0.174,1.21,0.258c4.756,0.978,9.638,1.874,14.627,2.694
		c0.143,0.023,0.287,0.046,0.43,0.069C166.473,332.641,167.899,332.878,169.349,333.098z M469.378,70.516
		c0.305-0.142,0.5-0.161,0.652-0.161c4.078,0,11.838,10.949,14.351,18.657c-0.481,0.971-2.132,3.629-7.401,8.45
		c-5.656-4.913-12.007-9.341-18.985-13.237C462.801,75.881,466.897,71.675,469.378,70.516z M396.107,95.063
		c4.383,1.558,8.914,3.169,13.466,3.169c0.442,0,0.881-0.015,1.313-0.046c0.433,0.03,0.872,0.046,1.314,0.046
		c4.551,0,9.082-1.611,13.464-3.169c4.198-1.492,8.539-3.035,12.496-3.035c1.962,0,3.732,0.381,5.41,1.167
		c0.44,0.206,0.884,0.423,1.327,0.637c0.013,0.006,0.025,0.014,0.038,0.021c10.435,5.046,19.426,11.286,26.722,18.546
		c0.197,0.196,0.404,0.375,0.618,0.545c12.006,12.179,21.046,29.105,21.046,52.493c0,18.059-6.424,30.318-14.358,40.36
		c-0.212-0.178-0.433-0.344-0.648-0.518c-0.224-0.181-0.448-0.363-0.675-0.54c-0.439-0.342-0.886-0.673-1.336-0.999
		c-0.199-0.145-0.396-0.293-0.597-0.435c-0.64-0.449-1.289-0.885-1.95-1.303c-0.015-0.009-0.029-0.019-0.043-0.028
		c-0.68-0.429-1.374-0.839-2.075-1.235c-0.208-0.117-0.421-0.227-0.631-0.342c-0.495-0.27-0.993-0.535-1.498-0.788
		c-0.261-0.131-0.525-0.256-0.789-0.383c-0.468-0.225-0.939-0.443-1.414-0.653c-0.277-0.122-0.555-0.243-0.834-0.361
		c-0.485-0.204-0.975-0.399-1.467-0.588c-0.266-0.102-0.531-0.208-0.8-0.306c-0.573-0.21-1.152-0.405-1.734-0.594
		c-0.189-0.061-0.375-0.129-0.565-0.188c-0.773-0.241-1.552-0.465-2.338-0.671c-0.182-0.048-0.368-0.087-0.551-0.133
		c-0.606-0.151-1.215-0.295-1.828-0.425c-0.284-0.06-0.57-0.112-0.855-0.167c-0.522-0.101-1.046-0.197-1.572-0.282
		c-0.31-0.05-0.621-0.097-0.932-0.141c-0.516-0.074-1.034-0.14-1.554-0.199c-0.309-0.035-0.617-0.07-0.927-0.1
		c-0.558-0.053-1.119-0.093-1.681-0.128c-0.268-0.017-0.534-0.039-0.803-0.052c-0.829-0.039-1.66-0.063-2.495-0.063
		c-3.423,0-6.827,0.34-10.15,1.001c-7.313,1.454-14.239,4.461-20.136,8.812l-1.918,1.415l-3.281,2.421l-5.2-3.836
		c-8.576-6.328-19.333-9.813-30.286-9.813c-0.835,0-1.666,0.024-2.495,0.063c-0.268,0.013-0.534,0.035-0.801,0.052
		c-0.563,0.035-1.125,0.075-1.685,0.129c-0.308,0.029-0.615,0.065-0.923,0.099c-0.522,0.059-1.043,0.125-1.561,0.199
		c-0.309,0.044-0.617,0.09-0.924,0.14c-0.531,0.086-1.059,0.183-1.586,0.285c-0.28,0.054-0.562,0.106-0.841,0.164
		c-0.623,0.132-1.24,0.278-1.856,0.432c-0.174,0.043-0.35,0.08-0.523,0.126c-0.79,0.206-1.572,0.431-2.348,0.673
		c-0.178,0.055-0.352,0.119-0.529,0.177c-0.594,0.193-1.185,0.393-1.771,0.607c-0.261,0.095-0.518,0.198-0.777,0.297
		c-0.501,0.193-0.999,0.391-1.492,0.599c-0.272,0.115-0.543,0.232-0.813,0.352c-0.484,0.214-0.963,0.436-1.438,0.665
		c-0.257,0.123-0.513,0.245-0.768,0.373c-0.514,0.258-1.021,0.527-1.525,0.802c-0.202,0.11-0.407,0.216-0.607,0.329
		c-0.704,0.397-1.4,0.808-2.083,1.239c-0.004,0.002-0.008,0.005-0.012,0.008c-0.672,0.424-1.33,0.867-1.98,1.323
		c-0.201,0.141-0.396,0.289-0.595,0.433c-0.451,0.327-0.897,0.658-1.336,0.999c-0.229,0.179-0.455,0.361-0.681,0.544
		c-0.211,0.171-0.428,0.335-0.637,0.509c-0.098-0.124-0.197-0.244-0.294-0.368c-0.209-0.267-0.415-0.538-0.622-0.808
		c-0.346-0.453-0.688-0.91-1.027-1.372c-0.202-0.276-0.404-0.553-0.604-0.832c-0.353-0.495-0.699-0.997-1.043-1.504
		c-0.171-0.251-0.344-0.5-0.512-0.754c-0.467-0.707-0.925-1.426-1.371-2.158c-0.035-0.058-0.073-0.114-0.109-0.172
		c-0.478-0.791-0.941-1.6-1.391-2.423c-0.133-0.243-0.259-0.494-0.39-0.74c-0.313-0.589-0.62-1.184-0.916-1.79
		c-0.15-0.306-0.294-0.617-0.44-0.927c-0.268-0.573-0.529-1.155-0.782-1.744c-0.139-0.324-0.278-0.648-0.412-0.977
		c-0.256-0.626-0.498-1.265-0.735-1.91c-0.109-0.297-0.223-0.589-0.328-0.89c-0.321-0.921-0.627-1.858-0.908-2.819
		c-0.008-0.029-0.018-0.056-0.027-0.084c-0.288-0.989-0.548-2.005-0.789-3.038c-0.074-0.316-0.136-0.642-0.206-0.963
		c-0.158-0.73-0.308-1.468-0.442-2.221c-0.07-0.393-0.133-0.793-0.196-1.193c-0.113-0.716-0.214-1.443-0.305-2.18
		c-0.051-0.416-0.101-0.832-0.145-1.255c-0.081-0.788-0.144-1.593-0.198-2.405c-0.025-0.38-0.058-0.754-0.078-1.14
		c-0.061-1.202-0.099-2.425-0.099-3.683c0-1.393,0.038-2.773,0.104-4.142c0.015-0.309,0.041-0.609,0.058-0.915
		c0.065-1.1,0.144-2.195,0.251-3.278c0.025-0.257,0.055-0.511,0.082-0.767c0.132-1.21,0.284-2.413,0.469-3.602
		c0.014-0.088,0.026-0.176,0.04-0.264c1.097-6.89,3.089-13.409,5.964-19.481c0.082-0.174,0.144-0.354,0.212-0.532
		c3.648-7.574,8.455-14.024,13.864-19.512c0.214-0.169,0.421-0.349,0.619-0.546c7.295-7.261,16.285-13.501,26.721-18.546
		c0.013-0.006,0.025-0.014,0.038-0.021c0.443-0.214,0.887-0.431,1.327-0.637c1.679-0.786,3.449-1.167,5.411-1.167
		C387.569,92.028,391.909,93.57,396.107,95.063z M351.743,70.355c0.142,0,0.345,0.019,0.652,0.161
		c2.481,1.158,6.576,5.364,11.384,13.708c-6.979,3.897-13.329,8.324-18.985,13.237c-5.268-4.821-6.92-7.479-7.401-8.45
		C339.906,81.303,347.666,70.355,351.743,70.355z M430.613,317.022c-5.96,0.562-12.555,0.895-19.727,0.895
		c-1.717,0-3.399-0.02-5.049-0.057c-0.021-0.001-0.041-0.005-0.062-0.006c-5.006-0.114-9.904-0.4-14.587-0.839l19.698-4.344
		L430.613,317.022z M308.453,388.575c0-4.36,1.935-10.013,4.142-12.101l0.196-0.185c0.541-0.512,1.095-1.053,1.654-1.607v28.703
		c-0.196-0.093-0.396-0.181-0.594-0.269c-0.148-0.066-0.296-0.133-0.446-0.198c-0.286-0.122-0.575-0.238-0.866-0.352
		c-0.128-0.05-0.254-0.103-0.383-0.152c-0.415-0.157-0.834-0.306-1.258-0.445c-0.005-0.002-0.01-0.004-0.015-0.005
		c-0.432-0.141-0.869-0.272-1.309-0.395c-0.129-0.036-0.259-0.067-0.388-0.101c-0.244-0.065-0.486-0.132-0.732-0.191v-12.702
		H308.453z M269.84,441.647c-1.063,0-1.928-0.865-1.928-1.928v-24.78h32.34c0.024,0.003,0.049,0.002,0.073,0.005
		c0.277,0.032,0.557,0.052,0.842,0.052c6.327,0,11.773,3.498,14.201,8.498c0.117,0.24,0.22,0.484,0.321,0.728
		c0.092,0.223,0.187,0.444,0.268,0.672c0.085,0.241,0.153,0.485,0.224,0.729c0.068,0.235,0.143,0.468,0.198,0.708
		c0.063,0.273,0.104,0.551,0.149,0.828c0.035,0.213,0.082,0.423,0.106,0.639c0.056,0.499,0.089,1.002,0.089,1.51v10.978
		c0,0.104-0.014,0.203-0.036,0.3c-0.008,0.033-0.02,0.065-0.03,0.098c-0.004,0.012-0.01,0.024-0.014,0.036
		c-0.019,0.054-0.037,0.108-0.063,0.161c-0.221,0.451-0.681,0.765-1.217,0.765L269.84,441.647L269.84,441.647z M377.829,440.288
		c0,0.75-0.61,1.36-1.36,1.36h-45.232c0.039-0.452,0.059-0.905,0.059-1.36V429.31c0-0.448-0.012-0.893-0.033-1.336
		c-0.009-0.199-0.027-0.396-0.04-0.594c-0.016-0.236-0.031-0.472-0.053-0.706c-0.024-0.257-0.055-0.512-0.087-0.768
		c-0.02-0.165-0.04-0.33-0.063-0.495c-0.041-0.292-0.088-0.583-0.138-0.873c-0.021-0.118-0.041-0.235-0.063-0.352
		c-0.06-0.321-0.125-0.64-0.196-0.958c-0.016-0.069-0.032-0.138-0.048-0.206c-0.375-1.618-0.888-3.205-1.556-4.749v-3.375h32.058
		c0.04,0.007,0.083,0.004,0.124,0.01c0.351,0.052,0.707,0.088,1.073,0.088c8.578,0,15.556,6.421,15.556,14.313v10.979H377.829z
		 M391.87,331.715c-9.652,13.079-20.807,27.189-27.99,33.99l-0.193,0.183c-5.978,5.653-8.701,15.723-8.701,22.687v11.75h-25.968
		v-42.2c0.099-0.124,0.202-0.258,0.302-0.383c0.406-0.51,0.82-1.04,1.232-1.564c0.377-0.48,0.751-0.953,1.132-1.445
		c0.522-0.672,1.054-1.366,1.585-2.06c0.285-0.372,0.566-0.735,0.853-1.113c0.656-0.863,1.322-1.75,1.992-2.645
		c0.175-0.234,0.346-0.459,0.522-0.695c0.794-1.066,1.599-2.157,2.411-3.266c0.063-0.086,0.124-0.168,0.187-0.254
		c3.566-4.878,7.306-10.172,11.218-15.888c2.451-0.553,6.027-1.391,10.818-2.537c0.03,0.009,0.063,0.018,0.094,0.027
		c7.641,2.391,16.683,4.009,26.022,4.989c0.088,0.009,0.174,0.019,0.262,0.028c1.329,0.138,2.662,0.263,3.999,0.375
		C391.722,331.701,391.794,331.709,391.87,331.715z M485.9,295.076c-4.232,3.088-9.011,5.529-14.117,7.276
		c-0.704,0.241-1.413,0.468-2.126,0.681c-0.092,0.027-0.184,0.054-0.276,0.081c-0.655,0.193-1.313,0.373-1.975,0.542
		c-0.135,0.034-0.27,0.068-0.405,0.102c-0.628,0.156-1.258,0.3-1.892,0.435c-0.155,0.033-0.309,0.066-0.464,0.098
		c-0.639,0.13-1.28,0.249-1.924,0.358c-0.137,0.023-0.272,0.048-0.409,0.07c-0.707,0.115-1.417,0.217-2.13,0.306
		c-0.067,0.008-0.133,0.018-0.2,0.027c-2.412,0.294-4.857,0.443-7.325,0.443c-3.304,0-6.612-0.27-9.871-0.805
		c-1.087-0.179-2.17-0.386-3.245-0.623l-27.087-5.973c-0.517-0.114-1.043-0.171-1.569-0.171s-1.052,0.057-1.569,0.171l-27.086,5.973
		c-1.076,0.237-2.158,0.445-3.246,0.624c-3.259,0.534-6.566,0.804-9.87,0.804c-2.464,0-4.905-0.148-7.313-0.441
		c-0.081-0.01-0.162-0.022-0.244-0.033c-0.037-0.005-0.073-0.011-0.109-0.016c-0.002,0-0.004-0.001-0.006-0.001
		c-1.068-0.136-2.126-0.309-3.177-0.501c-0.212-0.039-0.424-0.077-0.636-0.118c-0.993-0.193-1.977-0.408-2.951-0.65
		c-0.104-0.026-0.209-0.052-0.313-0.079c-0.099-0.025-0.197-0.055-0.295-0.081c-0.806-0.209-1.603-0.44-2.394-0.682
		c-0.402-0.124-0.802-0.252-1.201-0.384c-0.767-0.254-1.528-0.519-2.279-0.804c-0.198-0.075-0.398-0.148-0.595-0.226
		c-0.925-0.364-1.836-0.751-2.733-1.162c-0.199-0.091-0.395-0.187-0.593-0.281c-0.8-0.378-1.59-0.773-2.366-1.188
		c-0.143-0.076-0.288-0.148-0.43-0.226c-0.866-0.473-1.713-0.973-2.545-1.492c-0.194-0.121-0.385-0.244-0.577-0.367
		c-0.845-0.542-1.679-1.099-2.486-1.688c-1.434-1.046-2.736-2.096-3.904-3.148c-5.063-4.561-7.623-9.173-7.622-13.752
		c0-0.792,0.013-1.578,0.038-2.359c0.012-0.358,0.034-0.711,0.051-1.067c0.019-0.416,0.034-0.834,0.06-1.247
		c0.032-0.497,0.075-0.988,0.116-1.48c0.022-0.263,0.039-0.529,0.064-0.791c0.055-0.583,0.122-1.162,0.191-1.738
		c0.019-0.163,0.035-0.329,0.055-0.491c0.083-0.66,0.176-1.314,0.276-1.965c0.011-0.073,0.02-0.147,0.031-0.22
		c0.112-0.718,0.233-1.431,0.365-2.138l0.001-0.009c3.463-18.642,13.51-33.486,22.202-43.33c0.002-0.002,0.004-0.004,0.006-0.006
		c0.36-0.408,0.719-0.809,1.077-1.203c0.032-0.035,0.064-0.072,0.096-0.107c6.532-7.168,16.163-11.279,26.425-11.279
		c1.965,0,3.92,0.155,5.841,0.457c0.961,0.151,1.913,0.339,2.854,0.563c0.471,0.112,0.938,0.233,1.403,0.363
		c4.182,1.169,8.111,3.057,11.536,5.584l9.525,7.028c2.572,1.898,6.08,1.898,8.653,0l9.526-7.028
		c0.381-0.281,0.767-0.554,1.16-0.819c5.89-3.973,13.103-6.148,20.474-6.148c6.075,0,11.923,1.451,17.044,4.113
		c3.53,1.836,6.717,4.242,9.383,7.167c0.388,0.425,0.779,0.863,1.172,1.308c0.004,0.004,0.008,0.007,0.011,0.011
		c10.97,12.422,23.444,32.005,23.446,56.828C497.427,283.81,493.549,289.496,485.9,295.076z"/>
	<path style="fill:#121419;" d="M20.712,211.681v0.541c-0.126,1.3-0.364,4.75,0,9.733v78.309c0,4.025,3.262,7.287,7.287,7.287
		s7.287-3.262,7.287-7.287v-78.581c0-0.186-0.007-0.372-0.021-0.557c-0.362-4.717-0.037-7.6-0.037-7.6
		c0.038-0.305,0.058-0.613,0.058-0.92v-0.546c0.008-0.127,0.011-0.254,0.012-0.382c0.096-16.658,2.862-40.069,15.591-56.184
		c0.52-0.472,0.964-1.014,1.324-1.606c8.543-9.942,21.226-16.733,39.947-16.733H269.5c4.024,0,7.286-3.262,7.286-7.287
		c0-4.025-3.262-7.287-7.286-7.287H92.16c-20.931,0-38.237,7.368-50.507,21.368C16.658,153.73,0,177.962,0,204.894v20.623
		c0,4.025,3.262,7.287,7.287,7.287s7.287-3.262,7.287-7.287v-20.623c0-12.087,4.318-23.477,11.709-32.409
		c-3.549,11.38-5.441,24.426-5.555,38.727C20.717,211.368,20.712,211.525,20.712,211.681z"/>
	<path style="fill:#121419;" d="M345.639,150.625c0,4.025,3.262,7.287,7.286,7.287c4.024,0,7.287-3.262,7.287-7.287
		c0-2.658,2.163-4.821,4.821-4.821s4.821,2.162,4.821,4.821c0,4.025,3.262,7.287,7.287,7.287s7.287-3.262,7.287-7.287
		c0-10.694-8.7-19.394-19.394-19.394S345.639,139.932,345.639,150.625z"/>
	<path style="fill:#121419;" d="M444.632,157.912c4.024,0,7.287-3.262,7.287-7.287c0-2.658,2.163-4.821,4.821-4.821
		s4.821,2.162,4.821,4.821c0,4.025,3.262,7.287,7.287,7.287c4.024,0,7.287-3.262,7.287-7.287c0-10.694-8.7-19.394-19.394-19.394
		s-19.394,8.7-19.394,19.394C437.345,154.65,440.608,157.912,444.632,157.912z"/>
	<path style="fill:#121419;" d="M389.42,233.867l-14.318-8.502c-3.46-2.054-7.931-0.914-9.985,2.546
		c-2.055,3.46-0.915,7.931,2.545,9.986l14.318,8.502c1.167,0.693,2.448,1.022,3.713,1.022c2.487,0,4.91-1.274,6.272-3.567
		C394.02,240.393,392.88,235.922,389.42,233.867z"/>
	<path style="fill:#121419;" d="M448.071,225.365l-14.318,8.502c-3.46,2.055-4.6,6.526-2.545,9.986
		c1.362,2.294,3.785,3.567,6.272,3.567c1.265,0,2.546-0.329,3.713-1.022l14.318-8.502c3.46-2.055,4.6-6.526,2.545-9.986
		C456.002,224.451,451.532,223.312,448.071,225.365z"/>
</g>
<g>
</g>
<g>
</g>
<g>
</g>
<g>
</g>
<g>
</g>
<g>
</g>
<g>
</g>
<g>
</g>
<g>
</g>
<g>
</g>
<g>
</g>
<g>
</g>
<g>
</g>
<g>
</g>
<g>
</g>
</svg>
