<?xml version="1.0" encoding="iso-8859-1"?>
<!-- Generator: Adobe Illustrator 19.0.0, SVG Export Plug-In . SVG Version: 6.00 Build 0)  -->
<svg version="1.1" id="Capa_1" xmlns="http://www.w3.org/2000/svg" xmlns:xlink="http://www.w3.org/1999/xlink" x="0px" y="0px"
	 viewBox="0 0 514.8 514.8" style="enable-background:new 0 0 514.8 514.8;" xml:space="preserve">
<g>
	<path style="fill:#99AAB5;" d="M92.4,268.2c-43.2,0-78.2,35-78.2,78.2s35,78.2,78.2,78.2s78.2-35,78.2-78.2
		C170.7,303.3,135.7,268.2,92.4,268.2z M92.4,396.2c-27.5,0-49.8-22.3-49.8-49.8s22.3-49.8,49.8-49.8s49.8,22.3,49.8,49.8
		S119.9,396.2,92.4,396.2z"/>
	<path style="fill:#99AAB5;" d="M419.6,268.2c-43.2,0-78.2,35-78.2,78.2s35,78.2,78.2,78.2s78.2-35,78.2-78.2
		C497.8,303.3,462.7,268.2,419.6,268.2z M419.6,396.2c-27.5,0-49.8-22.3-49.8-49.8s22.3-49.8,49.8-49.8s49.8,22.3,49.8,49.8
		C469.3,373.9,447.1,396.2,419.6,396.2z"/>
</g>
<g>
	<path style="fill:#292F33;" d="M92.4,252.8c-51,0-92.4,41.4-92.4,92.4c0,51.1,41.4,92.4,92.4,92.4c51.1,0,92.4-41.4,92.4-92.4
		C184.9,294.2,143.5,252.8,92.4,252.8z M92.4,409.2c-35.3,0-64-28.7-64-64s28.7-64,64-64s64,28.7,64,64S127.8,409.2,92.4,409.2z"/>
	<path style="fill:#292F33;" d="M419.6,252.8c-51.1,0-92.4,41.4-92.4,92.4c0,51.1,41.4,92.4,92.4,92.4c51.1,0,92.4-41.4,92.4-92.4
		S470.6,252.8,419.6,252.8z M419.6,409.2c-35.3,0-64-28.7-64-64s28.7-64,64-64s64,28.7,64,64S454.9,409.2,419.6,409.2z"/>
</g>
<path style="fill:#77B255;" d="M99.6,311.649c-28.4,56.9,14.2,36.8,28.4,8.3c12.9-25.8,49-34.5,66.3-5.3
	c-13.5-43.4-54-74.9-101.8-74.9c-19.5,0-37.8,5.3-53.5,14.5C79.2,256.649,115.2,280.349,99.6,311.649"/>
<g>
	<path style="fill:#99AAB5;" d="M426.7,339.3c0,7.9-6.4,14.2-14.2,14.2h-128c-7.9,0-14.2-6.4-14.2-14.2s6.4-14.2,14.2-14.2h128
		C420.3,325.1,426.7,331.5,426.7,339.3"/>
	<path style="fill:#99AAB5;" d="M425.523,357.894c-6.2,4.9-15.1,3.9-20-2.3l-79.6-100.2c-4.9-6.2-3.9-15.1,2.3-20
		c6.2-4.9,15.1-3.9,20,2.3l79.6,100.2C432.723,344.094,431.723,352.994,425.523,357.894"/>
</g>
<path style="fill:#CCD6DD;" d="M177.263,216.533c6.6,4.2,8.6,13,4.3,19.6l-69,107.8c-4.2,6.6-13,8.5-19.6,4.3s-8.6-13-4.3-19.6
	l69-107.8C161.863,214.233,170.663,212.333,177.263,216.533"/>
<path style="fill:#77B255;" d="M512,180.8c-0.1-13.5-1.4-25.7-28.4-12.1c-28.4,14.2-14.2,22.1-42.7,7.8
	c-28.5-14.3-44.9,6.4-59.2,6.4c-14.2,0-108.3,23.9-122.6-0.7c-7.9-13.5-25.4-27.7-51.3-27.7c-18.7,0-44.3,9.5-58.1,19.5
	c-11.5,8.3-64.4,23.2-21.7,51.7s72.4,58.7,72.4,85.3c0,37.9-9.3,56.9,12.9,56.9h99.6c0,0-14.2-56.9,28.4-99.6
	c42.7-42.7,71.1-28.4,113.8-42.7c26.9-9,56.8-28.4,56.9-42.6L512,180.8L512,180.8z"/>
<path style="fill:#66757F;" d="M270.2,310.9c-15.7,0-28.4,12.7-28.4,28.4c0,15.7,12.7,28.4,28.4,28.4s28.4-12.7,28.4-28.4
	C298.7,323.6,285.9,310.9,270.2,310.9z"/>
<polygon style="fill:#CCD6DD;" points="498.9,271.7 367,324.8 382.9,364.3 514.8,311.3 "/>
<polygon style="fill:#FFFFFF;" points="504.2,284.9 372.3,338 377.6,351.1 509.5,298.1 "/>
<polygon style="fill:#66757F;" points="509.5,298.1 377.6,351.2 382.9,364.3 514.8,311.3 "/>
<g>
	<path style="fill:#292F33;" d="M367,183.5c-16.5,1.3-77.3,6.9-96.7,1.4c-16.7-4.7-75.8,36.9-69.9,43.8c5.9,6.9,55.7,29.7,69.9,24.1
		c16.9-6.6,71.1-38.7,96.7-51.6C389.6,189.9,383.4,182.2,367,183.5z"/>
	<path style="fill:#292F33;" d="M483.6,168.7c-22,0.6-42.7,0-56.9,0s-16.5,15.7,22,15.7S483.6,168.7,483.6,168.7z"/>
</g>
<path style="fill:#77B255;" d="M130.8,153.9c-28.1,0-37.5-27.1-21.1-49.4c6.8-9.4-56.5,42.8-56.5,63.7c0,10.2,33.5,36.5,74.9,57.5
	C169.3,246.6,158.9,153.9,130.8,153.9z"/>
<path style="fill:#CCD6DD;" d="M122.4,77.2c0,0-31,29.1-48.4,57.3c-17.4,28.1,13.8,17.8,33.6-7.7C127.3,101.3,132.4,85.9,122.4,77.2
	z"/>
<path style="fill:#66757F;" d="M153.8,128.4l-1.9-0.8c-6.8-2.7-14.4,0.6-17.2,7.4l-11.3,28.3c-2.7,6.8,0.6,14.4,7.3,17.2l1.9,0.8
	c6.8,2.7,14.4-0.6,17.2-7.3l11.3-28.3C163.8,138.8,160.5,131.1,153.8,128.4z"/>
<path style="fill:#292F33;" d="M183.6,125.9c-1.3-3.7-5.4-5.6-9.1-4.3l-26.8,9.7c-3.7,1.4-5.6,5.4-4.3,9.1s5.4,5.6,9.1,4.3l26.8-9.7
	C183,133.6,185,129.6,183.6,125.9z"/>
<g>
</g>
<g>
</g>
<g>
</g>
<g>
</g>
<g>
</g>
<g>
</g>
<g>
</g>
<g>
</g>
<g>
</g>
<g>
</g>
<g>
</g>
<g>
</g>
<g>
</g>
<g>
</g>
<g>
</g>
</svg>
