<?xml version="1.0" encoding="iso-8859-1"?>
<!-- Generator: Adobe Illustrator 19.0.0, SVG Export Plug-In . SVG Version: 6.00 Build 0)  -->
<svg xmlns="http://www.w3.org/2000/svg" xmlns:xlink="http://www.w3.org/1999/xlink" version="1.1" id="Layer_1" x="0px" y="0px" viewBox="0 0 431.662 431.662" style="enable-background:new 0 0 431.662 431.662;" xml:space="preserve" width="512" height="512">
<g>
	<path style="fill:#E6E6E6;" d="M327.28,233.604H40.83l-0.01-0.01c0.81-0.73,1.57-1.51,2.29-2.32c3.1-3.51,5.4-7.71,6.67-12.33   l5.51-19.99c8.4-30.54,36.17-51.69,67.83-51.69h118.8c33.79,0,63.78,21.62,74.46,53.67L327.28,233.604z"/>
	<path style="fill:#F2F2F2;" d="M327.28,233.604H163.69l40.88-86.34h37.35c33.79,0,63.78,21.62,74.46,53.67L327.28,233.604z"/>
	<polygon style="fill:#F95428;" points="235.576,94.98 193.082,94.98 188.184,147.268 240.473,147.268  "/>
	<path style="fill:#CCCCCC;" d="M389.21,345.938c0-23.61-19.14-28.808-42.75-28.808c-23.62,0-13.59-8.943-13.59,14.667   c0,0.93-4.012,16.001-3.952,16.921H116.87c0.06-0.92-14-1.85-14-2.78c0-23.61,5.44-23.25-18.17-23.25   c-23.62,0-23.258-0.357-23.258,23.253c0,0.93-6.632,1.856-6.572,2.776H32.549c-11.073,0-20.049-8.976-20.049-20.049v-60.521   c0-12.58,7.58-23.92,19.2-28.73c3.4-1.4,6.47-3.39,9.12-5.82l0.01,0.01h286.45l73.47,5.44c18.92,1.4,32.48,18.86,29.14,37.54   l-11.228,62.928c-0.95,5.325-5.581,9.202-10.989,9.202H389.12C389.18,347.798,389.21,346.868,389.21,345.938z"/>
	<path style="fill:#CCCCCC;" d="M214.438,241.107c-4.143,0-7.5-3.358-7.5-7.5v-84.371c0-4.142,3.357-7.5,7.5-7.5s7.5,3.358,7.5,7.5   v84.371C221.938,237.749,218.581,241.107,214.438,241.107z"/>
	<rect x="115.704" y="147.643" style="fill:#CCCCCC;" width="15" height="85.964"/>
	<g>
		<path style="fill:#F95428;" d="M214.515,72.982c-3.037,0-5.5-2.462-5.5-5.5V48.464c0-3.038,2.463-5.5,5.5-5.5s5.5,2.462,5.5,5.5    v19.018C220.015,70.52,217.552,72.982,214.515,72.982z"/>
		<path style="fill:#F95428;" d="M248.582,87.247c-1.407,0-2.815-0.537-3.889-1.611c-2.148-2.148-2.148-5.63-0.001-7.778    L258.14,64.41c2.148-2.148,5.632-2.148,7.778,0c2.148,2.148,2.148,5.63,0.001,7.778l-13.447,13.448    C251.397,86.71,249.989,87.247,248.582,87.247z"/>
		<path style="fill:#F95428;" d="M180.339,86.985c-1.407,0-2.815-0.537-3.889-1.611l-13.448-13.448c-2.148-2.148-2.148-5.63,0-7.778    c2.146-2.147,5.631-2.148,7.777,0l13.448,13.448c2.148,2.148,2.148,5.63,0,7.778C183.154,86.447,181.746,86.985,180.339,86.985z"/>
		<path style="fill:#F95428;" d="M281.603,121.423h-19.019c-3.037,0-5.5-2.462-5.5-5.5s2.463-5.5,5.5-5.5h19.019    c3.037,0,5.5,2.462,5.5,5.5S284.64,121.423,281.603,121.423z"/>
		<path style="fill:#F95428;" d="M166.074,121.052h-19.019c-3.037,0-5.5-2.462-5.5-5.5s2.463-5.5,5.5-5.5h19.019    c3.037,0,5.5,2.462,5.5,5.5S169.111,121.052,166.074,121.052z"/>
	</g>
	<polygon style="fill:#CCCCCC;" points="215.577,253.724 228.644,275.378 253.276,281.114 236.72,300.233 238.876,325.432    215.577,315.594 192.278,325.432 194.434,300.233 177.878,281.114 202.51,275.378  "/>
	<polygon style="fill:#4288BC;" points="215.577,247.058 228.644,268.711 253.276,274.448 236.72,293.566 238.876,318.765    215.577,308.928 192.278,318.765 194.434,293.566 177.878,274.448 202.51,268.711  "/>
	<path style="fill:#4288BC;" d="M400.75,239.044c18.92,1.4,32.48,18.86,29.14,37.54l-11.228,62.928   c-0.95,5.325-5.581,9.202-10.989,9.202H369.71c0.06-0.92-5.714-1.85-5.714-2.78c0-23.61,6.075-28.803-17.535-28.803v-82.107   L400.75,239.044z"/>
	<path style="fill:#4288BC;" d="M84.7,233.604v81.527c-23.62,0-23.258,7.201-23.258,30.811c0,0.93-19.472,1.852-19.412,2.772H25.318   c-7.079,0-12.818-5.739-12.818-12.818v-67.752c0-12.58,7.58-23.92,19.2-28.73c3.4-1.4,6.47-3.39,9.12-5.82l0.01,0.01H84.7z"/>
	<path style="fill:#CCCCCC;" d="M327.279,241.106c-3.14,0-6.065-1.986-7.113-5.128l-10.9-32.67   c-9.676-29.037-36.739-48.544-67.346-48.544h-118.8c-14.452,0-28.577,5.039-39.773,14.188c-3.208,2.62-7.934,2.147-10.554-1.062   c-2.621-3.208-2.146-7.932,1.062-10.553c13.868-11.332,31.364-17.572,49.266-17.572h118.8c37.073,0,69.856,23.629,81.575,58.799   l17.375,53.901c1.312,3.929-7.287-13.057-11.216-11.746C328.867,240.981,328.066,241.106,327.279,241.106z"/>
	<path style="fill:#FFFFFF;" d="M404.483,301.963c-0.438,0-0.881-0.038-1.327-0.118c-4.077-0.728-6.793-4.624-6.064-8.701   l3.891-21.794c0.727-4.077,4.62-6.792,8.701-6.065c4.077,0.728,6.793,4.624,6.064,8.701l-3.891,21.794   C411.21,299.411,408.048,301.963,404.483,301.963z"/>
	<circle style="fill:#F95428;" cx="374.87" cy="275.464" r="7"/>
	<path style="fill:#3679A3;" d="M358.87,324.964v23.75h48.804c5.408,0,10.038-3.877,10.989-9.201l2.598-14.549H358.87z"/>
	<path style="fill:#B3B3B3;" d="M102.42,142.584l-4.41,17.44c-17,7.45-30.35,22.25-35.49,40.92l-5.51,19.99   c-1.25,4.55-3.37,8.87-6.18,12.67h18.98c-2.65,2.43-5.72,4.41-9.11,5.81c-11.62,4.81-19.2,16.15-19.2,28.73v56.82h39.89v23.75   H24.08c-0.22,0-0.43-0.02-0.64-0.03c-5.86-0.32-10.54-4.97-10.9-10.82c-0.02-0.24-0.04-0.48-0.04-0.73v-68.99   c0-6.55,2.07-12.76,5.68-17.89l-0.01-0.01c0-0.01,0.1-0.14,0.28-0.36c1.1-1.52,2.33-2.95,3.69-4.25   c6.73-7.76,19.71-23.13,20.41-28.68l5.51-19.99C55.43,170.144,76.51,149.774,102.42,142.584z"/>
	<path style="fill:#CCCCCC;" d="M424.162,332.222H358.87c-4.143,0-7.5-3.358-7.5-7.5s3.357-7.5,7.5-7.5h65.292   c4.143,0,7.5,3.358,7.5,7.5S428.305,332.222,424.162,332.222z"/>
	<path style="fill:#3679A3;" d="M81.39,324.964v23.75H24.08c-0.22,0-0.43-0.02-0.64-0.03c-5.86-0.32-10.54-4.97-10.9-10.82   c-0.02-0.24-0.04-0.48-0.04-0.73v-68.99c0-6.55,2.07-12.76,5.68-17.89l-0.01-0.01c0-0.01,0.1-0.14,0.28-0.36   c1.1-1.52,2.33-2.95,3.69-4.25c2.73-3.15,6.48-7.54,10.04-12.03h37.63c-2.65,2.43-5.72,4.41-9.11,5.81   c-11.62,4.81-19.2,16.15-19.2,28.73v56.82H81.39z"/>
	<path style="fill:#CCCCCC;" d="M69.537,332.222H7.5c-4.143,0-7.5-3.358-7.5-7.5s3.357-7.5,7.5-7.5h62.037   c4.143,0,7.5,3.358,7.5,7.5S73.68,332.222,69.537,332.222z"/>
	<rect x="102.87" y="324.964" style="fill:#B3B3B3;" width="244" height="23.75"/>
	<path style="fill:#666666;" d="M127.36,348.718c0.06-0.92,0.09-1.85,0.09-2.78c0-23.61-19.14-42.75-42.75-42.75   c-23.62,0-42.76,19.14-42.76,42.75c0,0.93,0.03,1.86,0.09,2.78c1.43,22.32,19.98,39.98,42.67,39.98   C107.38,388.698,125.93,371.038,127.36,348.718z"/>
	<path style="fill:#666666;" d="M389.12,348.718c0.06-0.92,0.09-1.85,0.09-2.78c0-23.61-19.14-42.75-42.75-42.75   c-23.62,0-42.76,19.14-42.76,42.75c0,0.93,0.03,1.86,0.09,2.78c1.43,22.32,19.98,39.98,42.67,39.98   C369.14,388.698,387.69,371.038,389.12,348.718z"/>
	<path style="fill:#CCCCCC;" d="M84.697,363.481c-9.671,0-17.539-7.868-17.539-17.539c0-9.671,7.868-17.539,17.539-17.539   s17.539,7.868,17.539,17.539C102.236,355.613,94.368,363.481,84.697,363.481z"/>
	<path style="fill:#CCCCCC;" d="M346.457,363.481c-9.672,0-17.539-7.868-17.539-17.539c0-9.671,7.868-17.539,17.539-17.539   c9.671,0,17.538,7.868,17.538,17.539C363.995,355.613,356.128,363.481,346.457,363.481z"/>
	<path style="fill:#4D4D4D;" d="M346.457,369.196c-12.822,0-23.254-10.432-23.254-23.254c0-12.822,10.432-23.253,23.254-23.253   c12.822,0,23.252,10.431,23.252,23.253C369.71,358.764,359.279,369.196,346.457,369.196z M346.457,330.425   c-8.556,0-15.517,6.961-15.517,15.517c0,8.556,6.961,15.517,15.517,15.517c8.555,0,15.516-6.961,15.516-15.517   C361.973,337.386,355.013,330.425,346.457,330.425z"/>
	<path style="fill:#4D4D4D;" d="M84.696,369.196c-12.822,0-23.254-10.432-23.254-23.254c0-12.822,10.432-23.253,23.254-23.253   c12.822,0,23.252,10.431,23.252,23.253C107.948,358.764,97.518,369.196,84.696,369.196z M84.696,330.425   c-8.556,0-15.517,6.961-15.517,15.517c0,8.556,6.961,15.517,15.517,15.517c8.555,0,15.516-6.961,15.516-15.517   C100.212,337.386,93.251,330.425,84.696,330.425z"/>
</g>















</svg>
