<?xml version="1.0" encoding="iso-8859-1"?>
<!-- Generator: Adobe Illustrator 19.0.0, SVG Export Plug-In . SVG Version: 6.00 Build 0)  -->
<svg version="1.1" id="Layer_1" xmlns="http://www.w3.org/2000/svg" xmlns:xlink="http://www.w3.org/1999/xlink" x="0px" y="0px"
	 viewBox="0 0 512 512" style="enable-background:new 0 0 512 512;" xml:space="preserve">
<path style="fill:#38363F;" d="M147.357,364.113l0.198-0.188c10.453-9.898,26.602-31.926,38.671-49.385
	c-0.16-0.02-67.549-15.973-67.549-15.973L99.531,322.49v111.422c0,5.183,4.201,9.384,9.384,9.384h31.904h14.458
	c4.863,0,8.806-3.942,8.806-8.806v-11.18c0-12.149-10.415-21.998-23.264-21.998v-19.487
	C140.818,376.082,143.183,368.06,147.357,364.113z"/>
<path style="fill:#2E2D35;" d="M164.007,421.62c-0.024-0.298-0.053-0.595-0.089-0.89c-0.018-0.147-0.038-0.294-0.059-0.44
	c-0.042-0.293-0.092-0.583-0.147-0.872c-0.024-0.129-0.046-0.259-0.073-0.387c-0.085-0.407-0.178-0.811-0.287-1.209
	c-0.001-0.006-0.003-0.011-0.005-0.017c-0.109-0.399-0.232-0.792-0.363-1.182c-0.042-0.123-0.087-0.244-0.131-0.366
	c-0.097-0.272-0.199-0.542-0.307-0.809c-0.054-0.135-0.11-0.269-0.168-0.402c-0.113-0.264-0.232-0.524-0.356-0.782
	c-0.056-0.118-0.11-0.236-0.169-0.353c-0.183-0.366-0.374-0.727-0.577-1.081c-0.001-0.002-0.002-0.004-0.003-0.005
	c-0.358-0.623-0.747-1.228-1.165-1.813c-0.279-0.39-0.575-0.767-0.878-1.139c-0.076-0.094-0.153-0.186-0.231-0.279
	c-0.309-0.366-0.626-0.726-0.958-1.072c-0.002-0.002-0.003-0.003-0.005-0.005c-0.333-0.346-0.681-0.678-1.036-1.003
	c-0.09-0.083-0.18-0.164-0.272-0.245c-0.361-0.321-0.73-0.635-1.112-0.933c-0.459-0.358-0.938-0.696-1.425-1.021
	c-0.071-0.048-0.141-0.097-0.213-0.143c-0.469-0.305-0.951-0.592-1.444-0.864c-0.092-0.051-0.184-0.101-0.277-0.15
	c-0.497-0.266-1.004-0.517-1.523-0.749c-0.08-0.036-0.161-0.068-0.241-0.103c-0.548-0.237-1.104-0.461-1.674-0.658
	c0,0-0.001,0-0.002-0.001c-0.57-0.197-1.152-0.368-1.742-0.523c-0.086-0.023-0.171-0.047-0.257-0.069
	c-0.564-0.142-1.138-0.262-1.719-0.364c-0.109-0.019-0.218-0.037-0.327-0.055c-0.583-0.095-1.173-0.171-1.771-0.223
	c-0.091-0.008-0.184-0.013-0.275-0.02c-0.63-0.048-1.265-0.08-1.908-0.08v-19.487l0,0c0-1.795,0.231-3.813,0.676-5.859
	c0.356-1.637,0.849-3.292,1.47-4.866c1.087-2.755,2.567-5.262,4.393-6.988l0.188-0.178l0.01-0.01
	c10.453-9.898,26.602-31.926,38.671-49.385c-0.069-0.008-12.635-2.309-26.908-4.923c-13.085,18.85-32.105,44.601-42.356,54.308
	c-4.301,4.073-6.737,9.736-6.737,15.659v14.692c0,3.639,2.428,6.884,5.959,7.765c9.961,2.489,17.305,11.068,17.305,21.269v11.18
	c0,4.863-3.942,8.806-8.806,8.806h16.136l0,0h14.458c0.325,0,0.644-0.02,0.959-0.054c0.104-0.011,0.204-0.032,0.307-0.047
	c0.21-0.03,0.419-0.062,0.624-0.107c0.118-0.026,0.233-0.059,0.349-0.09c0.184-0.048,0.367-0.099,0.547-0.159
	c0.119-0.04,0.236-0.084,0.354-0.129c0.17-0.065,0.339-0.134,0.504-0.21c0.115-0.052,0.228-0.107,0.34-0.164
	c0.161-0.082,0.319-0.17,0.474-0.261c0.107-0.063,0.214-0.126,0.318-0.193c0.155-0.101,0.305-0.209,0.454-0.319
	c0.094-0.07,0.19-0.137,0.281-0.21c0.158-0.127,0.308-0.263,0.457-0.4c0.072-0.067,0.148-0.129,0.218-0.198
	c0.212-0.21,0.415-0.428,0.605-0.658c0.061-0.074,0.115-0.155,0.174-0.231c0.115-0.149,0.232-0.296,0.338-0.452
	c0.158-0.234,0.306-0.476,0.441-0.726c0.665-1.224,1.044-2.624,1.058-4.111c0-0.029,0.004-0.057,0.004-0.087v-11.18
	c0-0.434-0.017-0.865-0.043-1.293C164.031,421.884,164.017,421.752,164.007,421.62z"/>
<path style="fill:#38363F;" d="M371.026,401.314v-19.487c0-5.744,2.365-13.766,6.539-17.713l0.198-0.187
	c10.052-9.518,29.295-34.04,41.724-51.719c-4.965,1.381-10.142,2.129-15.422,2.129l-0.002-0.013v0.013
	c-12.528,0-24.506-4.096-34.299-11.36c-1.306,0.329-2.617,0.656-3.943,0.975c-0.065,0.016-0.128,0.032-0.193,0.047
	c-1.49,0.358-2.995,0.707-4.509,1.052c-0.578,0.132-1.161,0.261-1.743,0.391c-0.942,0.21-1.889,0.418-2.84,0.624
	c-0.69,0.149-1.38,0.298-2.074,0.445c-1.007,0.212-2.022,0.42-3.039,0.626c-0.511,0.104-1.013,0.212-1.527,0.314
	c-6.563,9.666-13.46,19.374-20.158,28.025v98.437c0,5.183,4.202,9.384,9.384,9.384h31.904h14.458c4.863,0,8.806-3.942,8.806-8.806
	v-11.18C394.29,411.162,383.874,401.314,371.026,401.314z"/>
<path style="fill:#2E2D35;" d="M394.289,423.307c0-0.535-0.027-1.064-0.067-1.589c-0.005-0.066-0.011-0.133-0.016-0.199
	c-0.004-0.05-0.008-0.101-0.012-0.15c-0.048-0.512-0.11-1.02-0.194-1.521c-0.006-0.038-0.015-0.075-0.021-0.112
	c-0.007-0.038-0.015-0.075-0.021-0.113c-0.082-0.46-0.18-0.915-0.292-1.365c-0.018-0.074-0.036-0.149-0.054-0.223
	c-0.004-0.015-0.007-0.03-0.011-0.046c-0.129-0.49-0.276-0.974-0.439-1.451c-0.002-0.006-0.005-0.012-0.007-0.018
	c-0.029-0.085-0.06-0.168-0.09-0.253c-0.166-0.464-0.344-0.923-0.541-1.372c-0.006-0.012-0.011-0.025-0.016-0.038
	c-0.004-0.008-0.007-0.017-0.011-0.025c-0.002-0.005-0.004-0.01-0.006-0.015c-0.211-0.474-0.441-0.938-0.685-1.395
	c-0.019-0.036-0.038-0.071-0.057-0.106c-0.024-0.043-0.047-0.087-0.071-0.13c-0.508-0.925-1.083-1.811-1.72-2.652
	c-0.009-0.012-0.017-0.023-0.026-0.035c-0.006-0.008-0.011-0.015-0.017-0.023c-0.022-0.03-0.044-0.06-0.067-0.089
	c-0.327-0.424-0.668-0.838-1.025-1.239c-0.02-0.022-0.04-0.044-0.06-0.066c-0.74-0.823-1.542-1.594-2.4-2.306
	c-0.014-0.012-0.029-0.023-0.043-0.035c-0.013-0.011-0.026-0.021-0.039-0.032c-0.866-0.712-1.788-1.365-2.76-1.951
	c-0.016-0.01-0.032-0.02-0.048-0.029c-1.491-0.895-3.096-1.634-4.791-2.192l0,0c-0.002-0.001-0.004-0.001-0.006-0.002
	c-0.505-0.166-1.017-0.317-1.537-0.45c-0.765-0.197-1.546-0.357-2.34-0.48c0,0-0.001,0-0.002,0c-0.02-0.003-0.041-0.007-0.061-0.01
	c-0.01-0.002-0.019-0.003-0.029-0.005c-0.346-0.053-0.695-0.095-1.046-0.132c-0.031-0.003-0.062-0.007-0.093-0.011
	c-0.036-0.004-0.071-0.009-0.108-0.013c-0.396-0.039-0.795-0.069-1.197-0.089h-0.001c-0.004,0-0.008-0.001-0.012-0.001
	c-0.404-0.02-0.811-0.03-1.22-0.03v-19.487v-2.242c0-5.46,2.074-10.695,5.766-14.671l0,0c0.25-0.282,0.508-0.55,0.773-0.8
	l0.044-0.042l0.068-0.065l0.086-0.081l0,0l0,0c0.007-0.007,0.014-0.013,0.021-0.02c0.029-0.028,0.05-0.086,0.09-0.087
	c10.082-9.592,29.226-33.995,41.61-51.61c-4.964,1.381-10.14,2.129-15.419,2.129l-0.002-0.013v0.013
	c-5.565,0-11.017-0.827-16.225-2.357c-13.705,19.183-32.168,43.699-40.878,51.947c-4.301,4.073-6.737,9.736-6.737,15.659v12.747
	c0,4.622,2.986,8.721,7.392,10.116c9.225,2.921,15.872,11.158,15.872,20.864v11.18c0,4.863-3.942,8.806-8.805,8.806h16.344h14.458
	c0.406,0,0.802-0.037,1.193-0.09c0.098-0.013,0.196-0.028,0.293-0.045c0.384-0.066,0.762-0.146,1.127-0.26c0.001,0,0.002,0,0.002,0
	c0.003-0.001,0.004-0.001,0.006-0.002c0.367-0.114,0.719-0.26,1.064-0.419c0.087-0.04,0.173-0.081,0.258-0.124
	c0.337-0.169,0.666-0.352,0.976-0.561l0.002-0.002c0.223-0.151,0.439-0.313,0.647-0.484c0.173-0.142,0.338-0.294,0.5-0.449
	c0.028-0.026,0.057-0.05,0.085-0.077c0.373-0.367,0.713-0.768,1.018-1.195c0.001-0.002,0.003-0.003,0.004-0.005
	c0.111-0.156,0.215-0.317,0.316-0.481c0.024-0.039,0.049-0.079,0.072-0.119c0.004-0.007,0.008-0.013,0.012-0.02
	c0.092-0.155,0.18-0.313,0.263-0.474c0.03-0.058,0.057-0.118,0.085-0.177c0.128-0.264,0.242-0.536,0.344-0.814
	c0.037-0.101,0.078-0.2,0.111-0.302c0.037-0.114,0.066-0.231,0.099-0.347c0.023-0.082,0.043-0.165,0.064-0.248
	c0.015-0.062,0.034-0.123,0.048-0.186c0.024-0.106,0.045-0.213,0.065-0.321c0.032-0.172,0.058-0.346,0.08-0.522
	c0.011-0.089,0.023-0.177,0.032-0.266c0.025-0.269,0.041-0.541,0.041-0.816v-11.18l0,0v-0.001v-0.006H394.289z"/>
<path style="fill:#626266;" d="M329.738,401.22v32.693c0,5.183,4.202,9.384,9.384,9.384h31.904h14.458
	c4.863,0,8.806-3.942,8.806-8.806v-11.18c0-12.149-10.415-21.998-23.264-21.998L329.738,401.22z"/>
<path style="fill:#515154;" d="M371.026,401.314l-25.986-0.093c0.787,0.513,1.648,0.933,2.576,1.227
	c9.225,2.921,15.872,11.158,15.872,20.864v11.18c0,4.863-3.942,8.806-8.806,8.806h16.344h14.458c2.051,0,3.933-0.707,5.43-1.883
	c0.076-0.06,0.154-0.118,0.228-0.18c0.309-0.26,0.595-0.545,0.866-0.844c0.231-0.256,0.449-0.523,0.65-0.805
	c0.29-0.407,0.543-0.841,0.761-1.296c0.183-0.381,0.348-0.771,0.475-1.18c0.257-0.827,0.396-1.707,0.396-2.618v-11.18
	C394.29,411.162,383.874,401.314,371.026,401.314z"/>
<path style="fill:#47454C;" d="M310.706,364.113l0.198-0.187c11.507-10.896,25.915-30.328,38.993-49.59
	c4.849-0.966,17.967-3.934,28.051-6.286c-8.574-4.365-16.056-10.852-21.603-19.063l-5.356-7.927
	C338.7,270.77,331.6,255.564,331.6,239.536c0,0-9.816-49.938-9.816-59.253c0-5.131,8.389-32.447,16.863-50.65
	c-6.358-2.806-12.402-6.67-16.861-11.277H147.887H91.311c-46.204,0-65.064,37.194-65.331,83.273
	c-0.004,0.015-0.009,0.03-0.013,0.045v0.942c0,0-0.442,3.476,0,9.244v222.052c0,5.183,4.201,9.384,9.384,9.384h31.904h14.458
	c4.863,0,8.806-3.942,8.806-8.806v-11.18c0-12.149-10.416-21.997-23.263-21.997v-21.729c0-5.923,2.436-11.586,6.737-15.659
	c13.206-12.505,30.233-36.252,44.685-58.082c32.325,10.692,75.83,17.74,134.368,17.74c0.652,0,1.304-0.001,1.955-0.004
	c4.347-0.018,7.879,3.489,7.879,7.836v102.497c0,5.183,4.201,9.384,9.384,9.384h31.904h14.458c4.863,0,8.805-3.942,8.805-8.806
	v-11.18c0-12.149-10.416-21.997-23.264-21.997v-22.001C304.167,373.563,306.532,368.067,310.706,364.113z"/>
<g>
	<path style="fill:#38363F;" d="M79.153,318.766c-12.24,17.761-25.338,35.099-35.963,45.16c-4.301,4.073-6.737,9.736-6.737,15.659
		v14.692c0,3.639,2.428,6.883,5.959,7.765c9.961,2.489,17.305,11.068,17.305,21.269v11.18c0,4.863-3.943,8.806-8.806,8.806h16.344
		l0,0h14.458c2.051,0,3.933-0.707,5.43-1.883c0.805-0.632,1.494-1.402,2.038-2.274c0.194-0.311,0.37-0.635,0.525-0.971
		c0.158-0.343,0.303-0.694,0.417-1.059c0.257-0.827,0.396-1.707,0.396-2.619v-11.18c0-3.796-1.017-7.368-2.808-10.485
		c-0.358-0.623-0.747-1.228-1.165-1.814c-0.836-1.17-1.788-2.26-2.841-3.256c-4.21-3.981-10.026-6.443-16.45-6.443l0,0v-19.487
		c0-5.744,2.365-13.766,6.539-17.713l0.198-0.187l0,0c6.191-5.862,13.22-14.194,20.431-23.64
		c8.172-10.706,16.576-22.845,24.254-34.442c-0.09-0.03-0.18-0.06-0.27-0.09C103.858,300.924,87.852,306.143,79.153,318.766z"/>
	<path style="fill:#38363F;" d="M304.167,401.314v-21.729c0-5.923,2.436-11.586,6.737-15.659l0,0
		c11.507-10.896,25.915-30.328,38.993-49.59c-10.942,2.18-22.427,4.027-34.353,5.484c-12.03,17.391-24.819,34.244-35.234,44.105l0,0
		c-4.301,4.073-6.737,9.736-6.737,15.659v12.409c0,4.823,3.136,9.038,7.714,10.559c9.057,3.009,15.55,11.167,15.55,20.759v11.18
		c0,4.863-3.942,8.806-8.806,8.806h16.136h14.458c4.863,0,8.806-3.942,8.806-8.806v-11.18
		C327.431,411.162,317.016,401.314,304.167,401.314z"/>
</g>
<path style="fill:#626266;" d="M25.967,401.054v32.859c0,5.183,4.201,9.384,9.384,9.384h31.904h14.458
	c4.863,0,8.806-3.942,8.806-8.806v-11.18c0-12.149-10.415-21.998-23.264-21.998L25.967,401.054z"/>
<path style="fill:#515154;" d="M67.255,401.314l-27.123-0.26c0.689,0.441,1.453,0.781,2.28,0.988
	c9.961,2.489,17.305,11.068,17.305,21.269v11.18c0,4.863-3.943,8.806-8.806,8.806h16.344h14.458c1.824,0,3.518-0.554,4.923-1.504
	c0.357-0.241,0.689-0.515,1.006-0.805c0.208-0.19,0.406-0.389,0.595-0.598c0.846-0.935,1.502-2.046,1.886-3.28
	c0.257-0.827,0.396-1.707,0.396-2.618v-11.18C90.519,411.162,80.103,401.314,67.255,401.314z"/>
<path style="fill:#626266;" d="M99.53,401.054v32.859c0,5.183,4.202,9.384,9.384,9.384h31.904h14.458
	c4.863,0,8.806-3.942,8.806-8.806v-11.18c0-12.149-10.415-21.998-23.263-21.998L99.53,401.054z"/>
<path style="fill:#515154;" d="M140.819,401.314l-26.915-0.26c0.689,0.441,1.453,0.781,2.28,0.988
	c9.961,2.489,17.305,11.068,17.305,21.269v11.18c0,4.863-3.942,8.806-8.806,8.806h16.136h14.458c1.824,0,3.518-0.554,4.923-1.504
	c2.342-1.582,3.882-4.262,3.882-7.302v-11.18C164.082,411.162,153.666,401.314,140.819,401.314z"/>
<path style="fill:#626266;" d="M262.879,401.054v32.859c0,5.183,4.202,9.384,9.384,9.384h31.904h14.458
	c4.863,0,8.806-3.942,8.806-8.806v-11.18c0-12.149-10.415-21.998-23.263-21.998L262.879,401.054z"/>
<path style="fill:#515154;" d="M304.167,401.314l-25.845-0.26c0.895,0.629,1.888,1.14,2.965,1.498
	c9.057,3.009,15.55,11.167,15.55,20.76v11.18c0,4.863-3.942,8.806-8.806,8.806h16.136h14.458c0.912,0,1.791-0.139,2.618-0.396
	c2.757-0.858,4.934-3.034,5.791-5.791c0.257-0.827,0.396-1.707,0.396-2.618v-11.18C327.431,411.162,317.015,401.314,304.167,401.314
	z"/>
<polygon style="fill:#4E4D54;" points="389.008,87.456 389.007,87.456 389.007,87.466 "/>
<path style="fill:#58565D;" d="M469.333,68.739c-2.623-0.235-5.161,1.006-6.553,3.241l-16.971,28.836
	c4.67,24.271,25.633,33.233,26.867,33.442c15.592-4.342,31.952-19.426,31.952-33.536C504.627,84.158,489.185,70.517,469.333,68.739z
	"/>
<path style="fill:#49474F;" d="M469.333,68.739c-0.297-0.026-0.593-0.029-0.887-0.018c-0.094,0.004-0.186,0.013-0.279,0.02
	c-0.201,0.015-0.401,0.038-0.599,0.071c-0.103,0.017-0.206,0.035-0.308,0.056c-0.103,0.022-0.203,0.053-0.305,0.079
	c-0.091,0.024-0.183,0.044-0.273,0.071s-0.181,0.049-0.27,0.079c-0.181,0.062-0.356,0.141-0.531,0.218
	c-0.074,0.032-0.151,0.057-0.224,0.092c-0.1,0.048-0.194,0.106-0.292,0.159c-0.151,0.082-0.3,0.166-0.445,0.258
	c-0.111,0.072-0.219,0.148-0.327,0.226c-0.056,0.041-0.109,0.086-0.164,0.128c-0.067,0.052-0.134,0.102-0.199,0.156
	c-0.104,0.086-0.208,0.172-0.307,0.265c-0.013,0.012-0.026,0.026-0.039,0.04c-0.007,0.007-0.013,0.014-0.02,0.021
	c14.93,4.625,25.537,16.335,25.537,30.06c0,8.468-12.163,22.305-22.346,30.708c3.027,1.88,5.244,2.764,5.621,2.827
	c15.592-4.342,31.952-19.426,31.952-33.536c0-0.517-0.015-1.032-0.045-1.544C503.657,83.317,488.565,70.462,469.333,68.739z"/>
<path style="fill:#999999;" d="M467.699,104.351c2.892,2.454-8.062,17.964,1.431,19.823c0.561,0,1.126-0.043,1.679-0.127
	c13.806-2.108,23.828-11.254,23.828-21.747c0-5.525-2.816-10.849-7.929-14.994c-3.657-2.963-8.133-5.076-13.059-6.217
	c-1.998-0.462-4.065,0.439-5.149,2.179l-5.312,8.526C461.474,94.547,462.793,100.188,467.699,104.351z"/>
<path style="fill:#B3B3B3;" d="M469.13,124.174c0.561,0,1.126-0.043,1.679-0.127c13.806-2.108,23.828-11.254,23.828-21.747
	c0-5.525-2.816-10.849-7.929-14.994c-0.171-0.139-0.354-0.267-0.529-0.402c2.442,3.264,3.747,6.927,3.747,10.685
	c0,10.493-10.021,19.638-23.828,21.747c-0.304,0.046-0.611,0.077-0.919,0.098C465.247,121.776,466.241,123.608,469.13,124.174z"/>
<path style="fill:#58565D;" d="M338.712,68.739c2.623-0.235,5.161,1.006,6.553,3.241l16.971,28.836
	c-4.67,24.271-25.633,33.233-26.867,33.442c-15.592-4.342-31.952-19.426-31.952-33.536
	C303.418,84.158,318.859,70.517,338.712,68.739z"/>
<path style="fill:#999999;" d="M340.345,104.351c-2.892,2.454,8.062,17.964-1.431,19.823c-0.561,0-1.126-0.043-1.679-0.127
	c-13.806-2.108-23.828-11.254-23.828-21.747c0-5.525,2.816-10.849,7.929-14.994c3.657-2.963,8.133-5.076,13.059-6.217
	c1.998-0.462,4.065,0.439,5.149,2.179l5.312,8.526C346.571,94.547,345.252,100.188,340.345,104.351z"/>
<path style="fill:#B3B3B3;" d="M338.914,124.174c-0.561,0-1.126-0.043-1.679-0.127c-13.806-2.108-23.828-11.254-23.828-21.747
	c0-5.525,2.816-10.849,7.929-14.994c0.171-0.139,0.354-0.267,0.529-0.402c-2.442,3.264-3.747,6.927-3.747,10.685
	c0,10.493,10.021,19.638,23.828,21.747c0.304,0.046,0.611,0.077,0.919,0.098C342.797,121.776,341.804,123.608,338.914,124.174z"/>
<path style="fill:#58565D;" d="M478.599,132.095c0,0-6.306-0.453-18.145-12.291c-6.653-6.653-10.904-25.134-10.904-25.134
	c-6.824-4.495-14.549-7.213-23.228-7.213h-22.254l-0.002,0.01v-0.01h-22.254c-8.678,0-16.403,2.718-23.228,7.213
	c0,0-4.251,18.481-10.904,25.134c-11.839,11.839-18.145,12.291-18.145,12.291c-9.05,19.42-13.178,39.003-13.178,44.478
	c0,9.929,10.464,63.162,10.464,63.162c0,17.086,7.568,33.294,20.668,44.264l5.709,8.45c11.416,16.897,30.477,27.022,50.868,27.022
	v-0.014l0.002,0.014c20.392,0,39.452-10.125,50.868-27.022l5.709-8.45c13.1-10.969,20.668-27.178,20.668-44.264
	c0,0,10.464-53.233,10.464-63.162C491.778,171.098,487.649,151.514,478.599,132.095z"/>
<path style="fill:#4E4D54;" d="M478.599,132.095c0,0-6.306-0.453-18.145-12.292c-6.653-6.653-10.904-25.134-10.904-25.134
	c-6.824-4.495-14.549-7.213-23.227-7.213h-22.254l-0.001,0.011v-0.011h-11.241c0.148,0,0.296,0.001,0.444,0.003
	c11.859,0.127,22.229,7.812,26.334,18.94c1.852,5.022,4.36,10.411,7.354,13.405c1.48,1.48,2.873,2.782,4.179,3.927
	c5.14,4.51,9.678,9.61,13.522,15.166c-2.811-1.907-13.983-7.96-40.592-6.205c-31.455-2.075-41.34,6.763-41.34,6.763
	c-33.079,13.126-31.539,54.353-33.972,70.345c-0.965,6.34-1.521,12.742-1.369,19.153c0.022,0.939,0.053,1.871,0.094,2.798
	c0.201-4.147,0.65-8.283,1.276-12.393c2.434-15.992,0.893-57.219,33.972-70.345c0,0,9.886-8.838,41.34-6.763
	c31.455-2.075,41.34,6.763,41.34,6.763c2.451,0.973,4.691,2.116,6.778,3.376c2.058,4.727,3.661,9.665,4.74,14.77
	c0.913,4.316,1.356,7.621,1.356,9.414c0,1.637-0.286,4.457-0.761,8.017c-4.02-5.112-9.353-9.436-16.515-12.277
	c0,0-8.833-7.896-36.938-6.043c-28.105-1.854-36.938,6.043-36.938,6.043c-29.557,11.728-28.18,48.564-30.354,62.853
	c-0.862,5.665-1.359,11.385-1.224,17.113c0.02,0.839,0.048,1.672,0.084,2.5c0.179-3.705,0.581-7.401,1.14-11.073
	c2.175-14.289,0.798-51.125,30.354-62.854c0,0,8.833-7.896,36.938-6.043c28.105-1.854,36.938,6.043,36.938,6.043
	c6.546,2.598,11.57,6.43,15.456,10.973c-2.997,19.184-8.644,47.909-8.644,47.909c0,17.086-7.568,33.295-20.668,44.264l-5.709,8.45
	c-8.204,12.142-20.364,20.761-34.121,24.665c5.387,1.528,11.01,2.357,16.748,2.357v-0.014l0.001,0.014
	c20.392,0,39.453-10.125,50.869-27.022l5.709-8.45c13.1-10.969,20.668-27.178,20.668-44.264c0,0,10.464-53.233,10.464-63.162
	C491.778,171.098,487.649,151.514,478.599,132.095z"/>
<path style="fill:#B3B3B3;" d="M428.114,225.741l-19.754-87.716c-1.295-5.748-7.293-5.748-8.588,0l-19.753,87.716h0.119
	c-0.078,0.695-0.119,1.399-0.119,2.112c0,11.711,10.766,21.205,24.048,21.205s24.048-9.494,24.048-21.205
	c0-0.713-0.041-1.417-0.119-2.112H428.114z"/>
<path style="fill:#999999;" d="M428.114,225.741l-19.754-87.716c-0.694-3.08-2.738-4.508-4.685-4.287l9.379,73.93h-0.119
	c0.078,1.233,0.119,2.484,0.119,3.749c0,17.272-7.435,31.816-17.566,36.246c2.665,0.898,5.556,1.395,8.579,1.395
	c13.281,0,24.047-9.494,24.047-21.205c0-0.713-0.041-1.417-0.119-2.112L428.114,225.741L428.114,225.741z"/>
<path style="fill:#3D3D42;" d="M437.059,267.427c-2.205-3.14-5.802-5.009-9.638-5.009h-2.883c-4.06,2.395-8.687,3.658-13.401,3.658
	h-7.07h-7.07c-4.713,0-9.341-1.263-13.401-3.658h-2.883c-3.837,0-7.433,1.869-9.638,5.009l0,0
	c-2.596,3.697-2.809,8.564-0.546,12.474l0.893,1.542c1.248,2.156,2.179,4.468,2.774,6.866c1.009,4.069,4.261,7.196,8.367,8.041
	c6.336,1.304,15.302,2.886,21.505,2.886c6.202,0,15.168-1.582,21.505-2.886c4.106-0.845,7.358-3.971,8.367-8.041
	c0.595-2.397,1.526-4.71,2.774-6.866l0.893-1.542C439.869,275.991,439.656,271.123,437.059,267.427L437.059,267.427z"/>
<path style="fill:#303035;" d="M437.059,267.427L437.059,267.427c-2.205-3.14-5.802-5.009-9.639-5.009h-2.883
	c-1.126,0.664-2.296,1.238-3.499,1.725c1.363,0.831,2.563,1.94,3.507,3.284l0,0c2.596,3.697,2.809,8.564,0.546,12.474l-0.893,1.542
	c-1.248,2.156-2.179,4.468-2.774,6.866c-1.009,4.069-4.261,7.196-8.367,8.041c-4.415,0.908-10.104,1.95-15.248,2.5
	c2.239,0.239,4.376,0.386,6.257,0.386c6.202,0,15.168-1.582,21.505-2.886c4.106-0.845,7.358-3.972,8.367-8.041
	c0.595-2.397,1.526-4.71,2.774-6.866l0.893-1.542C439.869,275.991,439.656,271.123,437.059,267.427z"/>
<g>
	<path style="fill:#121419;" d="M512,100.721c0-20.275-18.06-37.181-42.009-39.326c-5.47-0.5-10.613,2.101-13.47,6.685
		c-0.033,0.053-0.065,0.106-0.097,0.159l-9.671,16.431c-6.508-3.045-13.351-4.589-20.431-4.589h-22.254h-0.001h-0.001h-22.254
		c-7.106,0-13.974,1.554-20.504,4.621l-9.689-16.463c-0.032-0.054-0.064-0.108-0.097-0.16c-2.857-4.584-8.013-7.185-13.469-6.685
		c-23.949,2.145-42.01,19.051-42.01,39.326c0,3.491,0.714,6.936,1.979,10.261H91.311c-19.72,0-36.28,6.424-48.539,18.68
		C16.329,137.03,0,161.137,0,193.141v20.744c0,4.073,3.301,7.373,7.373,7.373s7.373-3.301,7.373-7.373v-20.744
		c0-14.441,3.858-26.577,10.869-35.394c-4.483,12.497-6.877,27.174-7.007,43.453c-0.011,0.158-0.015,0.316-0.015,0.474v0.552
		c-0.128,1.321-0.371,4.833,0,9.91v120.275c0,4.073,3.301,7.373,7.373,7.373s7.373-3.301,7.373-7.373v-120.55
		c0-0.188-0.008-0.376-0.021-0.565c-0.37-4.809-0.037-7.748-0.038-7.748c0.039-0.309,0.06-0.62,0.06-0.931v-0.559
		c0.008-0.129,0.012-0.257,0.012-0.387c0.103-17.871,3.222-43.369,18.032-59.789c0.43-0.367,0.816-0.779,1.148-1.23
		c8.655-8.959,21.064-14.923,38.777-14.923h216.406c3.578,3.72,7.764,7.043,12.275,9.758c-0.06,0.145-0.118,0.289-0.177,0.434
		c-0.105,0.255-0.209,0.51-0.313,0.765c-0.131,0.321-0.259,0.641-0.387,0.962c-0.105,0.264-0.21,0.527-0.314,0.79
		c-0.122,0.31-0.242,0.619-0.362,0.929c-0.105,0.27-0.21,0.541-0.313,0.811c-0.115,0.302-0.228,0.603-0.342,0.904
		c-0.102,0.272-0.206,0.544-0.306,0.815c-0.117,0.316-0.231,0.63-0.346,0.945c-0.186,0.509-0.368,1.017-0.548,1.523
		c-0.099,0.278-0.199,0.557-0.296,0.834c-0.107,0.305-0.21,0.607-0.314,0.911c-0.087,0.253-0.175,0.507-0.261,0.759
		c-0.103,0.303-0.203,0.605-0.304,0.906c-0.084,0.25-0.167,0.5-0.249,0.749c-0.1,0.303-0.197,0.603-0.294,0.904
		c-0.078,0.242-0.156,0.484-0.233,0.726c-0.096,0.301-0.191,0.601-0.284,0.9c-0.074,0.237-0.148,0.473-0.22,0.709
		c-0.093,0.301-0.185,0.601-0.276,0.9c-0.069,0.226-0.136,0.451-0.203,0.676c-0.09,0.3-0.18,0.601-0.267,0.898
		c-0.065,0.221-0.127,0.439-0.191,0.659c-0.086,0.297-0.173,0.596-0.256,0.89c-0.054,0.19-0.105,0.376-0.157,0.564
		c-0.163,0.582-0.32,1.156-0.472,1.724c-0.057,0.211-0.115,0.425-0.17,0.635c-0.068,0.258-0.133,0.511-0.199,0.766
		c-0.06,0.234-0.122,0.469-0.18,0.7c-0.062,0.246-0.122,0.487-0.182,0.73c-0.059,0.238-0.118,0.476-0.175,0.712
		c-0.056,0.23-0.11,0.456-0.164,0.683c-0.058,0.242-0.115,0.483-0.17,0.722c-0.05,0.217-0.1,0.433-0.149,0.647
		c-0.055,0.244-0.109,0.486-0.163,0.726c-0.044,0.199-0.088,0.398-0.131,0.594c-0.056,0.26-0.11,0.515-0.163,0.77
		c-0.036,0.171-0.072,0.343-0.107,0.511c-0.06,0.292-0.116,0.578-0.172,0.862c-0.025,0.125-0.051,0.253-0.075,0.377
		c-0.159,0.825-0.302,1.617-0.427,2.373c-0.012,0.072-0.023,0.14-0.034,0.211c-0.049,0.303-0.097,0.602-0.141,0.893
		c-0.014,0.095-0.027,0.186-0.041,0.279c-0.039,0.263-0.076,0.522-0.11,0.774c-0.013,0.095-0.024,0.187-0.036,0.281
		c-0.032,0.247-0.062,0.488-0.089,0.724c-0.01,0.086-0.019,0.171-0.029,0.255c-0.026,0.239-0.05,0.471-0.072,0.698
		c-0.007,0.072-0.014,0.144-0.02,0.214c-0.021,0.239-0.04,0.469-0.055,0.694c-0.003,0.051-0.008,0.104-0.011,0.154
		c-0.017,0.258-0.03,0.506-0.039,0.743c0,0.012-0.001,0.024-0.002,0.036c-0.009,0.256-0.015,0.503-0.015,0.734
		c0,5.328,2.523,20.827,5.119,35.364c2.279,12.765,4.615,24.79,5.348,28.535c0.197,17.521,7.379,34.065,19.913,46.135
		c0.836,0.805,1.695,1.59,2.578,2.353l5.146,7.615c0.495,0.733,1.007,1.45,1.527,2.16c0.161,0.22,0.324,0.437,0.488,0.654
		c0.393,0.523,0.793,1.04,1.199,1.55c0.16,0.2,0.316,0.403,0.478,0.601c0.53,0.65,1.07,1.29,1.622,1.918
		c0.173,0.198,0.352,0.391,0.527,0.586c0.427,0.475,0.858,0.943,1.297,1.405c0.111,0.117,0.217,0.24,0.329,0.357
		c-0.096,0.021-0.195,0.043-0.29,0.063c-0.134,0.03-0.267,0.059-0.398,0.087c-1.121,0.245-2.135,0.464-3.019,0.652
		c-0.057,0.012-0.111,0.024-0.166,0.035c-0.217,0.046-0.425,0.09-0.625,0.132c-0.088,0.018-0.174,0.036-0.259,0.054
		c-0.176,0.037-0.343,0.071-0.505,0.105c-0.071,0.015-0.145,0.03-0.214,0.044c-0.221,0.045-0.432,0.088-0.623,0.126
		c-1.898,0.378-3.572,1.488-4.659,3.09c-0.928,1.366-1.843,2.705-2.751,4.023c-0.59,0.856-1.171,1.692-1.753,2.53
		c-0.29,0.418-0.585,0.845-0.873,1.258c-0.773,1.108-1.539,2.196-2.298,3.27c-0.077,0.109-0.156,0.222-0.233,0.33
		c-4.229,5.971-8.238,11.407-11.981,16.241c-0.008,0.011-0.013,0.023-0.022,0.033c-6.916,8.934-12.958,15.867-18.051,20.69
		l-0.199,0.188c-5.619,5.322-8.842,12.813-8.842,20.552v14.582l-26.541-0.167v-62.311c0-4.075-1.59-7.902-4.476-10.776
		c-2.89-2.876-6.711-4.436-10.799-4.433l-1.933,0.004c-29.559,0-56.496-1.834-80.597-5.47c-0.165-0.025-0.331-0.049-0.496-0.074
		c-1.069-0.163-2.13-0.331-3.188-0.5c-0.357-0.057-0.715-0.114-1.071-0.173c-0.885-0.145-1.764-0.293-2.641-0.442
		c-0.535-0.091-1.069-0.183-1.601-0.276c-0.72-0.126-1.436-0.254-2.15-0.384c-0.683-0.124-1.365-0.249-2.043-0.376
		c-0.576-0.108-1.15-0.217-1.723-0.327c-0.81-0.156-1.617-0.314-2.42-0.474c-0.456-0.091-0.911-0.182-1.365-0.275
		c-0.903-0.184-1.8-0.371-2.694-0.561c-0.365-0.078-0.73-0.155-1.094-0.233c-0.969-0.209-1.931-0.422-2.889-0.638
		c-0.295-0.066-0.591-0.133-0.885-0.2c-1.007-0.23-2.006-0.464-3-0.702c-0.252-0.06-0.505-0.12-0.757-0.18
		c-1.013-0.245-2.018-0.494-3.017-0.747c-0.235-0.06-0.473-0.118-0.707-0.178c-0.997-0.254-1.985-0.514-2.969-0.776
		c-0.236-0.063-0.474-0.124-0.708-0.187c-0.961-0.259-1.913-0.523-2.861-0.789c-0.253-0.071-0.509-0.14-0.761-0.212
		c-0.911-0.259-1.812-0.523-2.71-0.788c-0.281-0.083-0.566-0.164-0.846-0.248c-0.883-0.264-1.756-0.534-2.627-0.805
		c-0.281-0.087-0.567-0.172-0.847-0.26c-1.139-0.359-2.268-0.722-3.386-1.092c-1.185-0.391-2.413-0.468-3.582-0.263
		c-1.949,0.34-3.734,1.458-4.882,3.193c-0.12,0.181-0.238,0.358-0.357,0.538c-0.584,0.881-1.165,1.753-1.743,2.619
		c-0.274,0.41-0.547,0.818-0.82,1.225c-0.522,0.779-1.042,1.551-1.559,2.317c-0.348,0.516-0.695,1.028-1.041,1.538
		c-0.468,0.689-0.934,1.373-1.397,2.051c-0.341,0.499-0.68,0.994-1.018,1.486c-0.324,0.471-0.645,0.937-0.967,1.403
		c-0.714,1.035-1.424,2.057-2.127,3.064c-0.144,0.207-0.289,0.414-0.433,0.62c-12.965,18.518-23.937,32.167-32.145,39.939
		c-5.745,5.441-9.04,13.099-9.04,21.012v14.309l-26.541-0.167v-31.155c0-4.073-3.301-7.373-7.373-7.373s-7.373,3.301-7.373,7.373
		v38.482v32.859c0,9.24,7.517,16.757,16.757,16.757h46.362c5.603,0,10.547-2.865,13.452-7.204c3.031,4.348,8.06,7.204,13.75,7.204
		h46.361h0.001c8.364,0,15.265-6.379,16.095-14.527c0.055-0.543,0.084-1.094,0.084-1.652v-11.18c0-0.472-0.014-0.941-0.037-1.408
		c-0.007-0.15-0.021-0.299-0.03-0.449c-0.021-0.317-0.044-0.632-0.075-0.946c-0.017-0.174-0.038-0.347-0.059-0.52
		c-0.034-0.29-0.072-0.578-0.115-0.865c-0.026-0.176-0.054-0.353-0.084-0.528c-0.049-0.288-0.103-0.574-0.16-0.859
		c-0.033-0.166-0.065-0.332-0.102-0.497c-0.069-0.316-0.147-0.628-0.227-0.94c-0.033-0.128-0.062-0.258-0.097-0.386
		c-0.118-0.432-0.244-0.861-0.382-1.286c-0.035-0.107-0.074-0.211-0.11-0.317c-0.108-0.319-0.218-0.637-0.337-0.951
		c-0.062-0.164-0.128-0.326-0.193-0.488c-0.101-0.253-0.203-0.505-0.311-0.754c-0.076-0.177-0.156-0.352-0.235-0.527
		c-0.106-0.232-0.214-0.462-0.326-0.691c-0.087-0.179-0.175-0.356-0.265-0.533c-0.115-0.224-0.235-0.445-0.356-0.665
		c-0.095-0.173-0.188-0.346-0.286-0.517c-0.132-0.23-0.271-0.455-0.409-0.681c-0.121-0.199-0.243-0.398-0.369-0.594
		c-0.197-0.306-0.399-0.609-0.607-0.908c-0.133-0.19-0.272-0.375-0.409-0.561c-0.122-0.166-0.243-0.334-0.369-0.498
		c-0.151-0.196-0.306-0.389-0.462-0.582c-0.118-0.147-0.237-0.293-0.358-0.437c-0.167-0.198-0.336-0.394-0.508-0.588
		c-0.113-0.128-0.228-0.255-0.344-0.381c-0.185-0.202-0.372-0.404-0.563-0.601c-0.097-0.101-0.197-0.199-0.296-0.298
		c-1.043-1.049-2.165-2.024-3.358-2.916c-0.054-0.04-0.106-0.081-0.16-0.121c-0.281-0.207-0.566-0.408-0.854-0.606
		c-0.066-0.045-0.131-0.09-0.197-0.135c-0.294-0.198-0.591-0.392-0.892-0.58c-0.051-0.032-0.102-0.063-0.153-0.094
		c-1.719-1.062-3.554-1.963-5.483-2.682c-0.014-0.006-0.028-0.011-0.043-0.016c-0.37-0.137-0.744-0.267-1.12-0.39
		c-0.042-0.014-0.084-0.028-0.127-0.041c-0.371-0.12-0.745-0.234-1.123-0.341c-0.034-0.01-0.069-0.018-0.103-0.028
		c-0.387-0.108-0.777-0.211-1.17-0.305v-12.973c0-4.451,1.977-10.225,4.234-12.358l0.198-0.188
		c9.613-9.102,23.126-27.119,33.592-41.871c20.587,2.351,42.884,3.548,66.829,3.548l1.987-0.004
		c0.041,0.003,0.199-0.002,0.339,0.136c0.134,0.133,0.134,0.273,0.134,0.325v69.638v32.859c0,9.24,7.517,16.757,16.757,16.757
		h46.362c3.844,0,7.374-1.353,10.153-3.6c2.852,2.247,6.44,3.6,10.344,3.6h46.361h0.001c8.364,0,15.265-6.379,16.095-14.527
		c0.055-0.543,0.084-1.094,0.084-1.652v-11.18c0-0.472-0.014-0.941-0.037-1.408c-0.007-0.15-0.021-0.299-0.03-0.449
		c-0.021-0.317-0.044-0.632-0.075-0.946c-0.017-0.174-0.038-0.347-0.059-0.52c-0.034-0.29-0.072-0.578-0.115-0.865
		c-0.026-0.176-0.054-0.352-0.084-0.528c-0.049-0.289-0.103-0.576-0.161-0.862c-0.033-0.164-0.065-0.329-0.101-0.493
		c-0.07-0.32-0.149-0.637-0.23-0.953c-0.032-0.124-0.06-0.249-0.093-0.372c-0.118-0.434-0.246-0.866-0.384-1.292
		c-0.031-0.096-0.067-0.19-0.099-0.285c-0.111-0.331-0.226-0.661-0.349-0.986c-0.058-0.155-0.121-0.307-0.182-0.461
		c-0.105-0.264-0.212-0.528-0.325-0.789c-0.072-0.166-0.146-0.33-0.22-0.494c-0.112-0.247-0.228-0.491-0.347-0.734
		c-0.08-0.164-0.161-0.328-0.244-0.49c-0.126-0.246-0.258-0.49-0.391-0.732c-0.083-0.15-0.163-0.301-0.249-0.45
		c-0.162-0.281-0.33-0.558-0.501-0.834c-0.064-0.104-0.125-0.21-0.191-0.313c-0.233-0.366-0.474-0.725-0.723-1.08
		c-0.096-0.137-0.197-0.269-0.295-0.404c-0.163-0.224-0.326-0.448-0.495-0.667c-0.12-0.155-0.243-0.307-0.365-0.46
		c-0.155-0.194-0.312-0.386-0.472-0.576c-0.133-0.158-0.268-0.314-0.405-0.469c-0.158-0.18-0.319-0.357-0.481-0.532
		c-0.142-0.154-0.284-0.308-0.43-0.459c-0.167-0.174-0.339-0.344-0.511-0.514c-0.147-0.145-0.291-0.292-0.441-0.434
		c-0.202-0.192-0.41-0.378-0.617-0.565c-0.247-0.222-0.498-0.439-0.752-0.654c-0.194-0.163-0.386-0.327-0.584-0.486
		c-0.178-0.143-0.361-0.28-0.542-0.418c-0.172-0.132-0.344-0.264-0.52-0.392c-0.192-0.14-0.386-0.277-0.581-0.412
		c-0.171-0.119-0.342-0.236-0.516-0.352c-0.202-0.135-0.405-0.267-0.611-0.397c-0.172-0.109-0.346-0.215-0.52-0.32
		c-0.212-0.128-0.423-0.256-0.638-0.38c-0.17-0.097-0.343-0.19-0.514-0.284c-0.225-0.123-0.449-0.249-0.677-0.367
		c-0.067-0.035-0.137-0.066-0.204-0.1c-0.54-0.274-1.09-0.53-1.648-0.773c-0.168-0.073-0.334-0.148-0.503-0.218
		c-0.242-0.1-0.487-0.194-0.732-0.289c-0.181-0.07-0.362-0.14-0.545-0.206c-0.245-0.089-0.492-0.174-0.739-0.258
		c-0.187-0.063-0.376-0.124-0.565-0.184c-0.248-0.078-0.497-0.155-0.748-0.227c-0.194-0.056-0.391-0.108-0.587-0.16
		c-0.251-0.067-0.5-0.135-0.754-0.195c-0.028-0.007-0.055-0.015-0.082-0.021v-12.974c0-4.451,1.977-10.225,4.234-12.358l0.199-0.189
		c9.222-8.733,24.606-28.03,36.428-44.134c16.876-3.815,31.875-13.903,41.786-28.57l5.145-7.615
		c14.125-12.223,22.282-29.8,22.491-48.49c0.469-2.408,2.11-10.858,3.933-20.771c0.737-4.005-1.912-7.849-5.918-8.585
		c-4.001-0.744-7.848,1.913-8.585,5.918c-2.135,11.606-4.016,21.184-4.035,21.28c-0.092,0.469-0.138,0.945-0.138,1.422
		c0,14.944-6.571,29.017-18.029,38.611c-0.527,0.442-0.991,0.955-1.376,1.526l-5.709,8.449
		c-8.697,12.872-22.382,21.252-37.54,23.288c-0.347,0.047-0.695,0.079-1.042,0.12c-0.646,0.074-1.293,0.14-1.944,0.191
		c-0.346,0.027-0.693,0.053-1.04,0.074c-0.908,0.054-1.82,0.092-2.736,0.1c-0.05,0-0.1,0.004-0.149,0.004
		c-0.201-0.007-0.403-0.007-0.606,0c-0.033,0-0.066-0.002-0.1-0.002c-0.969-0.007-1.933-0.047-2.894-0.105
		c-0.182-0.011-0.364-0.019-0.546-0.032c-0.93-0.066-1.854-0.159-2.774-0.271c-0.224-0.028-0.448-0.057-0.671-0.088
		c-0.907-0.123-1.81-0.264-2.706-0.433c-0.204-0.038-0.408-0.084-0.612-0.124c-0.787-0.157-1.569-0.332-2.346-0.523
		c-0.196-0.048-0.394-0.091-0.589-0.142c-0.825-0.213-1.642-0.454-2.454-0.706c-0.31-0.096-0.619-0.192-0.927-0.293
		c-0.755-0.249-1.504-0.514-2.245-0.795c-0.356-0.136-0.71-0.279-1.064-0.422c-0.524-0.211-1.043-0.433-1.559-0.661
		c-0.554-0.245-1.105-0.499-1.652-0.763c-0.417-0.201-0.832-0.406-1.243-0.617c-0.468-0.241-0.933-0.484-1.394-0.739
		c-0.548-0.302-1.09-0.613-1.627-0.934c-0.432-0.258-0.859-0.525-1.285-0.795c-0.23-0.147-0.456-0.3-0.684-0.45
		c-0.599-0.394-1.195-0.792-1.776-1.207c-0.202-0.145-0.398-0.299-0.598-0.447c-0.833-0.613-1.643-1.25-2.436-1.906
		c-0.477-0.396-0.957-0.789-1.422-1.203c-0.283-0.252-0.554-0.516-0.832-0.773c-0.481-0.447-0.959-0.896-1.425-1.362
		c-0.259-0.259-0.512-0.524-0.766-0.788c-0.469-0.488-0.93-0.985-1.382-1.492c-0.234-0.263-0.468-0.527-0.698-0.795
		c-0.469-0.548-0.926-1.11-1.375-1.679c-0.191-0.242-0.387-0.48-0.575-0.726c-0.622-0.816-1.227-1.648-1.806-2.504l-5.71-8.45
		c-0.385-0.57-0.848-1.083-1.375-1.525c-0.743-0.622-1.462-1.264-2.164-1.923c-10.115-9.5-15.864-22.712-15.864-36.688
		c0-0.477-0.046-0.953-0.138-1.422c-1.513-7.697-3.362-17.463-5.076-26.99c-2.807-15.612-5.25-30.583-5.25-34.75
		c0-0.355,0.028-0.818,0.084-1.375c0.002-0.023,0.004-0.044,0.006-0.068c0.016-0.157,0.036-0.325,0.056-0.497
		c0.006-0.047,0.01-0.091,0.016-0.138c0.02-0.164,0.044-0.338,0.068-0.514c0.009-0.064,0.017-0.125,0.026-0.19
		c0.024-0.169,0.05-0.347,0.078-0.526c0.013-0.084,0.025-0.168,0.039-0.254c0.026-0.168,0.055-0.343,0.084-0.519
		c0.018-0.111,0.036-0.221,0.056-0.335c0.029-0.168,0.059-0.34,0.09-0.515c0.023-0.131,0.047-0.262,0.072-0.397
		c0.031-0.17,0.064-0.345,0.098-0.522c0.029-0.15,0.058-0.301,0.088-0.455c0.034-0.172,0.068-0.346,0.104-0.523
		c0.034-0.17,0.07-0.343,0.106-0.517c0.035-0.169,0.071-0.339,0.107-0.513c0.042-0.198,0.085-0.399,0.13-0.602
		c0.035-0.161,0.071-0.323,0.107-0.488c0.049-0.221,0.1-0.446,0.152-0.673c0.036-0.157,0.071-0.313,0.108-0.473
		c0.059-0.252,0.12-0.508,0.181-0.767c0.034-0.143,0.068-0.285,0.103-0.43c0.069-0.286,0.141-0.578,0.214-0.872
		c0.031-0.126,0.062-0.249,0.094-0.376c0.081-0.324,0.166-0.654,0.252-0.986c0.027-0.106,0.054-0.209,0.081-0.315
		c0.101-0.384,0.204-0.774,0.311-1.169c0.015-0.057,0.03-0.113,0.045-0.17c0.504-1.858,1.075-3.829,1.718-5.887
		c0.001-0.003,0.002-0.007,0.003-0.01c0.157-0.502,0.318-1.01,0.483-1.522c0.023-0.072,0.048-0.145,0.071-0.217
		c0.144-0.443,0.289-0.888,0.439-1.338c0.04-0.119,0.081-0.24,0.121-0.359c0.136-0.404,0.273-0.81,0.414-1.22
		c0.053-0.153,0.107-0.307,0.16-0.46c0.131-0.379,0.264-0.758,0.4-1.141c0.064-0.181,0.13-0.364,0.196-0.546
		c0.128-0.356,0.257-0.712,0.388-1.071c0.075-0.205,0.152-0.411,0.228-0.617c0.126-0.339,0.253-0.679,0.382-1.021
		c0.085-0.223,0.17-0.447,0.256-0.672c0.125-0.327,0.252-0.654,0.38-0.983c0.093-0.238,0.187-0.477,0.282-0.716
		c0.125-0.315,0.252-0.632,0.379-0.948c0.103-0.256,0.207-0.512,0.313-0.769c0.121-0.296,0.244-0.592,0.368-0.889
		c0.116-0.279,0.233-0.559,0.352-0.838c0.117-0.277,0.236-0.554,0.355-0.831c0.128-0.298,0.257-0.597,0.388-0.896
		c0.039-0.089,0.079-0.178,0.118-0.267c0.205-0.083,0.42-0.175,0.637-0.269c0.029-0.012,0.055-0.023,0.083-0.035
		c0.328-0.144,0.671-0.303,1.024-0.473c0.081-0.039,0.165-0.082,0.247-0.122c0.285-0.141,0.579-0.291,0.88-0.45
		c0.096-0.051,0.19-0.1,0.288-0.152c0.387-0.209,0.783-0.429,1.195-0.67c0.013-0.008,0.028-0.018,0.042-0.025
		c0.391-0.229,0.796-0.478,1.208-0.738c0.119-0.075,0.24-0.153,0.361-0.23c0.345-0.222,0.697-0.455,1.058-0.699
		c0.108-0.073,0.214-0.143,0.323-0.218c0.46-0.317,0.93-0.651,1.414-1.007c0.092-0.068,0.188-0.142,0.281-0.211
		c0.399-0.297,0.806-0.608,1.221-0.932c0.149-0.117,0.299-0.234,0.45-0.355c0.43-0.342,0.869-0.699,1.315-1.072
		c0.094-0.078,0.185-0.151,0.279-0.231c0.533-0.449,1.078-0.923,1.633-1.416c0.147-0.131,0.297-0.268,0.445-0.402
		c0.433-0.391,0.872-0.795,1.318-1.213c0.17-0.159,0.339-0.317,0.511-0.481c0.591-0.562,1.189-1.141,1.802-1.754
		c0.363-0.363,0.716-0.753,1.064-1.156c0.055-0.064,0.111-0.126,0.166-0.191c0.33-0.39,0.652-0.798,0.967-1.219
		c0.061-0.081,0.121-0.163,0.181-0.245c0.316-0.432,0.627-0.874,0.929-1.333c0.036-0.055,0.072-0.112,0.108-0.167
		c0.296-0.454,0.585-0.919,0.867-1.395c0.029-0.048,0.058-0.094,0.086-0.143c0.289-0.49,0.568-0.992,0.842-1.501
		c0.05-0.093,0.1-0.185,0.15-0.278c0.266-0.501,0.525-1.007,0.778-1.52c0.044-0.089,0.086-0.178,0.13-0.267
		c0.259-0.533,0.513-1.069,0.757-1.609c0.006-0.014,0.013-0.029,0.019-0.044c0.243-0.54,0.477-1.081,0.706-1.624
		c0.033-0.079,0.067-0.157,0.1-0.236c0.221-0.529,0.434-1.057,0.641-1.583c0.038-0.097,0.076-0.193,0.114-0.29
		c0.205-0.528,0.404-1.054,0.595-1.574c0.023-0.061,0.044-0.121,0.066-0.183c0.193-0.529,0.379-1.052,0.557-1.567
		c0.008-0.024,0.017-0.048,0.025-0.072c0.182-0.528,0.354-1.045,0.52-1.553c0.022-0.068,0.045-0.136,0.067-0.204
		c0.162-0.499,0.316-0.986,0.463-1.461c0.016-0.051,0.031-0.1,0.046-0.15c0.47-1.53,0.86-2.915,1.17-4.078
		c5.377-3.055,10.9-4.545,16.804-4.545h21.973c0.191,0.008,0.383,0.008,0.574,0h21.963c5.904,0,11.426,1.49,16.803,4.545
		c0.009,0.033,0.02,0.071,0.028,0.104c0.088,0.329,0.182,0.674,0.282,1.035c0.025,0.089,0.05,0.18,0.076,0.271
		c0.106,0.377,0.217,0.766,0.336,1.174c0.022,0.076,0.046,0.154,0.068,0.231c0.114,0.387,0.234,0.786,0.359,1.196
		c0.022,0.071,0.042,0.139,0.064,0.21c0.137,0.443,0.282,0.9,0.432,1.364c0.033,0.103,0.066,0.204,0.1,0.308
		c0.151,0.461,0.308,0.931,0.471,1.407c0.038,0.109,0.075,0.218,0.114,0.329c0.169,0.487,0.344,0.98,0.526,1.48
		c0.033,0.091,0.068,0.183,0.102,0.275c0.194,0.528,0.394,1.058,0.603,1.593c0.011,0.029,0.023,0.057,0.034,0.086
		c0.206,0.525,0.42,1.052,0.639,1.58c0.032,0.078,0.064,0.155,0.096,0.233c0.221,0.525,0.449,1.049,0.684,1.571
		c0.043,0.096,0.085,0.191,0.129,0.287c0.236,0.52,0.479,1.037,0.728,1.549c0.042,0.086,0.085,0.172,0.127,0.258
		c0.261,0.528,0.527,1.052,0.802,1.567c0.022,0.041,0.044,0.08,0.066,0.121c0.281,0.523,0.57,1.039,0.866,1.543
		c0.017,0.029,0.033,0.059,0.05,0.087c0.296,0.502,0.602,0.99,0.914,1.469c0.043,0.066,0.085,0.132,0.128,0.197
		c0.306,0.463,0.62,0.913,0.94,1.348c0.047,0.064,0.095,0.127,0.142,0.191c0.328,0.438,0.662,0.862,1.004,1.266
		c0.032,0.038,0.066,0.075,0.098,0.113c0.361,0.42,0.727,0.824,1.104,1.201c0.081,0.081,0.157,0.151,0.237,0.23
		c0.529,0.526,1.049,1.031,1.561,1.518c0.206,0.196,0.409,0.386,0.612,0.576c0.435,0.407,0.864,0.8,1.287,1.181
		c0.158,0.142,0.319,0.291,0.476,0.43c0.549,0.487,1.085,0.949,1.612,1.392c0.158,0.132,0.311,0.257,0.467,0.385
		c0.402,0.332,0.797,0.652,1.185,0.96c0.161,0.127,0.322,0.256,0.48,0.379c0.501,0.389,0.993,0.763,1.471,1.113
		c0.075,0.055,0.147,0.104,0.222,0.158c0.417,0.302,0.824,0.588,1.224,0.861c0.146,0.1,0.289,0.197,0.432,0.293
		c0.369,0.247,0.73,0.482,1.083,0.705c0.089,0.056,0.181,0.117,0.269,0.172c0.426,0.265,0.838,0.511,1.239,0.744
		c0.116,0.067,0.227,0.129,0.341,0.193c0.308,0.174,0.609,0.339,0.902,0.495c0.105,0.056,0.211,0.113,0.314,0.166
		c0.37,0.192,0.729,0.371,1.075,0.535c0.064,0.03,0.123,0.056,0.186,0.085c0.29,0.135,0.57,0.26,0.842,0.376
		c0.095,0.041,0.189,0.081,0.282,0.119c0.073,0.03,0.15,0.065,0.222,0.094c7.81,17.755,11.145,34.468,11.145,38.395
		c0,0.944-0.161,3.617-1.243,10.911c-0.597,4.029,2.184,7.779,6.213,8.376c4.027,0.604,7.778-2.185,8.375-6.212
		c1.258-8.479,1.403-11.524,1.403-13.075c0-6.652-3.819-23.774-11.036-41.147C500.808,127.715,512,114.563,512,100.721z
		 M79.062,369.281c3.915-3.708,8.29-8.487,13.095-14.282v46.055v5.171c-0.075-0.1-0.149-0.2-0.226-0.299
		c-0.138-0.179-0.28-0.355-0.422-0.531c-0.133-0.165-0.267-0.33-0.403-0.492c-0.154-0.183-0.311-0.364-0.469-0.544
		c-0.129-0.146-0.26-0.29-0.392-0.434c-0.171-0.186-0.343-0.372-0.519-0.554c-0.119-0.123-0.24-0.242-0.361-0.363
		c-0.195-0.195-0.389-0.391-0.59-0.581c-0.053-0.05-0.108-0.098-0.162-0.148c-0.796-0.743-1.634-1.444-2.509-2.101
		c-0.076-0.057-0.151-0.116-0.228-0.172c-0.265-0.195-0.534-0.384-0.805-0.571c-0.084-0.058-0.168-0.115-0.253-0.173
		c-0.279-0.188-0.561-0.372-0.847-0.551c-0.068-0.043-0.136-0.084-0.205-0.126c-0.31-0.191-0.622-0.378-0.939-0.558
		c-0.003-0.002-0.006-0.003-0.009-0.005c-1.427-0.811-2.928-1.511-4.491-2.094c-0.021-0.008-0.042-0.016-0.063-0.024
		c-0.366-0.136-0.735-0.264-1.107-0.386c-0.046-0.015-0.093-0.03-0.139-0.045c-0.37-0.12-0.742-0.233-1.117-0.339
		c-0.034-0.01-0.068-0.018-0.102-0.028c-0.388-0.108-0.778-0.211-1.172-0.305v-15.215C74.629,375.705,76.244,371.949,79.062,369.281
		z M83.145,434.492c0,0.789-0.642,1.431-1.432,1.431H35.351c-1.109,0-2.01-0.902-2.01-2.01v-25.438l33.914,0.213
		c8.762,0,15.89,6.56,15.89,14.624C83.145,423.312,83.145,434.492,83.145,434.492z M108.915,435.923
		c-1.109,0-2.011-0.902-2.011-2.01v-25.438l33.915,0.213c8.762,0,15.889,6.56,15.889,14.624v11.18c0,0.197-0.04,0.385-0.113,0.557
		c-0.218,0.514-0.727,0.875-1.32,0.875h-46.36V435.923z M169.63,325.235c-11.468,15.811-20.949,27.471-27.145,33.336l-0.195,0.185
		c-6.077,5.747-8.845,15.988-8.845,23.071v12.067l-26.542-0.167v-57.869c1.087-1.496,2.192-3.035,3.311-4.607
		c0.243-0.342,0.488-0.687,0.732-1.033c0.821-1.158,1.649-2.336,2.486-3.534c0.353-0.505,0.706-1.011,1.062-1.523
		c0.457-0.657,0.914-1.316,1.375-1.984c0.729-1.057,1.463-2.128,2.203-3.211c0.337-0.495,0.677-0.995,1.017-1.496
		c0.794-1.168,1.591-2.348,2.396-3.546c0.083-0.124,0.164-0.242,0.247-0.366c0.13,0.04,0.266,0.076,0.396,0.116
		c1.89,0.577,3.809,1.138,5.75,1.685c0.755,0.213,1.524,0.417,2.287,0.625c1.363,0.372,2.734,0.74,4.121,1.098
		c0.851,0.219,1.708,0.435,2.567,0.648c1.389,0.346,2.791,0.683,4.203,1.014c0.804,0.189,1.606,0.379,2.418,0.562
		c1.779,0.403,3.578,0.793,5.392,1.173c0.437,0.091,0.865,0.188,1.304,0.278c2.406,0.495,4.842,0.97,7.307,1.426
		c0.01,0.002,0.02,0.004,0.03,0.005c2.449,0.452,4.933,0.88,7.439,1.293c0.255,0.042,0.513,0.082,0.768,0.124
		C167.017,324.817,168.313,325.034,169.63,325.235z M339.136,76.103l11.569,19.658c-1.308,4.818-3.36,10.748-5.551,14.882
		c-0.017,0.031-0.033,0.061-0.049,0.092c-0.189,0.354-0.379,0.692-0.57,1.018c-0.039,0.066-0.077,0.132-0.116,0.197
		c-0.172,0.288-0.345,0.559-0.518,0.819c-0.048,0.072-0.096,0.148-0.144,0.218c-0.174,0.254-0.347,0.487-0.521,0.71
		c-0.042,0.054-0.085,0.115-0.127,0.168c-0.215,0.267-0.429,0.511-0.643,0.724c-0.469,0.469-0.924,0.913-1.37,1.34
		c-0.075,0.072-0.148,0.14-0.222,0.21c-0.366,0.348-0.724,0.682-1.075,1.003c-0.087,0.08-0.175,0.16-0.261,0.239
		c-0.374,0.339-0.74,0.665-1.096,0.975c-0.033,0.029-0.068,0.06-0.102,0.089c-0.401,0.347-0.79,0.676-1.168,0.987
		c-0.038,0.031-0.073,0.06-0.111,0.09c-0.324,0.266-0.638,0.517-0.944,0.758c-0.082,0.064-0.162,0.126-0.243,0.189
		c-0.271,0.21-0.534,0.41-0.791,0.6c-0.067,0.05-0.136,0.102-0.203,0.151c-0.63,0.463-1.215,0.867-1.754,1.221
		c-0.065,0.043-0.128,0.082-0.192,0.124c-0.201,0.13-0.396,0.253-0.584,0.368c-0.068,0.042-0.136,0.084-0.202,0.124
		c-0.199,0.12-0.391,0.234-0.575,0.339c-0.033,0.019-0.069,0.041-0.102,0.059c-0.218,0.124-0.425,0.237-0.62,0.34
		c-0.032,0.017-0.061,0.032-0.093,0.048c-0.16,0.083-0.312,0.16-0.455,0.23c-0.042,0.02-0.082,0.04-0.123,0.059
		c-0.055,0.027-0.104,0.048-0.157,0.073c-2.112-1.102-4.174-2.393-6.116-3.832c-0.081-0.06-0.159-0.122-0.239-0.183
		c-0.55-0.413-1.09-0.838-1.618-1.273c-0.177-0.145-0.348-0.294-0.522-0.442c-0.409-0.347-0.81-0.699-1.203-1.058
		c-0.239-0.218-0.474-0.439-0.706-0.66c-0.3-0.286-0.592-0.576-0.881-0.868c-0.279-0.283-0.557-0.565-0.824-0.852
		c-0.211-0.225-0.411-0.455-0.615-0.683c-4.009-4.511-6.511-9.421-6.511-13.632C310.792,88.188,322.972,77.633,339.136,76.103z
		 M315.775,369.468l0.198-0.187c2.008-1.901,4.143-4.097,6.391-6.556v36.969c-0.125-0.089-0.254-0.173-0.381-0.26
		c-0.084-0.058-0.168-0.115-0.253-0.173c-0.279-0.188-0.561-0.372-0.848-0.551c-0.068-0.043-0.136-0.084-0.204-0.126
		c-0.31-0.191-0.622-0.378-0.939-0.558c-0.003-0.002-0.006-0.003-0.009-0.005c-1.427-0.811-2.928-1.511-4.491-2.094
		c-0.021-0.008-0.042-0.016-0.063-0.024c-0.366-0.136-0.735-0.264-1.107-0.386c-0.046-0.015-0.093-0.03-0.139-0.045
		c-0.37-0.12-0.742-0.233-1.117-0.339c-0.034-0.01-0.068-0.018-0.102-0.028c-0.388-0.108-0.778-0.211-1.172-0.305v-15.488
		C311.541,375.605,313.084,372.017,315.775,369.468z M320.057,434.492c0,0.789-0.642,1.431-1.432,1.431h-46.362
		c-1.109,0-2.01-0.902-2.01-2.01v-25.438l33.914,0.213c8.762,0,15.89,6.56,15.89,14.624V434.492z M339.123,435.923
		c-1.109,0-2.011-0.902-2.011-2.01v-25.302l33.915,0.077c8.762,0,15.889,6.56,15.889,14.624v11.18c0,0.197-0.04,0.385-0.113,0.557
		c-0.217,0.514-0.727,0.875-1.32,0.875L339.123,435.923L339.123,435.923z M372.693,358.571l-0.195,0.185
		c-6.077,5.747-8.845,15.988-8.845,23.071v12.097l-26.542-0.06v-48.995c0.193-0.252,0.39-0.516,0.584-0.771
		c0.219-0.288,0.439-0.579,0.659-0.87c0.556-0.735,1.116-1.482,1.682-2.24c0.266-0.356,0.53-0.71,0.798-1.071
		c0.579-0.781,1.165-1.577,1.754-2.381c0.254-0.347,0.505-0.687,0.761-1.038c0.734-1.007,1.476-2.033,2.224-3.075
		c0.351-0.488,0.707-0.989,1.061-1.485c0.48-0.673,0.962-1.349,1.448-2.036c0.368-0.52,0.737-1.044,1.108-1.571
		c0.521-0.741,1.046-1.491,1.573-2.248c0.321-0.461,0.641-0.917,0.964-1.384c0.855-1.233,1.716-2.48,2.586-3.751
		c0.485-0.103,1.002-0.215,1.535-0.331c0.033-0.007,0.065-0.014,0.098-0.021c3.888-0.844,8.923-1.976,13.595-3.043
		c4.565,2.65,9.43,4.769,14.503,6.311c0.035,0.011,0.07,0.021,0.105,0.031c0.586,0.177,1.175,0.348,1.767,0.509
		c0.072,0.02,0.144,0.038,0.217,0.058c0.56,0.151,1.122,0.297,1.687,0.434c0.103,0.025,0.206,0.048,0.309,0.073
		c0.541,0.129,1.082,0.253,1.626,0.368c0.123,0.026,0.247,0.05,0.371,0.075c0.529,0.109,1.058,0.216,1.59,0.313
		c0.132,0.024,0.265,0.044,0.397,0.068c0.528,0.093,1.057,0.184,1.588,0.265c0.107,0.016,0.214,0.029,0.321,0.045
		c1.72,0.253,3.456,0.441,5.204,0.564c0.143,0.01,0.286,0.024,0.43,0.034C390.008,339.299,379.348,352.27,372.693,358.571z
		 M468.907,76.105c16.177,1.538,28.346,12.089,28.346,24.617c0,7.725-8.404,17.836-19.184,23.465
		c-0.036-0.017-0.068-0.031-0.105-0.049c-0.054-0.026-0.112-0.054-0.169-0.082c-0.119-0.058-0.245-0.122-0.374-0.19
		c-0.057-0.03-0.112-0.058-0.171-0.089c-0.191-0.101-0.391-0.21-0.604-0.331c-0.016-0.009-0.033-0.019-0.049-0.029
		c-0.198-0.113-0.408-0.237-0.625-0.368c-0.067-0.041-0.137-0.084-0.205-0.127c-0.181-0.111-0.368-0.23-0.562-0.355
		c-0.073-0.048-0.147-0.094-0.222-0.144c-0.243-0.159-0.494-0.328-0.756-0.509c-0.025-0.017-0.048-0.032-0.073-0.05
		c-0.292-0.203-0.597-0.421-0.911-0.653c-0.066-0.049-0.136-0.102-0.203-0.152c-0.25-0.186-0.507-0.381-0.771-0.585
		c-0.093-0.072-0.186-0.144-0.28-0.218c-0.273-0.215-0.554-0.44-0.842-0.675c-0.073-0.059-0.143-0.115-0.217-0.176
		c-0.365-0.301-0.74-0.618-1.127-0.953c-0.053-0.046-0.108-0.096-0.162-0.142c-0.329-0.287-0.667-0.587-1.011-0.9
		c-0.116-0.105-0.234-0.214-0.352-0.322c-0.304-0.279-0.613-0.568-0.929-0.867c-0.121-0.114-0.24-0.226-0.362-0.344
		c-0.43-0.412-0.867-0.838-1.318-1.289c-0.003-0.003-0.005-0.006-0.008-0.009c-0.207-0.207-0.415-0.444-0.623-0.701
		c-0.069-0.086-0.139-0.185-0.208-0.275c-0.142-0.186-0.284-0.374-0.426-0.581c-0.081-0.118-0.162-0.245-0.243-0.369
		c-0.131-0.201-0.262-0.406-0.393-0.622c-0.083-0.138-0.167-0.281-0.25-0.425c-0.129-0.223-0.258-0.452-0.386-0.688
		c-0.082-0.151-0.163-0.303-0.245-0.459c-0.131-0.251-0.262-0.51-0.392-0.774c-0.076-0.153-0.152-0.305-0.227-0.462
		c-0.142-0.295-0.282-0.599-0.421-0.907c-0.061-0.135-0.124-0.267-0.185-0.405c-0.187-0.421-0.372-0.851-0.555-1.289
		c-0.012-0.028-0.024-0.055-0.036-0.084c-0.2-0.482-0.397-0.974-0.591-1.472c-0.032-0.083-0.063-0.167-0.095-0.251
		c-0.156-0.406-0.311-0.814-0.462-1.226c-0.052-0.143-0.103-0.286-0.155-0.429c-0.13-0.359-0.258-0.718-0.383-1.079
		c-0.054-0.156-0.107-0.311-0.16-0.467c-0.12-0.352-0.238-0.704-0.354-1.055c-0.051-0.155-0.101-0.309-0.151-0.463
		c-0.116-0.36-0.229-0.717-0.34-1.073c-0.042-0.137-0.085-0.275-0.127-0.411c-0.121-0.395-0.237-0.785-0.349-1.172
		c-0.027-0.091-0.054-0.184-0.081-0.274c-0.149-0.516-0.29-1.022-0.424-1.517L468.907,76.105z"/>
	<path style="fill:#121419;" d="M365.04,285.139c0.896,1.547,1.568,3.21,1.998,4.946c1.684,6.783,7.193,12.077,14.037,13.486
		c9.796,2.016,17.53,3.038,22.991,3.038s13.195-1.022,22.993-3.038c6.844-1.41,12.352-6.704,14.035-13.485
		c0.431-1.739,1.104-3.404,1.997-4.946l0.896-1.546c3.688-6.371,3.337-14.38-0.894-20.405c-3.581-5.1-9.441-8.144-15.672-8.144
		h-2.883c-1.317,0-2.61,0.353-3.745,1.022c-2.924,1.724-6.263,2.635-9.656,2.635h-14.141c-3.393,0-6.731-0.911-9.654-2.635
		c-1.135-0.669-2.429-1.022-3.746-1.022h-2.883c-6.232,0-12.091,3.044-15.672,8.144c-4.231,6.025-4.582,14.034-0.894,20.405
		L365.04,285.139z M377.109,271.665c0.742-1.057,1.911-1.725,3.183-1.848l3.143,9.99c0.991,3.148,3.897,5.162,7.032,5.162
		c0.733,0,1.479-0.11,2.215-0.342c3.885-1.222,6.043-5.362,4.821-9.247l-0.609-1.935c0.034,0,0.068,0.003,0.103,0.003h14.141
		c0.202,0,0.404-0.014,0.606-0.018l-0.613,1.951c-1.222,3.884,0.937,8.024,4.822,9.246c0.736,0.231,1.481,0.342,2.214,0.342
		c3.135,0,6.042-2.014,7.032-5.163l3.119-9.916c1.085,0.226,2.061,0.85,2.71,1.774c0.942,1.341,1.02,3.123,0.201,4.539l-0.895,1.544
		c-1.589,2.745-2.783,5.7-3.549,8.786c-0.324,1.305-1.383,2.323-2.696,2.594c-8.571,1.763-15.68,2.734-20.019,2.734
		s-11.448-0.972-20.018-2.734c-1.314-0.271-2.374-1.289-2.698-2.593c-0.763-3.082-1.958-6.038-3.548-8.785l-0.893-1.543
		C376.089,274.788,376.167,273.006,377.109,271.665z"/>
	<path style="fill:#121419;" d="M404.067,256.431c17.326,0,31.421-12.82,31.421-28.578c0-0.456-0.012-0.916-0.036-1.377
		c0.078-0.779,0.033-1.574-0.144-2.355l-19.754-87.717c-1.357-6.02-5.973-10.064-11.487-10.064s-10.132,4.045-11.486,10.065
		l-19.753,87.716c-0.177,0.782-0.222,1.576-0.144,2.355c-0.024,0.461-0.036,0.921-0.036,1.377
		C372.646,243.611,386.741,256.431,404.067,256.431z M387.466,226.561c0.019-0.166,0.032-0.331,0.039-0.497l16.562-73.537
		l16.561,73.537c0.008,0.165,0.02,0.331,0.039,0.497c0.048,0.435,0.073,0.87,0.073,1.292c0,7.626-7.48,13.831-16.674,13.831
		s-16.674-6.205-16.674-13.831C387.393,227.431,387.418,226.996,387.466,226.561z"/>
	<path style="fill:#121419;" d="M354.542,230.343h-1.67c-4.073,0-7.373,3.301-7.373,7.373s3.301,7.373,7.373,7.373h1.67
		c4.073,0,7.373-3.301,7.373-7.373S358.615,230.343,354.542,230.343z"/>
	<path style="fill:#121419;" d="M452.62,245.089h1.669c4.073,0,7.373-3.301,7.373-7.373s-3.301-7.373-7.373-7.373h-1.669
		c-4.073,0-7.373,3.301-7.373,7.373S448.547,245.089,452.62,245.089z"/>
</g>
<g>
</g>
<g>
</g>
<g>
</g>
<g>
</g>
<g>
</g>
<g>
</g>
<g>
</g>
<g>
</g>
<g>
</g>
<g>
</g>
<g>
</g>
<g>
</g>
<g>
</g>
<g>
</g>
<g>
</g>
</svg>
