<?xml version="1.0" encoding="iso-8859-1"?>
<!-- Generator: Adobe Illustrator 19.0.0, SVG Export Plug-In . SVG Version: 6.00 Build 0)  -->
<svg version="1.1" id="Layer_1" xmlns="http://www.w3.org/2000/svg" xmlns:xlink="http://www.w3.org/1999/xlink" x="0px" y="0px"
	 viewBox="0 0 512.001 512.001" style="enable-background:new 0 0 512.001 512.001;" xml:space="preserve">
<rect x="474.864" y="169.982" transform="matrix(-0.9912 -0.1326 0.1326 -0.9912 933.2299 473.0109)" style="fill:#3E3D42;" width="15" height="70.901"/>
<path style="fill:#004FAC;" d="M509.454,179.978l2.454-18.641c0.939-7.127-5.337-13.102-12.41-11.815l-36.823,6.696
	c-5.762,1.048-9.949,6.066-9.949,11.922v8.94c0,6.692,5.425,12.117,12.117,12.117h34.098
	C504.263,189.197,508.759,185.254,509.454,179.978z"/>
<path style="fill:#00479B;" d="M482.34,163.051c0-4.028,1.198-7.81,3.259-11.001l-22.925,4.169
	c-5.762,1.048-9.949,6.066-9.949,11.922v8.939c0,6.692,5.425,12.117,12.117,12.117h20.852c-2.116-3.205-3.355-7.039-3.355-11.167
	v-14.979H482.34z"/>
<path style="fill:#005ECE;" d="M495.55,288.185l7.972-59.367c1.833-13.652-8.784-25.79-22.559-25.79h-33.41l-10.413-17.746
	c-18.615-31.725-52.646-51.213-89.43-51.213h-46.367c-29.286,0-57.207,12.385-76.863,34.094l-16.613,18.349
	c-12.516,13.823-29.978,22.151-48.597,23.177l-95.734,5.273c-40.854,1.25-54.957,32.271-54.957,32.271
	c-8.701,13.759-10.912,30.649-6.046,46.184l3.37,10.76c3.965,12.661,15.694,21.278,28.96,21.278h418.075
	C474.473,325.456,492.684,309.527,495.55,288.185z"/>
<g>
	<path style="fill:#004FAC;" d="M101.545,304.287c-7.296-23.299-3.98-48.627,9.068-69.262c0,0,5.343-11.746,18.43-23.673
		l-65.506,3.609C22.683,216.212,8.58,247.234,8.58,247.234c-8.701,13.759-10.912,30.649-6.046,46.184l3.37,10.76
		c3.965,12.661,15.694,21.278,28.96,21.278h73.646c-0.728-1.625-1.369-3.303-1.911-5.032L101.545,304.287z"/>
	<path style="fill:#004FAC;" d="M255.888,172.563l-41.902,45.227c-11.479,12.39-17.856,28.658-17.856,45.547v45.183h139.094
		l22.943-46.81c5.473-11.166,6.953-23.872,4.193-35.998l-8.591-37.741L255.888,172.563z"/>
</g>
<path style="fill:#00479B;" d="M253.16,223.561l41.582-44.881l-38.854-6.116l-41.902,45.227
	c-11.479,12.39-17.856,28.658-17.856,45.547v45.183h39.175v-39.412C235.304,252.218,241.681,235.951,253.16,223.561z"/>
<path style="fill:#003F8A;" d="M484.432,293.418H18.553c-8.811,0-16.019,7.209-16.019,16.019c0,8.81,7.208,16.019,16.019,16.019
	h465.879c8.811,0,16.019-7.208,16.019-16.019C500.451,300.627,493.242,293.418,484.432,293.418z"/>
<path style="fill:#003068;" d="M101.545,304.287c-1.122-3.583-1.991-7.214-2.615-10.868H18.553c-8.811,0-16.019,7.209-16.019,16.019
	c0,8.81,7.208,16.019,16.019,16.019h89.957c-0.728-1.625-1.369-3.303-1.911-5.032L101.545,304.287z"/>
<path style="fill:#D1E7F8;" d="M429.5,210.717c2.872,4.895,8.124,7.903,13.799,7.903h11.223c6.128,0,12.003-2.446,16.32-6.793
	l8.737-8.798h-32.027l-10.413-17.746c-18.616-31.725-52.647-51.213-89.431-51.213h-46.365c-29.286,0-57.207,12.385-76.864,34.094
	l-16.613,18.349c-12.516,13.823-29.978,22.151-48.597,23.177l-86.002,4.738l10.782,7.119c7.345,4.85,16.057,7.207,24.846,6.723
	l66.731-3.677c16.696-0.92,32.355-8.388,43.579-20.784l14.896-16.452c17.626-19.467,42.664-30.574,68.925-30.574h41.578
	c32.984,0,63.5,17.475,80.193,45.923L429.5,210.717z"/>
<path style="fill:#B9D8F4;" d="M129.043,211.351l-55.775,3.073l10.782,7.119c7.345,4.85,16.057,7.207,24.846,6.723l5.835-0.321
	C117.693,223.488,122.357,217.445,129.043,211.351z"/>
<path style="fill:#2D2D30;" d="M255.888,172.563l-17.865,19.265c-6.004,6.475-1.412,16.995,7.417,16.995h96.949
	c6.285,0,11.38-5.095,11.38-11.38v-22.959c0-9.777-7.926-17.703-17.703-17.703h-44.019
	C278.323,156.781,265.219,162.5,255.888,172.563z"/>
<path style="fill:#FFEB99;" d="M3.826,256.675h31.762c9.602,0,18.456-5.184,23.155-13.557l1.897-3.38
	c3.302-5.881-0.925-13.146-7.67-13.184l-25.769-0.143C13.842,235.7,8.58,247.234,8.58,247.234
	C6.676,250.245,5.103,253.412,3.826,256.675z"/>
<circle style="fill:#C6C5CA;" cx="383.671" cy="195.405" r="10"/>
<circle style="fill:#FFFFFF;" cx="302.039" cy="250.355" r="20.588"/>
<circle style="fill:#3E3D42;" cx="135.222" cy="325.363" r="52.476"/>
<path style="fill:#2D2D30;" d="M135.223,362.835c-20.665,0-37.477-16.812-37.477-37.477s16.812-37.476,37.477-37.476
	s37.477,16.812,37.477,37.476S155.888,362.835,135.223,362.835z"/>
<path style="fill:#C6C5CA;" d="M135.223,347.835c-12.393,0-22.476-10.083-22.476-22.476s10.083-22.476,22.476-22.476
	c12.393,0,22.476,10.082,22.476,22.476C157.699,337.751,147.617,347.835,135.223,347.835z"/>
<path style="fill:#ACABB1;" d="M135.223,325.456c0-8.336,4.565-15.621,11.324-19.501c-3.327-1.949-7.196-3.073-11.324-3.073
	c-12.393,0-22.476,10.082-22.476,22.477c0,12.393,10.083,22.476,22.476,22.476c4.058,0,7.863-1.086,11.153-2.975
	C139.711,340.955,135.223,333.722,135.223,325.456z"/>
<circle style="fill:#3E3D42;" cx="366.621" cy="325.455" r="52.476"/>
<path style="fill:#2D2D30;" d="M366.625,362.933c-20.665,0-37.477-16.812-37.477-37.477s16.812-37.477,37.477-37.477
	s37.477,16.812,37.477,37.477S387.291,362.933,366.625,362.933z"/>
<path style="fill:#C6C5CA;" d="M366.625,347.933c-12.393,0-22.477-10.083-22.477-22.476s10.083-22.477,22.477-22.477
	c12.393,0,22.476,10.083,22.476,22.477S379.018,347.933,366.625,347.933z"/>
<path style="fill:#ACABB1;" d="M366.625,325.554c0-8.336,4.565-15.621,11.324-19.501c-3.328-1.949-7.196-3.073-11.324-3.073
	c-12.393,0-22.477,10.082-22.477,22.477c0,12.393,10.083,22.476,22.477,22.476c4.058,0,7.863-1.086,11.153-2.975
	C371.114,341.053,366.625,333.82,366.625,325.554z"/>
<g>
</g>
<g>
</g>
<g>
</g>
<g>
</g>
<g>
</g>
<g>
</g>
<g>
</g>
<g>
</g>
<g>
</g>
<g>
</g>
<g>
</g>
<g>
</g>
<g>
</g>
<g>
</g>
<g>
</g>
</svg>
