<?xml version="1.0" encoding="iso-8859-1"?>
<!-- Generator: Adobe Illustrator 19.0.0, SVG Export Plug-In . SVG Version: 6.00 Build 0)  -->
<svg version="1.1" id="Layer_1" xmlns="http://www.w3.org/2000/svg" xmlns:xlink="http://www.w3.org/1999/xlink" x="0px" y="0px"
	 viewBox="0 0 512 512" style="enable-background:new 0 0 512 512;" xml:space="preserve">
<path style="fill:#49BAEC;" d="M489.716,137.215c0.946-2.711,0.343-5.843-1.823-8.01l-19.026-19.026l15.127-15.127
	c3.017-3.017,3.017-7.91,0-10.926c-3.017-3.017-7.91-3.017-10.926,0L457.94,99.253l-17.315-17.315l21.67-21.672
	c3.017-3.017,3.017-7.91,0-10.926c-3.017-3.017-7.91-3.017-10.926,0l-21.671,21.671l-17.315-17.315l15.127-15.127
	c3.017-3.017,3.017-7.91,0-10.926c-3.017-3.017-7.91-3.017-10.926,0l-15.127,15.127l-19.017-19.017
	c-2.111-2.111-5.14-2.739-7.802-1.897c-3-1.991-7.086-1.666-9.73,0.979L349.93,37.812l-6.272-6.272
	c-3.017-3.017-7.91-3.017-10.926,0c-3.017,3.017-3.017,7.91,0,10.926l6.272,6.272l-12.359,12.359l-14.066-14.066
	c-3.017-3.017-7.91-3.017-10.926,0c-3.017,3.017-3.017,7.91,0,10.926l14.066,14.066l-13.216,13.215L286.03,68.766
	c-3.017-3.017-7.91-3.017-10.926,0c-3.017,3.017-3.017,7.91,0,10.926l16.473,16.473l-13.778,13.778l-13.951-13.95
	c-3.017-3.017-7.91-3.017-10.926,0c-3.017,3.017-3.017,7.91,0,10.926l13.951,13.951l-12.923,12.923l-5.748-5.748
	c-3.017-3.017-7.91-3.017-10.926,0c-3.017,3.017-3.017,7.91,0,10.926l5.748,5.748l-14.252,14.252c-3.017,3.017-3.017,7.91,0,10.926
	c0.454,0.454,0.955,0.831,1.481,1.15c-0.844,2.662-0.215,5.69,1.897,7.802l16.614,16.614l-14.784,14.784
	c-3.017,3.017-3.017,7.91,0,10.926c1.508,1.509,3.486,2.263,5.463,2.263c1.977,0,3.955-0.754,5.463-2.263l14.784-14.784
	l17.315,17.315l-21.328,21.328c-3.017,3.017-3.017,7.91,0,10.926c1.508,1.508,3.486,2.263,5.463,2.263
	c1.977,0,3.955-0.754,5.463-2.263l21.328-21.328l17.315,17.315l-14.785,14.785c-3.017,3.017-3.017,7.91,0,10.926
	c1.508,1.508,3.486,2.263,5.463,2.263c1.977,0,3.955-0.754,5.463-2.263l14.785-14.785l17.495,17.495
	c1.508,1.508,3.486,2.263,5.463,2.263c0.716,0,1.431-0.102,2.124-0.3c0.152,0.183,0.311,0.363,0.483,0.534
	c1.508,1.508,3.486,2.263,5.463,2.263s3.955-0.754,5.463-2.263l14.252-14.252l5.748,5.748c1.508,1.508,3.486,2.263,5.463,2.263
	s3.955-0.754,5.463-2.263c3.017-3.017,3.017-7.91,0-10.926l-5.748-5.748l12.923-12.923l13.95,13.95
	c1.508,1.508,3.486,2.263,5.463,2.263s3.955-0.754,5.463-2.263c3.017-3.017,3.017-7.91,0-10.926l-13.95-13.95l13.778-13.778
	l16.473,16.473c1.508,1.508,3.486,2.263,5.463,2.263s3.955-0.754,5.463-2.263c3.017-3.017,3.017-7.91,0-10.926l-16.473-16.473
	l13.214-13.214l11.217,11.217c1.508,1.508,3.486,2.263,5.463,2.263s3.955-0.754,5.463-2.263c3.017-3.017,3.017-7.91,0-10.926
	l-11.217-11.217l12.359-12.359l5.748,5.748c1.508,1.509,3.486,2.263,5.463,2.263c1.977,0,3.955-0.754,5.463-2.263
	c3.017-3.017,3.017-7.91,0-10.926l-5.748-5.748l14.856-14.856C491.297,144.233,491.64,140.206,489.716,137.215z M447.012,110.178
	l-12.359,12.359l-17.315-17.315l12.359-12.359L447.012,110.178z M372.2,128.507l-13.214,13.214l-17.315-17.315l13.214-13.214
	L372.2,128.507z M365.811,100.266l12.359-12.359l17.315,17.315l-12.359,12.359L365.811,100.266z M348.059,152.648l-13.778,13.778
	l-17.315-17.315l13.778-13.778L348.059,152.648z M323.355,177.352l-12.923,12.923l-17.315-17.315l12.923-12.923L323.355,177.352z
	 M334.282,188.279l17.315,17.315l-12.923,12.923l-17.315-17.315L334.282,188.279z M345.209,177.352l13.778-13.778l17.315,17.315
	l-13.778,13.778L345.209,177.352z M369.912,152.648l13.214-13.214l17.315,17.315l-13.214,13.214L369.912,152.648z M394.054,128.507
	l12.359-12.359l17.315,17.315l-12.359,12.359L394.054,128.507z M418.771,81.937l-12.359,12.359l-17.315-17.315l12.359-12.359
	L418.771,81.937z M373.214,36.379l17.315,17.315L378.17,66.054l-17.315-17.315L373.214,36.379z M349.929,59.665l17.315,17.315
	L354.885,89.34L337.57,72.024L349.929,59.665z M326.643,82.951l17.315,17.315l-13.214,13.214l-17.315-17.315L326.643,82.951z
	 M302.503,107.092l17.315,17.315l-13.778,13.778l-17.315-17.315L302.503,107.092z M277.798,131.796l17.315,17.315l-12.923,12.923
	l-17.315-17.315L277.798,131.796z M243.075,167.92c-0.238-0.238-0.491-0.45-0.751-0.651l11.625-11.625l17.315,17.315l-11.575,11.575
	L243.075,167.92z M270.616,195.461l11.575-11.575l17.315,17.315l-11.575,11.575L270.616,195.461z M298.858,223.703l11.575-11.575
	l17.315,17.315l-11.575,11.575L298.858,223.703z M344.415,269.26L327.1,251.945l11.575-11.575l17.315,17.315L344.415,269.26z
	 M366.917,246.759l-17.315-17.315l12.923-12.923l17.315,17.315L366.917,246.759z M390.765,222.91l-17.315-17.315l13.778-13.778
	l17.315,17.315L390.765,222.91z M415.469,198.205l-17.315-17.315l13.214-13.214l17.315,17.315L415.469,198.205z M439.61,174.065
	l-17.315-17.315l12.359-12.359l17.315,17.315L439.61,174.065z M445.58,133.463l12.359-12.359l17.315,17.315l-12.359,12.359
	L445.58,133.463z"/>
<rect x="121.858" y="302.696" transform="matrix(-0.7071 -0.7071 0.7071 -0.7071 -16.8628 731.4852)" style="fill:#D8D7DA;" width="42.412" height="133.077"/>
<path style="fill:#E0E0E3;" d="M478.095,33.536C425.368-19.18,329.304-8.599,263.524,57.193
	c-28.301,28.301-46.389,62.205-53.606,95.852c-14.379,67.05-23.847,113.773-60.69,171.601l0,0c-1.164,1.821-0.905,4.207,0.623,5.736
	l31.398,31.398c1.529,1.529,3.915,1.788,5.736,0.623l0,0c40.375-25.717,75.336-38.092,115.577-48.116
	c17.398-4.333,35.786-8.231,56.023-12.574c32.89-7.051,66.025-24.493,93.937-51.713c0.646-0.623,1.292-1.259,1.926-1.893
	C520.229,182.327,530.81,86.263,478.095,33.536z M194.005,311.985l20.607-46.68c1.215-2.751,4.813-3.423,6.939-1.297l26.073,26.073
	c2.126,2.126,1.454,5.725-1.297,6.939l-46.68,20.607C196.072,319.204,192.427,315.558,194.005,311.985z M437.408,231.066
	c-2.884,2.885-5.825,5.636-8.843,8.242c-33.213,28.925-73.922,42.046-109.819,38.025c-21.93-2.451-42.056-11.294-57.605-26.842
	c-43.315-43.304-34.616-122.227,19.424-176.257c54.041-54.041,132.953-62.739,176.268-19.435
	C500.137,98.114,491.449,177.026,437.408,231.066z"/>
<path style="fill:#D8D7DA;" d="M452.522,250.001c-27.912,27.22-61.046,44.662-93.937,51.713
	c-20.238,4.343-38.627,8.242-56.023,12.574c2.852-13.532,8.454-26.051,16.183-36.956c35.898,4.021,76.606-9.1,109.819-38.025
	C437.085,241.815,445.116,245.434,452.522,250.001z"/>
<path style="fill:#6FD357;" d="M150.353,401.936l-2.586,2.586l-10.93,10.93l-70.67,70.681l-19.872,19.872
	c-7.994,7.994-20.964,7.994-28.948,0l-4.862-4.862l-6.119-6.119c-7.994-7.994-7.994-20.964,0-28.958l8.963-8.963l81.58-81.58
	l10.93-10.93l2.586-2.586c7.994-7.994,20.944-7.994,28.948,0l10.982,10.982C158.347,380.982,158.347,393.942,150.353,401.936z"/>
<path style="fill:#67C14D;" d="M150.349,401.936L46.293,506.004c-7.995,7.995-20.962,7.995-28.945,0l-4.862-4.862l133-133.013
	l4.862,4.862C158.344,380.986,158.344,393.941,150.349,401.936z"/>
<g>
	<path style="fill:#9EE78D;" d="M66.167,486.133l-10.92,10.92c-0.031-0.021-0.062-0.051-0.093-0.082l-39.538-39.538
		c-0.103-0.103-0.206-0.216-0.288-0.33l10.889-10.889c0.113,0.082,0.216,0.185,0.319,0.288l39.549,39.538
		C66.115,486.071,66.146,486.102,66.167,486.133z"/>
	<path style="fill:#9EE78D;" d="M147.767,404.522l-10.93,10.93c-0.031-0.031-0.052-0.052-0.082-0.082l-39.847-39.847l10.93-10.93
		l39.847,39.847C147.716,404.47,147.736,404.491,147.767,404.522z"/>
	<path style="fill:#9EE78D;" d="M475.684,335.046c0,26.816-13.99,50.366-35.067,63.748c-4.337,2.751-8.973,5.079-13.846,6.902
		c-8.262,3.111-17.204,4.811-26.548,4.811c-8.963,0-17.554-1.566-25.528-4.44c-4.904-1.751-9.56-4.007-13.928-6.696
		c-21.593-13.269-35.995-37.117-35.995-64.325c0-26.558,13.722-49.912,34.46-63.356c4.286-2.781,8.88-5.141,13.712-7.016
		c8.458-3.276,17.657-5.079,27.279-5.079c9.849,0,19.264,1.885,27.897,5.326c4.832,1.926,9.416,4.327,13.691,7.17
		C462.22,285.587,475.684,308.746,475.684,335.046z"/>
</g>
<path style="fill:#6FD357;" d="M475.679,335.046c0,41.678-33.781,75.459-75.459,75.459c-41.667,0-75.447-33.781-75.447-75.459
	c0-5.937,0.69-11.717,1.982-17.264c7.808,33.358,37.736,58.195,73.465,58.195c35.741,0,65.669-24.838,73.477-58.195
	C474.988,323.329,475.679,329.109,475.679,335.046z"/>
<g>
	<path style="fill:#E0E0E3;" d="M374.695,406.067c-4.904-1.751-9.56-4.007-13.928-6.696c30.442-65.324-0.907-126.414-1.226-127.021
		c-0.113-0.216-0.216-0.433-0.309-0.659c4.286-2.781,8.88-5.141,13.712-7.016c0.103,0.165,0.196,0.319,0.278,0.484
		c0.371,0.701,9.096,17.513,13.65,43.268C391.065,332.162,392.332,368.331,374.695,406.067z"/>
	<path style="fill:#E0E0E3;" d="M428.121,264.922c-1.051,2.04-9.21,18.481-13.547,43.072c-4.193,23.735-5.46,59.936,12.197,97.702
		c4.873-1.823,9.509-4.152,13.846-6.902c-12.62-27.114-16.287-56.578-10.92-87.576c3.843-22.159,11.198-37.313,12.115-39.126
		L428.121,264.922z"/>
</g>
<g>
</g>
<g>
</g>
<g>
</g>
<g>
</g>
<g>
</g>
<g>
</g>
<g>
</g>
<g>
</g>
<g>
</g>
<g>
</g>
<g>
</g>
<g>
</g>
<g>
</g>
<g>
</g>
<g>
</g>
</svg>
