<?xml version="1.0" encoding="iso-8859-1"?>
<!-- Generator: Adobe Illustrator 19.0.0, SVG Export Plug-In . SVG Version: 6.00 Build 0)  -->
<svg version="1.1" id="Capa_1" xmlns="http://www.w3.org/2000/svg" xmlns:xlink="http://www.w3.org/1999/xlink" x="0px" y="0px"
	 viewBox="0 0 512 512" style="enable-background:new 0 0 512 512;" xml:space="preserve">
<rect x="191.22" y="454" style="fill:#346FD1;" width="129.55" height="48"/>
<polygon style="fill:#626D99;" points="281.824,425 230.176,425 191.225,454 320.775,454 "/>
<path style="fill:#DB4949;" d="M256.791,10.019V10c-0.138,0-0.274,0.003-0.411,0.005v0.014
	c46.863,0.788,81.918,74.271,81.918,172.09c0,90.152-47.245,147.522-51.182,204.891h33.658
	c8.196-57.37,106.543-114.739,106.543-204.891C427.318,84.29,354.345,10.807,256.791,10.019z"/>
<path style="fill:#A0E070;" d="M255.62,10.019v-0.014c-0.137-0.002-0.273-0.005-0.411-0.005v0.019
	C157.655,10.807,84.682,84.29,84.682,182.109c0,90.152,98.348,147.522,106.543,204.891h33.658
	c-3.937-57.37-51.182-114.739-51.182-204.891C173.702,84.29,208.757,10.807,255.62,10.019z"/>
<g>
	<path style="fill:#29C2E5;" d="M256,10.009L256,10.009L256,10.009z"/>
	<path style="fill:#29C2E5;" d="M256.38,10.019v-0.014V10c-0.127,0-0.253,0.008-0.38,0.009l0,0l0,0
		c-0.127-0.001-0.253-0.009-0.38-0.009v0.005v0.014c-46.863,0.788-81.919,74.271-81.919,172.09
		c0,90.152,47.245,147.522,51.182,204.891h62.233c3.937-57.37,51.182-114.739,51.182-204.891
		C338.298,84.29,303.243,10.807,256.38,10.019z"/>
</g>
<path style="fill:#FFC45C;" d="M287.117,387c3.937-57.37,51.182-114.739,51.182-204.891c0-97.819-35.055-171.302-81.918-172.09
	v-0.014V10c-0.127,0-0.253,0.008-0.38,0.009l0,0c-0.127-0.001-0.253-0.009-0.38-0.009v0.005v0.014V387H287.117z"/>
<path d="M255.999,224.267c5.523,0,10-4.518,10-10.041s-4.477-10-10-10s-10,4.477-10,10v0.082
	C245.999,219.831,250.476,224.267,255.999,224.267z"/>
<path d="M330.774,387.805c3.319-21.206,22.022-44.527,41.823-69.204c30.336-37.808,64.721-80.661,64.721-136.493
	c0-49.947-18.318-95.928-51.58-129.473C352.633,19.25,307.114,0.579,257.502,0.025C257.267,0.008,257.03,0,256.791,0l-0.753,0.009
	L255.209,0c-0.239,0-0.476,0.008-0.71,0.025c-49.611,0.554-95.133,19.225-128.237,52.611C93,86.181,74.682,132.162,74.682,182.109
	c0,55.832,34.384,98.685,64.721,136.493c19.801,24.677,38.503,47.997,41.823,69.204V502c0,5.523,4.477,10,10,10h129.549
	c5.523,0,10-4.477,10-10V387.805H330.774z M216.516,317.157c-14.62-34.812-32.814-78.136-32.814-141.208
	c0-73.348,28.61-119.933,52.611-146.097c3.027-3.3,6.29-5.797,9.688-7.454v157.909c0,5.523,4.477,10,10,10s10-4.477,10-10V22.397
	c3.398,1.657,6.661,4.155,9.687,7.454c24.001,26.164,52.611,72.749,52.611,146.097c0,63.073-18.194,106.397-32.814,141.208
	c-9.061,21.576-17.041,40.613-19.056,59.843H266V248.026c0-5.523-4.477-10-10-10s-10,4.477-10,10V377h-10.428
	C233.557,357.769,225.577,338.733,216.516,317.157z M310.774,434.088l-19.024-14.164V397h19.024V434.088z M240.176,397h31.574v18
	h-31.574V397z M220.176,397v22.978l-18.951,14.109V397H220.176z M233.49,435h45.02l12.088,9h-69.196L233.49,435z M417.318,182.109
	c0,48.8-32.046,88.739-60.32,123.976c-19.417,24.2-37.874,47.201-44.333,70.915h-16.099c2.053-15.61,8.959-32.098,17.359-52.099
	c15.314-36.467,34.374-81.851,34.374-148.953c0-72.044-25.663-120.657-50.081-150.603
	C368.355,43.319,417.318,104.918,417.318,182.109z M94.682,182.109c0-77.191,48.963-138.79,119.101-156.763
	c-24.419,29.946-50.081,78.559-50.081,150.603c0,67.102,19.06,112.486,34.374,148.953c8.4,20.001,15.306,36.489,17.359,52.099
	h-16.099c-6.459-23.714-24.916-46.715-44.333-70.915C126.729,270.848,94.682,230.909,94.682,182.109z M310.774,492H201.226v-28
	h109.549v28H310.774z"/>
<g>
</g>
<g>
</g>
<g>
</g>
<g>
</g>
<g>
</g>
<g>
</g>
<g>
</g>
<g>
</g>
<g>
</g>
<g>
</g>
<g>
</g>
<g>
</g>
<g>
</g>
<g>
</g>
<g>
</g>
</svg>
